<svg width="64" height="54" viewBox="0 0 64 54" fill="none" xmlns="http://www.w3.org/2000/svg">
<path id="Vector" d="M31.3042 1.10413C30.9639 1.77516 30.567 2.65589 30.3401 3.11722C30.0566 3.78825 27.8449 19.4736 27.7882 21.1092C27.7882 21.7383 26.1435 20.4801 17.9205 13.644C8.22302 5.50777 7.37237 4.83673 6.97539 5.13031C5.89789 5.9691 8.16631 9.24037 15.5954 17.5024L23.8184 26.6032L22.2305 26.8549C21.3799 27.0226 16.6162 27.484 11.6257 27.9034C1.75803 28.7002 0 28.9938 0 29.9165C0 30.8811 1.36105 31.0069 11.7958 31.0069H21.8335L15.8222 35.4944C7.82605 41.5336 6.57842 42.7079 7.42908 43.4209C8.33645 44.2597 9.81092 43.5887 18.998 37.9688C23.3647 35.3266 27.221 33.1458 27.5613 33.1038C27.9583 33.1038 28.3553 34.404 28.5821 36.2912C29.1492 40.8626 31.6445 51.8927 32.3817 52.8573C33.1757 53.9896 34.8203 53.696 35.0471 52.3959C35.1605 51.8088 35.5575 51.0958 35.8978 50.7603C36.3514 50.3409 36.5783 47.9084 36.5216 43.2951L36.4649 36.417L39.6407 38.6818C41.3987 39.9399 44.8013 42.2047 47.2399 43.7564C51.6633 46.5664 53.7049 47.1116 53.478 45.4759C53.081 42.2886 51.1529 40.0658 43.5537 33.9007C39.9809 30.9649 39.3004 30.21 40.0943 30.0003C40.6047 29.8326 45.8788 29.2035 51.8334 28.6163C62.6651 27.5259 65.047 26.9388 63.6292 25.8903C63.1188 25.5128 59.3759 25.3031 50.5858 25.1354L38.2796 24.9257L41.3987 22.4093C43.1 21.0253 46.7295 18.1734 49.4516 16.0765C52.2304 13.9795 54.4421 12.0084 54.4421 11.7567C54.4421 10.6663 52.5706 10.8341 49.7351 12.2181C48.0905 13.0149 44.1208 15.3216 40.8316 17.3347L34.877 20.9414L34.48 19.6413C34.3099 18.8864 33.9696 14.5247 33.7428 9.86945C33.5159 5.21419 33.2324 1.10414 33.1189 0.684742C32.6653 -0.363739 31.9847 -0.195984 31.3042 1.10413Z" fill="#FF7A2C"/>
</svg>
