<svg width="100" height="96" viewBox="0 0 100 96" fill="none" xmlns="http://www.w3.org/2000/svg">
<g id="Group">
<path id="Vector" d="M20.3824 38.1289L20.383 38.1271C20.7354 37.0506 20.5715 35.9543 20.3024 35.0566C20.0257 34.1338 19.5655 33.1847 19.0455 32.2694C18.0898 30.5873 16.762 28.7321 15.5158 26.991C15.412 26.846 15.3087 26.7017 15.2063 26.5585C13.8262 24.6275 12.5989 22.8735 11.8564 21.4117C11.4849 20.6805 11.3016 20.1477 11.2445 19.7921C11.2374 19.7474 11.2327 19.7093 11.2298 19.6774C11.2665 19.6684 11.312 19.659 11.3678 19.6501C11.7342 19.592 12.3075 19.6002 13.1247 19.7243C14.7588 19.9726 16.8215 20.5906 19.095 21.2991C19.2844 21.3582 19.4752 21.4178 19.6671 21.4778C21.6998 22.1131 23.8571 22.7874 25.735 23.1711C26.7673 23.382 27.8114 23.5266 28.7717 23.5072C29.7032 23.4885 30.7964 23.3122 31.7112 22.651L31.7135 22.6493C32.6286 21.9859 33.1317 21.0004 33.4336 20.1244C33.745 19.221 33.9254 18.188 34.0394 17.1474C34.2446 15.2729 34.2635 13.0492 34.2812 10.9503C34.2831 10.7298 34.2849 10.5107 34.287 10.2935C34.3094 7.92528 34.356 5.78657 34.6254 4.16764C34.7601 3.3584 34.9303 2.81694 35.099 2.49119C35.1259 2.43935 35.1498 2.39818 35.1704 2.36579C35.2001 2.37868 35.2349 2.39512 35.2754 2.41607C35.5979 2.583 36.0492 2.92495 36.6311 3.50521C37.7946 4.66532 39.0886 6.37199 40.5085 8.27702C40.594 8.39168 40.6799 8.50704 40.7662 8.62294C42.0642 10.366 43.4535 12.2316 44.7968 13.6798C45.5164 14.4556 46.2872 15.1837 47.0904 15.7294C47.8743 16.262 48.87 16.7452 50 16.7452C51.1299 16.7452 52.1256 16.262 52.9095 15.7294C53.7127 15.1837 54.4835 14.4556 55.2031 13.6798C56.5464 12.2316 57.9357 10.366 59.2337 8.6229C59.32 8.50701 59.4059 8.39167 59.4914 8.27703C60.9113 6.372 62.2054 4.66533 63.3688 3.50521C63.9508 2.92496 64.4021 2.58301 64.7246 2.41607C64.7666 2.39434 64.8025 2.37745 64.8329 2.36436C64.8542 2.39737 64.8791 2.43983 64.9073 2.49391C65.0763 2.81904 65.2469 3.35977 65.3818 4.16848C65.6518 5.78652 65.698 7.92456 65.7193 10.2926C65.7213 10.5138 65.7231 10.737 65.7249 10.9616C65.7416 13.0566 65.7593 15.2754 65.9629 17.1461C66.0761 18.1867 66.2559 19.2197 66.5667 20.1233C66.8682 20.9996 67.371 21.9856 68.2865 22.6493L68.2888 22.651C69.2036 23.3122 70.2968 23.4885 71.2283 23.5072C72.1886 23.5266 73.2327 23.382 74.265 23.1711C76.1429 22.7874 78.3002 22.1131 80.3329 21.4778C80.5248 21.4178 80.7156 21.3582 80.905 21.2991C83.1785 20.5906 85.2412 19.9726 86.8753 19.7243C87.6925 19.6002 88.2658 19.592 88.6322 19.6501C88.688 19.659 88.7335 19.6684 88.7702 19.6774C88.7673 19.7093 88.7626 19.7473 88.7555 19.7921C88.6984 20.1477 88.5151 20.6805 88.1436 21.4117C87.4011 22.8735 86.1738 24.6275 84.7936 26.5585C84.6912 26.7018 84.5879 26.8461 84.4841 26.9911C83.2379 28.7322 81.9101 30.5874 80.9544 32.2694C80.4344 33.1847 79.9742 34.1338 79.6975 35.0566C79.4284 35.9543 79.2645 37.0506 79.6169 38.1271C79.9687 39.2024 80.7625 39.9771 81.5001 40.5226C82.2643 41.088 83.1931 41.5712 84.15 41.9953C85.8478 42.7478 87.9287 43.4384 89.9025 44.0934C90.1434 44.1734 90.3828 44.2528 90.6197 44.3318C92.8762 45.0839 94.909 45.7928 96.3743 46.5549C97.1068 46.9358 97.5734 47.2685 97.8342 47.5336C97.8947 47.595 97.9356 47.6437 97.9628 47.6802C97.9354 47.7174 97.8939 47.7673 97.8319 47.8305C97.571 48.0964 97.1046 48.43 96.3725 48.8117C94.908 49.5752 92.8756 50.285 90.6197 51.037C90.3744 51.1187 90.1265 51.201 89.8769 51.2838C87.9113 51.9359 85.8415 52.6226 84.1518 53.3695C83.1953 53.7924 82.2668 54.2739 81.5028 54.837C80.766 55.3801 79.9703 56.1528 79.6175 57.2273L79.6169 57.2291C79.2645 58.3057 79.4284 59.402 79.6975 60.2996C79.9742 61.2224 80.4344 62.1715 80.9544 63.0868C81.9101 64.7688 83.2379 66.624 84.4841 68.3651C84.5879 68.5101 84.6912 68.6544 84.7936 68.7978C86.1738 70.7288 87.4011 72.4828 88.1436 73.9446C88.5151 74.6758 88.6984 75.2085 88.7555 75.5641C88.7626 75.6089 88.7673 75.6469 88.7702 75.6789C88.7335 75.6879 88.688 75.6973 88.6322 75.7061C88.2658 75.7643 87.6925 75.7561 86.8753 75.6319C85.2412 75.3836 83.1785 74.7657 80.905 74.0571C80.7156 73.9981 80.5247 73.9384 80.3328 73.8784C78.3001 73.2431 76.1428 72.5688 74.265 72.1851C73.2327 71.9742 72.1886 71.8297 71.2283 71.849C70.2968 71.8677 69.2036 72.044 68.2888 72.7052L68.2865 72.7069C67.3714 73.3703 66.8683 74.3558 66.5664 75.2318C66.255 76.1353 66.0746 77.1682 65.9606 78.2088C65.7554 80.0833 65.7365 82.3069 65.7188 84.4057C65.7169 84.6263 65.7151 84.8455 65.713 85.0628C65.6906 87.4309 65.644 89.5697 65.3746 91.1886C65.2399 91.9978 65.0697 92.5393 64.901 92.865C64.8742 92.9169 64.8502 92.958 64.8296 92.9904C64.7999 92.9776 64.7651 92.9611 64.7246 92.9402C64.4021 92.7732 63.9508 92.4313 63.3688 91.851C62.2054 90.6909 60.9113 88.9842 59.4914 87.0792C59.4059 86.9645 59.32 86.8492 59.2337 86.7333C57.9357 84.9902 56.5464 83.1246 55.2031 81.6764C54.4835 80.9006 53.7127 80.1725 52.9095 79.6268C52.1256 79.0942 51.1299 78.611 50 78.611C48.87 78.611 47.8743 79.0942 47.0904 79.6268C46.2872 80.1725 45.5164 80.9006 44.7968 81.6764C43.4535 83.1247 42.0642 84.9903 40.7662 86.7334C40.6799 86.8492 40.594 86.9646 40.5085 87.0792C39.0886 88.9842 37.7946 90.6909 36.6311 91.851C36.0492 92.4313 35.5979 92.7732 35.2754 92.9402C35.2334 92.9619 35.1975 92.9788 35.1671 92.9919C35.1458 92.9589 35.1209 92.9164 35.0927 92.8623C34.9237 92.5372 34.7531 91.9965 34.6182 91.1877C34.3482 89.5697 34.3021 87.4317 34.2807 85.0637C34.2787 84.8425 34.2769 84.6192 34.2751 84.3946C34.2584 82.2996 34.2407 80.0808 34.0372 78.2102C33.9239 77.1695 33.7442 76.1365 33.4333 75.2329C33.1318 74.3566 32.629 73.3706 31.7135 72.7069L31.7112 72.7052C30.7964 72.044 29.7032 71.8677 28.7717 71.849C27.8114 71.8297 26.7673 71.9742 25.735 72.1851C23.8571 72.5688 21.6999 73.2431 19.6672 73.8784C19.4752 73.9384 19.2844 73.9981 19.095 74.0571C16.8215 74.7657 14.7588 75.3836 13.1247 75.6319C12.3075 75.7561 11.7342 75.7643 11.3678 75.7061C11.312 75.6973 11.2665 75.6879 11.2298 75.6789C11.2327 75.6469 11.2374 75.6089 11.2445 75.5641C11.3016 75.2085 11.4849 74.6758 11.8564 73.9445C12.5989 72.4827 13.8262 70.7288 15.2063 68.7978C15.3087 68.6545 15.412 68.5102 15.5158 68.3652C16.762 66.6241 18.0898 64.7689 19.0455 63.0868C19.5655 62.1715 20.0257 61.2224 20.3024 60.2996C20.5715 59.402 20.7354 58.3057 20.383 57.2291L20.3824 57.2273C20.0296 56.1528 19.2339 55.3802 18.4971 54.8371C17.7331 54.2739 16.8046 53.7924 15.8481 53.3695C14.1585 52.6226 12.0887 51.9359 10.1231 51.2838C9.87346 51.201 9.62554 51.1187 9.3803 51.037C7.12437 50.285 5.09203 49.5752 3.62747 48.8117C2.89539 48.43 2.42896 48.0965 2.16807 47.8305C2.10492 47.7661 2.06299 47.7155 2.03557 47.6781C2.06299 47.6407 2.10492 47.5901 2.16807 47.5257C2.42895 47.2597 2.89538 46.9262 3.62746 46.5445C5.09202 45.781 7.12437 45.0712 9.38029 44.3192C9.62551 44.2375 9.8734 44.1552 10.123 44.0724C12.0886 43.4203 14.1584 42.7336 15.8481 41.9867C16.8046 41.5638 17.7331 41.0823 18.4971 40.5192C19.2339 39.9761 20.0296 39.2034 20.3824 38.1289ZM11.23 19.5353C11.2303 19.5355 11.2298 19.5393 11.2279 19.5461C11.2289 19.5385 11.2298 19.5351 11.23 19.5353ZM11.1069 19.718C11.1011 19.722 11.0977 19.7238 11.0974 19.7236C11.0972 19.7234 11.1001 19.7214 11.1069 19.718ZM35.2552 2.25775C35.2552 2.25809 35.2523 2.26097 35.2462 2.26536C35.252 2.25961 35.2551 2.25741 35.2552 2.25775ZM35.0443 2.32193C35.0376 2.32153 35.0341 2.32082 35.034 2.32057C35.0339 2.32032 35.0372 2.32052 35.0443 2.32193ZM64.7592 2.26787C64.7529 2.26345 64.7499 2.26053 64.75 2.26018C64.7501 2.25983 64.7532 2.26204 64.7592 2.26787ZM64.966 2.32057C64.9659 2.32082 64.9624 2.32152 64.9557 2.32192C64.9628 2.32052 64.9661 2.32032 64.966 2.32057ZM88.9026 19.7236C88.9023 19.7237 88.8987 19.722 88.8928 19.7178C88.8999 19.7214 88.9029 19.7235 88.9026 19.7236ZM88.8256 19.6485C88.8255 19.6483 88.8254 19.6482 88.8253 19.6481L88.8262 19.6493L88.8256 19.6485ZM88.7721 19.546C88.7702 19.5392 88.7697 19.5355 88.77 19.5353C88.7702 19.5351 88.7711 19.5385 88.7721 19.546ZM64.966 93.0356C64.9662 93.0359 64.9628 93.0357 64.9557 93.0343C64.9623 93.0347 64.9658 93.0354 64.966 93.0356ZM35.25 93.096C35.2499 93.0964 35.2467 93.0942 35.2408 93.0884C35.2471 93.0928 35.2501 93.0957 35.25 93.096ZM98.0134 47.7633C98.013 47.7632 98.0112 47.7595 98.009 47.7521C98.0127 47.7598 98.0138 47.7635 98.0134 47.7633ZM98.0082 47.6087C98.0103 47.6012 98.0121 47.5974 98.0125 47.5973C98.0129 47.5972 98.0119 47.6009 98.0082 47.6087ZM88.77 75.8209C88.7697 75.8208 88.7702 75.817 88.7721 75.8102C88.7711 75.8176 88.7702 75.821 88.77 75.8209ZM88.8931 75.6382C88.8989 75.6342 88.9023 75.6325 88.9026 75.6326C88.9028 75.6328 88.8999 75.6348 88.8931 75.6382ZM64.7448 93.0985C64.7447 93.0982 64.7476 93.0953 64.7538 93.0909C64.748 93.0966 64.745 93.0988 64.7448 93.0985ZM35.034 93.0357C35.0341 93.0354 35.0376 93.0347 35.0443 93.0343C35.0372 93.0357 35.0339 93.0359 35.034 93.0357ZM11.2279 75.8102C11.2298 75.817 11.2303 75.8207 11.23 75.8209C11.2298 75.8211 11.2289 75.8178 11.2279 75.8102ZM11.0974 75.6326C11.0977 75.6325 11.1011 75.6342 11.1069 75.6382C11.1001 75.6348 11.0972 75.6328 11.0974 75.6326ZM1.98748 47.5973C1.98786 47.5973 1.98969 47.6012 1.99184 47.6087C1.98818 47.601 1.9871 47.5973 1.98748 47.5973ZM1.99184 47.7475C1.98969 47.755 1.98786 47.7589 1.98748 47.7589C1.9871 47.7589 1.98817 47.7552 1.99184 47.7475Z" stroke="#FF7A2C" stroke-width="4"/>
<path id="Vector_2" d="M50 58.0381V37.3398" stroke="#FF7A2C" stroke-width="4.9945" stroke-miterlimit="10"/>
<path id="Vector_3" d="M39.5938 47.6777H60.42" stroke="#FF7A2C" stroke-width="4.9945" stroke-miterlimit="10"/>
</g>
</svg>
