<svg width="240" height="144" viewBox="0 0 240 144" fill="none" xmlns="http://www.w3.org/2000/svg">
<circle cx="232" cy="136" r="8" transform="rotate(-90 232 136)" fill="#FF7A2C" fill-opacity="0.4"/>
<circle cx="232" cy="104" r="8" transform="rotate(-90 232 104)" fill="#FF7A2C" fill-opacity="0.4"/>
<circle cx="232" cy="72" r="8" transform="rotate(-90 232 72)" fill="#FF7A2C" fill-opacity="0.4"/>
<circle cx="232" cy="40" r="8" transform="rotate(-90 232 40)" fill="#FF7A2C" fill-opacity="0.4"/>
<circle cx="232" cy="8" r="8" transform="rotate(-90 232 8)" fill="#FF7A2C" fill-opacity="0.4"/>
<circle cx="8" cy="8" r="8" fill="#FF7A2C" fill-opacity="0.4"/>
<circle cx="40" cy="8" r="8" fill="#FF7A2C" fill-opacity="0.4"/>
<circle cx="72" cy="8" r="8" fill="#FF7A2C" fill-opacity="0.4"/>
<circle cx="104" cy="8" r="8" fill="#FF7A2C" fill-opacity="0.4"/>
<circle cx="136" cy="8" r="8" fill="#FF7A2C" fill-opacity="0.4"/>
<circle cx="168" cy="8" r="8" fill="#FF7A2C" fill-opacity="0.4"/>
<circle cx="200" cy="8" r="8" fill="#FF7A2C" fill-opacity="0.4"/>
<circle cx="8" cy="40" r="8" fill="#FF7A2C" fill-opacity="0.4"/>
<circle cx="40" cy="40" r="8" fill="#FF7A2C" fill-opacity="0.4"/>
<circle cx="72" cy="40" r="8" fill="#FF7A2C" fill-opacity="0.4"/>
<circle cx="104" cy="40" r="8" fill="#FF7A2C" fill-opacity="0.4"/>
<circle cx="136" cy="40" r="8" fill="#FF7A2C" fill-opacity="0.4"/>
<circle cx="168" cy="40" r="8" fill="#FF7A2C" fill-opacity="0.4"/>
<circle cx="200" cy="40" r="8" fill="#FF7A2C" fill-opacity="0.4"/>
<circle cx="8" cy="72" r="8" fill="#FF7A2C" fill-opacity="0.4"/>
<circle cx="40" cy="72" r="8" fill="#FF7A2C" fill-opacity="0.4"/>
<circle cx="72" cy="72" r="8" fill="#FF7A2C" fill-opacity="0.4"/>
<circle cx="104" cy="72" r="8" fill="#FF7A2C" fill-opacity="0.4"/>
<circle cx="136" cy="72" r="8" fill="#FF7A2C" fill-opacity="0.4"/>
<circle cx="168" cy="72" r="8" fill="#FF7A2C" fill-opacity="0.4"/>
<circle cx="200" cy="72" r="8" fill="#FF7A2C" fill-opacity="0.4"/>
<circle cx="8" cy="104" r="8" fill="#FF7A2C" fill-opacity="0.4"/>
<circle cx="40" cy="104" r="8" fill="#FF7A2C" fill-opacity="0.4"/>
<circle cx="72" cy="104" r="8" fill="#FF7A2C" fill-opacity="0.4"/>
<circle cx="104" cy="104" r="8" fill="#FF7A2C" fill-opacity="0.4"/>
<circle cx="136" cy="104" r="8" fill="#FF7A2C" fill-opacity="0.4"/>
<circle cx="168" cy="104" r="8" fill="#FF7A2C" fill-opacity="0.4"/>
<circle cx="200" cy="104" r="8" fill="#FF7A2C" fill-opacity="0.4"/>
<circle cx="8" cy="136" r="8" fill="#FF7A2C" fill-opacity="0.4"/>
<circle cx="40" cy="136" r="8" fill="#FF7A2C" fill-opacity="0.4"/>
<circle cx="72" cy="136" r="8" fill="#FF7A2C" fill-opacity="0.4"/>
<circle cx="104" cy="136" r="8" fill="#FF7A2C" fill-opacity="0.4"/>
<circle cx="136" cy="136" r="8" fill="#FF7A2C" fill-opacity="0.4"/>
<circle cx="168" cy="136" r="8" fill="#FF7A2C" fill-opacity="0.4"/>
<circle cx="200" cy="136" r="8" fill="#FF7A2C" fill-opacity="0.4"/>
</svg>
