<svg width="24" height="24" fill="none" xmlns="http://www.w3.org/2000/svg"><path fill-rule="evenodd" clip-rule="evenodd" d="M12 6c-3.233 0-6.04 2.31-7.795 5.796l-.068.136a1.853 1.853 0 0 0-.032.068l.032.068.068.136C5.96 15.69 8.767 18 12 18c3.233 0 6.04-2.31 7.795-5.796a14.863 14.863 0 0 0 .1-.204 14.863 14.863 0 0 0-.1-.204C18.041 8.31 15.233 6 12 6ZM2.42 10.896C4.359 7.044 7.719 4 12 4c4.28 0 7.642 3.044 9.582 6.896l.021.043c.092.18.21.412.262.7a2.1 2.1 0 0 1 0 .723c-.052.287-.17.52-.262.7l-.021.042C19.642 16.956 16.28 20 12 20c-4.28 0-7.642-3.044-9.581-6.896l-.022-.043c-.091-.18-.21-.412-.262-.7a2.098 2.098 0 0 1 0-.723c.053-.287.17-.519.262-.7l.022-.042ZM12 10a2 2 0 1 0 0 4 2 2 0 0 0 0-4Zm-4 2a4 4 0 1 1 8 0 4 4 0 0 1-8 0Z" fill="#0A0A0A"/></svg>