<svg width="24" height="24" viewBox="0 0 24 24" fill="none" xmlns="http://www.w3.org/2000/svg">
<g clip-path="url(#clip0_1807_7308)">
<path d="M0.881266 14.0909L4.75127 18.0009C4.84423 18.0946 4.95483 18.169 5.07669 18.2198C5.19855 18.2705 5.32925 18.2967 5.46127 18.2967C5.59328 18.2967 5.72398 18.2705 5.84584 18.2198C5.9677 18.169 6.0783 18.0946 6.17127 18.0009C6.265 17.9079 6.33939 17.7973 6.39016 17.6755C6.44093 17.5536 6.46706 17.4229 6.46706 17.2909C6.46706 17.1589 6.44093 17.0282 6.39016 16.9063C6.33939 16.7844 6.265 16.6738 6.17127 16.5809L2.61127 13.0009H23.0013C23.2665 13.0009 23.5208 12.8955 23.7084 12.708C23.8959 12.5204 24.0013 12.2661 24.0013 12.0009C24.0013 11.7357 23.8959 11.4813 23.7084 11.2938C23.5208 11.1062 23.2665 11.0009 23.0013 11.0009H2.55127L6.17127 7.38088C6.34856 7.1949 6.44746 6.94782 6.44746 6.69088C6.44746 6.43394 6.34856 6.18685 6.17127 6.00088C6.0783 5.90715 5.9677 5.83275 5.84584 5.78198C5.72398 5.73122 5.59328 5.70508 5.46127 5.70508C5.32925 5.70508 5.19855 5.73122 5.07669 5.78198C4.95483 5.83275 4.84423 5.90715 4.75127 6.00088L0.881266 9.85088C0.319465 10.4134 0.00390625 11.1759 0.00390625 11.9709C0.00390625 12.7659 0.319465 13.5284 0.881266 14.0909Z" fill="#0B1181"/>
</g>
<defs>
<clipPath id="clip0_1807_7308">
<rect width="24" height="24" fill="white"/>
</clipPath>
</defs>
</svg>
