<svg xmlns="http://www.w3.org/2000/svg" width="340" height="298" fill="none"><g clip-path="url(#a)"><path stroke="#B8C7FF" stroke-width="3" d="M158.616 282v-63.34c0-9.665-7.835-17.5-17.5-17.5H16c-8.008 0-14.5-6.492-14.5-14.5V16C1.5 7.992 7.992 1.5 16 1.5h308c8.008 0 14.5 6.492 14.5 14.5v266c0 8.008-6.492 14.5-14.5 14.5H173.116c-8.008 0-14.5-6.492-14.5-14.5Z"/><path fill="#B8C7FF" d="M68 20H28c-6.627 0-12 5.373-12 12v40c0 6.627 5.373 12 12 12h40c6.627 0 12-5.373 12-12V32c0-6.627-5.373-12-12-12Z"/><path fill="#FEFEFE" d="M30.16 47.213h5.183v22.99h-5.184c-.458 0-.897-.201-1.221-.56a2.027 2.027 0 0 1-.506-1.355v-19.16c0-.507.182-.995.506-1.354.324-.36.763-.561 1.221-.561Zm9.145-2.477 11.057-12.262a.83.83 0 0 1 .55-.28.805.805 0 0 1 .58.19l1.474 1.226c.41.34.719.808.889 1.344.17.535.193 1.114.067 1.664l-1.993 8.679h11.058c.917 0 1.796.404 2.444 1.122.648.719 1.012 1.694 1.012 2.71v4.03c0 .502-.088.998-.26 1.46l-5.347 14.399c-.13.35-.352.65-.636.862a1.61 1.61 0 0 1-.962.324H40.526c-.458 0-.898-.202-1.222-.562a2.026 2.026 0 0 1-.506-1.354V46.09c0-.508.182-.995.507-1.354Z"/><path fill="#B8C7FF" d="M340 190h-89.727c-10.077 0-29.27 6.751-37.788 16.2-11.749 13.032-14.295 25.555-13.283 43.2 1.242 21.675 26.565 48.6 26.565 48.6h35.864s-19.924-30.375-23.909-48.6c-2.017-9.225-.001-20.25 7.97-27 7.97-6.75 46.601-6.75 46.601-6.75H340V190Z"/></g><defs><clipPath id="a"><path fill="#fff" d="M0 0h340v298H0z"/></clipPath></defs></svg>