<svg xmlns="http://www.w3.org/2000/svg" width="340" height="202" fill="none"><g clip-path="url(#a)"><path fill="#B8C7FF" d="M0 16C0 7.163 7.163 0 16 0h308c8.837 0 16 7.163 16 16v170c0 8.837-7.163 16-16 16H16c-8.837 0-16-7.163-16-16V16Z"/><mask id="b" width="90" height="172" x="250" y="15" maskUnits="userSpaceOnUse" style="mask-type:luminance"><path fill="#fff" d="M324 15h-58c-8.837 0-16 7.163-16 16v140c0 8.837 7.163 16 16 16h58c8.837 0 16-7.163 16-16V31c0-8.837-7.163-16-16-16Z"/></mask><g fill="#ECF0FF" mask="url(#b)"><path d="M290 61c0-11.046-8.954-20-20-20s-20 8.954-20 20v80c0 11.046 8.954 20 20 20s20-8.954 20-20V61ZM330 61c0-11.046-8.954-20-20-20s-20 8.954-20 20v80c0 11.046 8.954 20 20 20s20-8.954 20-20V61ZM370 61c0-11.046-8.954-20-20-20s-20 8.954-20 20v80c0 11.046 8.954 20 20 20s20-8.954 20-20V61Z"/></g></g><defs><clipPath id="a"><path fill="#fff" d="M0 0h340v202H0z"/></clipPath></defs></svg>