<svg xmlns="http://www.w3.org/2000/svg" width="341" height="299" fill="none"><g clip-path="url(#a)"><path stroke="#B8C7FF" stroke-width="3" d="M158.616 282v-63.34c0-9.665-7.835-17.5-17.5-17.5H16c-8.008 0-14.5-6.492-14.5-14.5V16C1.5 7.992 7.992 1.5 16 1.5h308c8.008 0 14.5 6.492 14.5 14.5v266c0 8.008-6.492 14.5-14.5 14.5H173.116c-8.008 0-14.5-6.492-14.5-14.5Z"/><path fill="#B8C7FF" d="M68 20.365H28c-6.426 0-11.635 5.21-11.635 11.635v40c0 6.425 5.21 11.634 11.635 11.634h40c6.425 0 11.634-5.209 11.634-11.634V32c0-6.426-5.209-11.635-11.634-11.635Z"/><path stroke="#B8C7FF" stroke-width=".731" d="M68 20.365H28c-6.426 0-11.635 5.21-11.635 11.635v40c0 6.425 5.21 11.634 11.635 11.634h40c6.425 0 11.634-5.209 11.634-11.634V32c0-6.426-5.209-11.635-11.634-11.635Z"/><path fill="#FEFEFE" d="M48.125 33.563c-10.496 0-19.006 8.51-19.006 19.006s8.51 19.006 19.006 19.006 19.005-8.51 19.005-19.006-8.51-19.006-19.005-19.006Zm8.772 21.93h-8.772a1.462 1.462 0 0 1-1.462-1.462V40.873a1.462 1.462 0 0 1 2.924 0V52.57h7.31a1.462 1.462 0 0 1 0 2.924Z"/><path stroke="#B8C7FF" stroke-linecap="round" stroke-width="12.432" d="M166.374 289.5s-3.238-81.5 9.351-81.5c12.59 0 2.863 84 20.582 84s4.167-84 20.954-84c16.786 0 3.695 84 23.279 84s0-84 17.719-84 3.264 84 20.983 84c14.921 0 1.865-84 19.118-84s5.522 84 24.64 84c15.854 0 10.946-84 10.946-84"/><path fill="#FF7A2C" d="M6 226a6 6 0 1 0 0-12 6 6 0 0 0 0 12ZM28 226a6 6 0 1 0 0-12 6 6 0 0 0 0 12ZM50 226a6 6 0 1 0 0-12 6 6 0 0 0 0 12ZM72 226a6 6 0 1 0 0-12 6 6 0 0 0 0 12ZM94 226a6 6 0 1 0 0-12 6 6 0 0 0 0 12ZM116 226a6 6 0 1 0 0-12 6 6 0 0 0 0 12ZM138 226a6 6 0 1 0 0-12 6 6 0 0 0 0 12ZM6 250a6 6 0 1 0 0-12 6 6 0 0 0 0 12ZM28 250a6 6 0 1 0 0-12 6 6 0 0 0 0 12ZM50 250a6 6 0 1 0 0-12 6 6 0 0 0 0 12ZM72 250a6 6 0 1 0 0-12 6 6 0 0 0 0 12ZM94 250a6 6 0 1 0 0-12 6 6 0 0 0 0 12ZM116 250a6 6 0 1 0 0-12 6 6 0 0 0 0 12ZM138 250a6 6 0 1 0 0-12 6 6 0 0 0 0 12ZM6 274a6 6 0 1 0 0-12 6 6 0 0 0 0 12ZM28 274a6 6 0 1 0 0-12 6 6 0 0 0 0 12ZM50 274a6 6 0 1 0 0-12 6 6 0 0 0 0 12ZM72 274a6 6 0 1 0 0-12 6 6 0 0 0 0 12ZM94 274a6 6 0 1 0 0-12 6 6 0 0 0 0 12ZM116 274a6 6 0 1 0 0-12 6 6 0 0 0 0 12ZM138 274a6 6 0 1 0 0-12 6 6 0 0 0 0 12ZM6 298a6 6 0 1 0 0-12 6 6 0 0 0 0 12ZM28 298a6 6 0 1 0 0-12 6 6 0 0 0 0 12ZM50 298a6 6 0 1 0 0-12 6 6 0 0 0 0 12ZM72 298a6 6 0 1 0 0-12 6 6 0 0 0 0 12ZM94 298a6 6 0 1 0 0-12 6 6 0 0 0 0 12ZM116 298a6 6 0 1 0 0-12 6 6 0 0 0 0 12ZM138 298a6 6 0 1 0 0-12 6 6 0 0 0 0 12Z"/></g><defs><clipPath id="a"><path fill="#fff" d="M0 0h341v299H0z"/></clipPath></defs></svg>