<svg xmlns="http://www.w3.org/2000/svg" width="627" height="416" fill="none"><g clip-path="url(#a)"><path stroke="#B8C7FF" stroke-width="4" d="M250.905 392V286.369c0-14.359-11.641-26-26-26H24c-12.15 0-22-9.849-22-22V24C2 11.85 11.85 2 24 2h579c12.15 0 22 9.85 22 22v368c0 12.15-9.85 22-22 22H272.905c-12.151 0-22-9.85-22-22Z"/><path fill="#B8C7FF" d="M143.999 40H56c-8.837 0-16 7.163-16 16v88c0 8.837 7.163 16 16 16h87.999c8.837 0 16-7.163 16-16V56c0-8.837-7.163-16-16-16Z"/><path fill="#FEFEFE" d="M70.91 93.807h8.726v34.909H70.91A2.907 2.907 0 0 1 68 125.807v-29.09a2.909 2.909 0 0 1 2.91-2.91Zm15.397-3.761 18.618-18.619a1.456 1.456 0 0 1 1.903-.136l2.481 1.862a4.363 4.363 0 0 1 1.609 4.567l-3.354 13.178h18.618A5.818 5.818 0 0 1 132 96.716v6.121a5.817 5.817 0 0 1-.436 2.217l-9.004 21.861a2.914 2.914 0 0 1-2.691 1.801H88.364a2.907 2.907 0 0 1-2.91-2.909V92.102c0-.771.307-1.51.853-2.056Z"/><path fill="#B8C7FF" d="M625.997 254H485.999c-15.722.001-45.668 10.126-58.959 24.3-18.331 19.549-22.304 38.332-20.725 64.8 1.939 32.513 41.449 72.9 41.449 72.9h55.957s-31.086-45.562-37.304-72.9c-3.148-13.837-.001-30.375 12.434-40.5 12.436-10.125 79.147-10.125 79.147-10.125h67.999V254Z"/></g><defs><clipPath id="a"><path fill="#fff" d="M0 0h627v416H0z"/></clipPath></defs></svg>