<svg xmlns="http://www.w3.org/2000/svg" width="288" height="120" fill="none"><g clip-path="url(#a)"><path fill="#B8C7FF" d="M0 12C0 5.373 5.373 0 12 0h264c6.627 0 12 5.373 12 12v96c0 6.627-5.373 12-12 12H12c-6.627 0-12-5.373-12-12V12Z"/><mask id="b" width="84" height="84" x="204" y="18" maskUnits="userSpaceOnUse" style="mask-type:luminance"><path fill="#fff" d="M275.886 18.496h-59.855c-6.627 0-12 5.373-12 12v59.008c0 6.627 5.373 12 12 12h59.855c6.627 0 12-5.373 12-12V30.496c0-6.627-5.373-12-12-12Z"/></mask><g fill="#ECF0FF" mask="url(#b)"><path d="M235.61 34.286c0-8.72-7.069-15.79-15.789-15.79-8.721 0-15.79 7.07-15.79 15.79v51.428c0 8.72 7.069 15.79 15.79 15.79 8.72 0 15.789-7.07 15.789-15.79V34.286Z"/><path d="M267.188 34.286c0-8.72-7.069-15.79-15.789-15.79-8.72 0-15.79 7.07-15.79 15.79v51.428c0 8.72 7.07 15.79 15.79 15.79 8.72 0 15.789-7.07 15.789-15.79V34.286ZM298.768 34.286c0-8.72-7.069-15.79-15.789-15.79-8.72 0-15.79 7.07-15.79 15.79v51.428c0 8.72 7.07 15.79 15.79 15.79 8.72 0 15.789-7.07 15.789-15.79V34.286Z"/></g></g><defs><clipPath id="a"><path fill="#fff" d="M0 0h288v120H0z"/></clipPath></defs></svg>