<svg xmlns="http://www.w3.org/2000/svg" width="288" height="297" fill="none"><g clip-path="url(#a)"><path stroke="#B8C7FF" stroke-width="2" d="M132.045 285v-76.036c0-7.179-5.82-13-13-13H12c-6.075 0-11-4.924-11-11V12C1 5.925 5.925 1 12 1h264c6.075 0 11 4.925 11 11v273c0 6.075-4.925 11-11 11H143.045c-6.075 0-11-4.925-11-11Z"/><path fill="#B8C7FF" d="M64 16H24a8 8 0 0 0-8 8v40a8 8 0 0 0 8 8h40a8 8 0 0 0 8-8V24a8 8 0 0 0-8-8Z"/><path fill="#FEFEFE" d="M29.454 40.904h4.364v17.454h-4.363A1.455 1.455 0 0 1 28 56.904V42.358a1.454 1.454 0 0 1 1.454-1.454Zm7.7-1.881 9.308-9.31a.727.727 0 0 1 .952-.068l1.24.931a2.182 2.182 0 0 1 .805 2.284l-1.677 6.589h9.309A2.909 2.909 0 0 1 60 42.359v3.06c0 .38-.074.756-.218 1.108l-4.502 10.93a1.454 1.454 0 0 1-1.346.901H38.182a1.454 1.454 0 0 1-1.455-1.454V40.05c0-.386.154-.755.427-1.028Z"/><path fill="#B8C7FF" d="M285.576 216h-69.73c-7.831 0-22.747 5.063-29.367 12.15-9.13 9.774-11.108 19.166-10.322 32.4.965 16.256 20.645 36.45 20.645 36.45h27.871s-15.484-22.781-18.581-36.45c-1.567-6.918 0-15.187 6.194-20.25 6.194-5.062 39.421-5.062 39.421-5.062h33.869V216Z"/><path fill="#FF6003" d="M4.385 243.32c2.421 0 4.384-1.989 4.384-4.443 0-2.454-1.963-4.443-4.384-4.443-2.422 0-4.385 1.989-4.385 4.443 0 2.454 1.963 4.443 4.385 4.443ZM21.922 243.32c2.421 0 4.384-1.989 4.384-4.443 0-2.454-1.963-4.443-4.384-4.443-2.422 0-4.385 1.989-4.385 4.443 0 2.454 1.963 4.443 4.385 4.443ZM39.459 243.32c2.421 0 4.384-1.989 4.384-4.443 0-2.454-1.963-4.443-4.384-4.443-2.422 0-4.385 1.989-4.385 4.443 0 2.454 1.963 4.443 4.385 4.443ZM57 243.32c2.421 0 4.384-1.989 4.384-4.443 0-2.454-1.963-4.443-4.384-4.443-2.422 0-4.385 1.989-4.385 4.443 0 2.454 1.963 4.443 4.385 4.443ZM74.537 243.32c2.421 0 4.384-1.989 4.384-4.443 0-2.454-1.963-4.443-4.384-4.443-2.422 0-4.385 1.989-4.385 4.443 0 2.454 1.963 4.443 4.385 4.443ZM92.076 243.32c2.422 0 4.385-1.989 4.385-4.443 0-2.454-1.963-4.443-4.385-4.443-2.422 0-4.385 1.989-4.385 4.443 0 2.454 1.963 4.443 4.385 4.443ZM109.615 243.32c2.422 0 4.385-1.989 4.385-4.443 0-2.454-1.963-4.443-4.385-4.443-2.422 0-4.385 1.989-4.385 4.443 0 2.454 1.963 4.443 4.385 4.443ZM4.385 224.886c2.421 0 4.384-1.989 4.384-4.443 0-2.454-1.963-4.443-4.384-4.443C1.963 216 0 217.989 0 220.443c0 2.454 1.963 4.443 4.385 4.443ZM21.922 224.886c2.421 0 4.384-1.989 4.384-4.443 0-2.454-1.963-4.443-4.384-4.443-2.422 0-4.385 1.989-4.385 4.443 0 2.454 1.963 4.443 4.385 4.443ZM39.459 224.886c2.421 0 4.384-1.989 4.384-4.443 0-2.454-1.963-4.443-4.384-4.443-2.422 0-4.385 1.989-4.385 4.443 0 2.454 1.963 4.443 4.385 4.443ZM57 224.886c2.421 0 4.384-1.989 4.384-4.443 0-2.454-1.963-4.443-4.384-4.443-2.422 0-4.385 1.989-4.385 4.443 0 2.454 1.963 4.443 4.385 4.443ZM74.537 224.886c2.421 0 4.384-1.989 4.384-4.443 0-2.454-1.963-4.443-4.384-4.443-2.422 0-4.385 1.989-4.385 4.443 0 2.454 1.963 4.443 4.385 4.443ZM92.076 224.886c2.422 0 4.385-1.989 4.385-4.443 0-2.454-1.963-4.443-4.385-4.443-2.422 0-4.385 1.989-4.385 4.443 0 2.454 1.963 4.443 4.385 4.443ZM109.615 224.886c2.422 0 4.385-1.989 4.385-4.443 0-2.454-1.963-4.443-4.385-4.443-2.422 0-4.385 1.989-4.385 4.443 0 2.454 1.963 4.443 4.385 4.443ZM4.385 261.092c2.421 0 4.384-1.99 4.384-4.444 0-2.454-1.963-4.443-4.384-4.443-2.422 0-4.385 1.989-4.385 4.443 0 2.454 1.963 4.444 4.385 4.444ZM21.922 261.092c2.421 0 4.384-1.99 4.384-4.444 0-2.454-1.963-4.443-4.384-4.443-2.422 0-4.385 1.989-4.385 4.443 0 2.454 1.963 4.444 4.385 4.444ZM39.459 261.092c2.421 0 4.384-1.99 4.384-4.444 0-2.454-1.963-4.443-4.384-4.443-2.422 0-4.385 1.989-4.385 4.443 0 2.454 1.963 4.444 4.385 4.444ZM57 261.092c2.421 0 4.384-1.99 4.384-4.444 0-2.454-1.963-4.443-4.384-4.443-2.422 0-4.385 1.989-4.385 4.443 0 2.454 1.963 4.444 4.385 4.444ZM74.537 261.092c2.421 0 4.384-1.99 4.384-4.444 0-2.454-1.963-4.443-4.384-4.443-2.422 0-4.385 1.989-4.385 4.443 0 2.454 1.963 4.444 4.385 4.444ZM92.076 261.092c2.422 0 4.385-1.99 4.385-4.444 0-2.454-1.963-4.443-4.385-4.443-2.422 0-4.385 1.989-4.385 4.443 0 2.454 1.963 4.444 4.385 4.444ZM109.615 261.092c2.422 0 4.385-1.99 4.385-4.444 0-2.454-1.963-4.443-4.385-4.443-2.422 0-4.385 1.989-4.385 4.443 0 2.454 1.963 4.444 4.385 4.444ZM4.385 278.869c2.421 0 4.384-1.989 4.384-4.443 0-2.454-1.963-4.444-4.384-4.444-2.422 0-4.385 1.99-4.385 4.444 0 2.454 1.963 4.443 4.385 4.443ZM21.922 278.869c2.421 0 4.384-1.989 4.384-4.443 0-2.454-1.963-4.444-4.384-4.444-2.422 0-4.385 1.99-4.385 4.444 0 2.454 1.963 4.443 4.385 4.443ZM39.459 278.869c2.421 0 4.384-1.989 4.384-4.443 0-2.454-1.963-4.444-4.384-4.444-2.422 0-4.385 1.99-4.385 4.444 0 2.454 1.963 4.443 4.385 4.443ZM57 278.869c2.421 0 4.384-1.989 4.384-4.443 0-2.454-1.963-4.444-4.384-4.444-2.422 0-4.385 1.99-4.385 4.444 0 2.454 1.963 4.443 4.385 4.443ZM74.537 278.869c2.421 0 4.384-1.989 4.384-4.443 0-2.454-1.963-4.444-4.384-4.444-2.422 0-4.385 1.99-4.385 4.444 0 2.454 1.963 4.443 4.385 4.443ZM92.076 278.869c2.422 0 4.385-1.989 4.385-4.443 0-2.454-1.963-4.444-4.385-4.444-2.422 0-4.385 1.99-4.385 4.444 0 2.454 1.963 4.443 4.385 4.443ZM109.615 278.869c2.422 0 4.385-1.989 4.385-4.443 0-2.454-1.963-4.444-4.385-4.444-2.422 0-4.385 1.99-4.385 4.444 0 2.454 1.963 4.443 4.385 4.443ZM4.385 296.636c2.421 0 4.384-1.989 4.384-4.443 0-2.454-1.963-4.443-4.384-4.443-2.422 0-4.385 1.989-4.385 4.443 0 2.454 1.963 4.443 4.385 4.443ZM21.922 296.636c2.421 0 4.384-1.989 4.384-4.443 0-2.454-1.963-4.443-4.384-4.443-2.422 0-4.385 1.989-4.385 4.443 0 2.454 1.963 4.443 4.385 4.443ZM39.459 296.636c2.421 0 4.384-1.989 4.384-4.443 0-2.454-1.963-4.443-4.384-4.443-2.422 0-4.385 1.989-4.385 4.443 0 2.454 1.963 4.443 4.385 4.443ZM57 296.636c2.421 0 4.384-1.989 4.384-4.443 0-2.454-1.963-4.443-4.384-4.443-2.422 0-4.385 1.989-4.385 4.443 0 2.454 1.963 4.443 4.385 4.443ZM74.537 296.636c2.421 0 4.384-1.989 4.384-4.443 0-2.454-1.963-4.443-4.384-4.443-2.422 0-4.385 1.989-4.385 4.443 0 2.454 1.963 4.443 4.385 4.443ZM92.076 296.636c2.422 0 4.385-1.989 4.385-4.443 0-2.454-1.963-4.443-4.385-4.443-2.422 0-4.385 1.989-4.385 4.443 0 2.454 1.963 4.443 4.385 4.443ZM109.615 296.636c2.422 0 4.385-1.989 4.385-4.443 0-2.454-1.963-4.443-4.385-4.443-2.422 0-4.385 1.989-4.385 4.443 0 2.454 1.963 4.443 4.385 4.443Z"/></g><defs><clipPath id="a"><path fill="#fff" d="M0 0h288v297H0z"/></clipPath></defs></svg>