<svg xmlns="http://www.w3.org/2000/svg" width="288" height="297" fill="none"><g clip-path="url(#a)"><path fill="#ECF0FF" d="M288 285.042c0 6.604-5.354 11.958-11.958 11.958H11.959C5.354 297 0 291.646 0 285.042V11.959C0 5.354 5.354 0 11.959 0h86.698c6.605 0 11.959 5.354 11.959 11.959V71.04c0 6.605 5.354 11.959 11.958 11.959h153.468C282.646 83 288 88.354 288 94.959v190.083Z"/><path fill="#FEFEFE" d="M62 16.97H26c-5.523 0-10 4.478-10 10v36c0 5.523 4.477 10 10 10h36c5.523 0 10-4.477 10-10v-36c0-5.522-4.477-10-10-10Z"/><path fill="#B8C7FF" d="M55.057 32.11h-1.594v-1.594c0-.956-.638-1.594-1.595-1.594s-1.594.638-1.594 1.594v1.595H37.518v-1.595c0-.956-.638-1.594-1.595-1.594-.956 0-1.594.638-1.594 1.594v1.595h-1.594c-2.711 0-4.784 2.073-4.784 4.783v1.595h31.89v-1.595c0-2.71-2.073-4.783-4.784-4.783ZM27.951 56.029c0 2.71 2.073 4.783 4.784 4.783h22.322c2.71 0 4.783-2.073 4.783-4.783v-14.35H27.951v14.35Zm23.917-11.161c.957 0 1.595.637 1.595 1.594 0 .957-.638 1.594-1.595 1.594s-1.594-.637-1.594-1.594c0-.957.637-1.594 1.594-1.594Zm0 6.377c.957 0 1.595.638 1.595 1.595 0 .956-.638 1.594-1.595 1.594s-1.594-.638-1.594-1.594c0-.957.637-1.595 1.594-1.595Zm-7.972-6.377c.956 0 1.594.637 1.594 1.594 0 .957-.638 1.594-1.594 1.594-.957 0-1.595-.637-1.595-1.594 0-.957.638-1.594 1.595-1.594Zm0 6.377c.956 0 1.594.638 1.594 1.595 0 .956-.638 1.594-1.594 1.594-.957 0-1.595-.638-1.595-1.594 0-.957.638-1.595 1.595-1.595Zm-7.973-6.377c.957 0 1.595.637 1.595 1.594 0 .957-.638 1.594-1.595 1.594-.956 0-1.594-.637-1.594-1.594 0-.957.638-1.594 1.594-1.594Zm0 6.377c.957 0 1.595.638 1.595 1.595 0 .956-.638 1.594-1.595 1.594-.956 0-1.594-.638-1.594-1.594 0-.957.638-1.595 1.594-1.595ZM214.354 82s-3.46 43.352 11.252 63.693c15.955 22.06 62.394 29.65 62.394 29.65v-35.46s-22.369-8.682-32.731-19.448C243.667 108.383 235.834 82 235.834 82h-21.48Z"/></g><defs><clipPath id="a"><path fill="#fff" d="M0 0h288v297H0z"/></clipPath></defs></svg>