<svg xmlns="http://www.w3.org/2000/svg" width="340" height="298" fill="none"><g clip-path="url(#a)"><path fill="#ECF0FF" d="M340 282c0 8.837-7.163 16-16 16H16c-8.837 0-16-7.163-16-16V16C0 7.163 7.163 0 16 0h101.502c8.837 0 16 7.163 16 16v63c0 8.837 7.163 16 16 16H324c8.837 0 16 7.163 16 16v171Z"/><path fill="#FEFEFE" d="M68.002 20h-40c-6.627 0-12 5.373-12 12v40c0 6.627 5.373 12 12 12h40c6.627 0 12-5.373 12-12V32c0-6.627-5.373-12-12-12Z"/><path fill="#B8C7FF" d="M60.302 35.8h-1.9v-1.9c0-1.14-.76-1.9-1.9-1.9s-1.9.76-1.9 1.9v1.9h-15.2v-1.9c0-1.14-.76-1.9-1.9-1.9s-1.9.76-1.9 1.9v1.9h-1.9c-3.23 0-5.7 2.47-5.7 5.7v1.9h38v-1.9c0-3.23-2.47-5.7-5.7-5.7Zm-32.3 28.5c0 3.23 2.47 5.7 5.7 5.7h26.6c3.23 0 5.7-2.47 5.7-5.7V47.2h-38v17.1Zm28.5-13.3c1.14 0 1.9.76 1.9 1.9s-.76 1.9-1.9 1.9-1.9-.76-1.9-1.9.76-1.9 1.9-1.9Zm0 7.6c1.14 0 1.9.76 1.9 1.9s-.76 1.9-1.9 1.9-1.9-.76-1.9-1.9.76-1.9 1.9-1.9Zm-9.5-7.6c1.14 0 1.9.76 1.9 1.9s-.76 1.9-1.9 1.9-1.9-.76-1.9-1.9.76-1.9 1.9-1.9Zm0 7.6c1.14 0 1.9.76 1.9 1.9s-.76 1.9-1.9 1.9-1.9-.76-1.9-1.9.76-1.9 1.9-1.9Zm-9.5-7.6c1.14 0 1.9.76 1.9 1.9s-.76 1.9-1.9 1.9-1.9-.76-1.9-1.9.76-1.9 1.9-1.9Zm0 7.6c1.14 0 1.9.76 1.9 1.9s-.76 1.9-1.9 1.9-1.9-.76-1.9-1.9.76-1.9 1.9-1.9ZM239.479 96s-4.676 52.017 15.204 76.424C276.245 198.894 339 208 339 208v-42.547s-30.228-10.417-44.232-23.335C279.091 127.656 268.506 96 268.506 96h-29.027Z"/></g><defs><clipPath id="a"><path fill="#fff" d="M0 0h340v298H0z"/></clipPath></defs></svg>