<svg xmlns="http://www.w3.org/2000/svg" width="627" height="262" fill="none"><g clip-path="url(#a)"><path fill="#B8C7FF" d="M0 24C0 10.745 10.745 0 24 0h579c13.255 0 24 10.745 24 24v214c0 13.255-10.745 24-24 24H24c-13.255 0-24-10.745-24-24V24Z"/><mask id="b" width="183" height="182" x="444" y="40" maskUnits="userSpaceOnUse" style="mask-type:luminance"><path fill="#fff" d="M627 40.383H444.369v181.233H627V40.383Z"/></mask><g fill="#ECF0FF" mask="url(#b)"><path d="M514.369 75.383c0-19.33-15.67-35-35-35s-35 15.67-35 35v114c0 19.33 15.67 35 35 35s35-15.67 35-35v-114ZM584.369 75.383c0-19.33-15.67-35-35-35s-35 15.67-35 35v114c0 19.33 15.67 35 35 35s35-15.67 35-35v-114ZM654.369 75.383c0-19.33-15.67-35-35-35s-35 15.67-35 35v114c0 19.33 15.67 35 35 35s35-15.67 35-35v-114Z"/></g></g><defs><clipPath id="a"><path fill="#fff" d="M0 0h627v262H0z"/></clipPath></defs></svg>