<svg xmlns="http://www.w3.org/2000/svg" width="627" height="416" fill="none"><g clip-path="url(#a)"><path stroke="#B8C7FF" stroke-width="4" d="M24 2h579c12.15 0 22 9.85 22 22v368c0 12.15-9.85 22-22 22H272c-12.15 0-22-9.85-22-22V286c0-14.359-11.641-26-26-26H24c-12.15 0-22-9.85-22-22V24C2 11.85 11.85 2 24 2Z"/><path fill="#B8C7FF" d="M144 40.5H56c-8.56 0-15.5 6.94-15.5 15.5v88c0 8.56 6.94 15.5 15.5 15.5h88c8.56 0 15.5-6.94 15.5-15.5V56c0-8.56-6.94-15.5-15.5-15.5Z"/><path stroke="#B8C7FF" d="M144 40.5H56c-8.56 0-15.5 6.94-15.5 15.5v88c0 8.56 6.94 15.5 15.5 15.5h88c8.56 0 15.5-6.94 15.5-15.5V56c0-8.56-6.94-15.5-15.5-15.5Z"/><path fill="#FEFEFE" d="M100 68c-17.672 0-32 14.328-32 32s14.328 32 32 32 32-14.328 32-32-14.328-32-32-32Zm14.769 36.923H100a2.46 2.46 0 0 1-2.462-2.461V80.308a2.462 2.462 0 0 1 4.924 0V100h12.307a2.461 2.461 0 1 1 0 4.923Z"/><path stroke="#B8C7FF" stroke-linecap="round" stroke-width="24" d="M263.815 401s-6.824-151 19.01-151c25.833 0 12.438 151 48.795 151 36.358 0 9.568-151 44.012-151s0 151 40.185 151 0-151 36.358-151c36.357 0 6.697 151 43.055 151 30.617 0 3.827-151 39.228-151s4.784 151 44.011 151C611 401 611 250 611 250"/><path fill="#FF6003" d="M7.5 296a7.5 7.5 0 1 0 0-15 7.5 7.5 0 0 0 0 15ZM37.5 296a7.5 7.5 0 1 0 0-15 7.5 7.5 0 0 0 0 15ZM67.5 296a7.5 7.5 0 1 0 0-15 7.5 7.5 0 0 0 0 15ZM97.5 296a7.5 7.5 0 1 0 0-15 7.5 7.5 0 0 0 0 15ZM127.5 296a7.5 7.5 0 1 0 0-15 7.5 7.5 0 0 0 0 15ZM157.5 296a7.5 7.5 0 1 0 0-15 7.5 7.5 0 0 0 0 15ZM187.5 296a7.5 7.5 0 1 0 0-15 7.5 7.5 0 0 0 0 15ZM7.5 326a7.5 7.5 0 1 0 0-15 7.5 7.5 0 0 0 0 15ZM37.5 326a7.5 7.5 0 1 0 0-15 7.5 7.5 0 0 0 0 15ZM67.5 326a7.5 7.5 0 1 0 0-15 7.5 7.5 0 0 0 0 15ZM97.5 326a7.5 7.5 0 1 0 0-15 7.5 7.5 0 0 0 0 15ZM127.5 326a7.5 7.5 0 1 0 0-15 7.5 7.5 0 0 0 0 15ZM157.5 326a7.5 7.5 0 1 0 0-15 7.5 7.5 0 0 0 0 15ZM187.5 326a7.5 7.5 0 1 0 0-15 7.5 7.5 0 0 0 0 15ZM7.5 356a7.5 7.5 0 1 0 0-15 7.5 7.5 0 0 0 0 15ZM37.5 356a7.5 7.5 0 1 0 0-15 7.5 7.5 0 0 0 0 15ZM67.5 356a7.5 7.5 0 1 0 0-15 7.5 7.5 0 0 0 0 15ZM97.5 356a7.5 7.5 0 1 0 0-15 7.5 7.5 0 0 0 0 15ZM127.5 356a7.5 7.5 0 1 0 0-15 7.5 7.5 0 0 0 0 15ZM157.5 356a7.5 7.5 0 1 0 0-15 7.5 7.5 0 0 0 0 15ZM187.5 356a7.5 7.5 0 1 0 0-15 7.5 7.5 0 0 0 0 15ZM7.5 386a7.5 7.5 0 1 0 0-15 7.5 7.5 0 0 0 0 15ZM37.5 386a7.5 7.5 0 1 0 0-15 7.5 7.5 0 0 0 0 15ZM67.5 386a7.5 7.5 0 1 0 0-15 7.5 7.5 0 0 0 0 15ZM97.5 386a7.5 7.5 0 1 0 0-15 7.5 7.5 0 0 0 0 15ZM127.5 386a7.5 7.5 0 1 0 0-15 7.5 7.5 0 0 0 0 15ZM157.5 386a7.5 7.5 0 1 0 0-15 7.5 7.5 0 0 0 0 15ZM187.5 386a7.5 7.5 0 1 0 0-15 7.5 7.5 0 0 0 0 15ZM7.5 416a7.5 7.5 0 1 0 0-15 7.5 7.5 0 0 0 0 15ZM37.5 416a7.5 7.5 0 1 0 0-15 7.5 7.5 0 0 0 0 15ZM67.5 416a7.5 7.5 0 1 0 0-15 7.5 7.5 0 0 0 0 15ZM97.5 416a7.5 7.5 0 1 0 0-15 7.5 7.5 0 0 0 0 15ZM127.5 416a7.5 7.5 0 1 0 0-15 7.5 7.5 0 0 0 0 15ZM157.5 416a7.5 7.5 0 1 0 0-15 7.5 7.5 0 0 0 0 15ZM187.5 416a7.5 7.5 0 1 0 0-15 7.5 7.5 0 0 0 0 15ZM217.5 296a7.5 7.5 0 1 0 0-15 7.5 7.5 0 0 0 0 15ZM217.5 326a7.5 7.5 0 1 0 0-15 7.5 7.5 0 0 0 0 15ZM217.5 356a7.5 7.5 0 1 0 0-15 7.5 7.5 0 0 0 0 15ZM217.5 386a7.5 7.5 0 1 0 0-15 7.5 7.5 0 0 0 0 15ZM217.5 416a7.5 7.5 0 1 0 0-15 7.5 7.5 0 0 0 0 15Z"/></g><defs><clipPath id="a"><path fill="#fff" d="M0 0h627v416H0z"/></clipPath></defs></svg>