<svg width="64" height="55" viewBox="0 0 64 55" fill="none" xmlns="http://www.w3.org/2000/svg">
<path id="Vector" d="M31.3042 1.67377C30.9639 2.3503 30.567 3.23825 30.3401 3.70337C30.0566 4.37991 27.8449 20.1939 27.7882 21.843C27.7882 22.4772 26.1435 21.2087 17.9205 14.3165C8.22302 6.11353 7.37237 5.43699 6.97539 5.73298C5.89789 6.57864 8.16631 9.87675 15.5954 18.2066L23.8184 27.3821L22.2305 27.6358C21.3799 27.8049 16.6162 28.27 11.6257 28.6929C1.75803 29.4963 0 29.7922 0 30.7225C0 31.695 1.36105 31.8218 11.7958 31.8218H21.8335L15.8222 36.3462C7.82605 42.435 6.57842 43.6189 7.42908 44.3377C8.33645 45.1834 9.81092 44.5069 18.998 38.8409C23.3647 36.177 27.221 33.9783 27.5613 33.936C27.9583 33.936 28.3553 35.2468 28.5821 37.1495C29.1492 41.7584 31.6445 52.879 32.3817 53.8515C33.1757 54.9931 34.8203 54.6972 35.0471 53.3864C35.1605 52.7944 35.5575 52.0756 35.8978 51.7373C36.3514 51.3145 36.5783 48.862 36.5216 44.2109L36.4649 37.2764L39.6407 39.5597C41.3987 40.8282 44.8013 43.1115 47.2399 44.676C51.6633 47.509 53.7049 48.0587 53.478 46.4096C53.081 43.1961 51.1529 40.9551 43.5537 34.7394C39.9809 31.7796 39.3004 31.0185 40.0943 30.807C40.6047 30.6379 45.8788 30.0037 51.8334 29.4117C62.6651 28.3123 65.047 27.7203 63.6292 26.6633C63.1188 26.2827 59.3759 26.0713 50.5858 25.9022L38.2796 25.6907L41.3987 23.1537C43.1 21.7584 46.7295 18.8831 49.4516 16.7689C52.2304 14.6548 54.4421 12.6675 54.4421 12.4138C54.4421 11.3144 52.5706 11.4835 49.7351 12.8789C48.0905 13.6823 44.1208 16.0078 40.8316 18.0374L34.877 21.6738L34.48 20.363C34.3099 19.6019 33.9696 15.2045 33.7428 10.511C33.5159 5.81754 33.2324 1.67377 33.1189 1.25093C32.6653 0.193851 31.9847 0.362984 31.3042 1.67377Z" fill="#FF6003"/>
</svg>
