<svg width="100" height="95" viewBox="0 0 100 95" fill="none" xmlns="http://www.w3.org/2000/svg">
<g id="Property 1=big" clip-path="url(#clip0_3948_28614)">
<path id="Vector" d="M88.7615 75.6798C88.7662 75.6629 88.7797 75.6274 88.8124 75.5822L88.8131 75.5812L88.7615 75.6798ZM88.7615 75.6798C88.7605 75.6873 88.7593 75.6906 88.7593 75.6906C88.7593 75.6906 88.7595 75.6868 88.7615 75.6798ZM11.1187 75.5117C11.1318 75.5208 11.1568 75.5418 11.185 75.5799L11.1859 75.5811L11.1187 75.5117ZM11.1187 75.5117C11.1118 75.5083 11.1092 75.506 11.1092 75.506C11.1092 75.506 11.1128 75.5076 11.1187 75.5117ZM20.3902 37.9319L20.3908 37.93C20.742 36.8549 20.5788 35.7597 20.3101 34.8616C20.0338 33.9383 19.574 32.9883 19.0543 32.0718C18.0991 30.3874 16.7717 28.5294 15.5258 26.7853C15.422 26.6402 15.3189 26.4957 15.2165 26.3522C13.8367 24.4182 12.6095 22.661 11.8669 21.1962C11.4954 20.4636 11.3115 19.9288 11.2542 19.571C11.2465 19.5227 11.2416 19.4821 11.2388 19.4485C11.2756 19.4393 11.3216 19.4298 11.3782 19.4207C11.7437 19.3626 12.316 19.3708 13.1328 19.4951C14.7661 19.7437 16.8278 20.3625 19.1009 21.0723C19.2902 21.1314 19.481 21.1911 19.6729 21.2513C21.705 21.8876 23.862 22.563 25.7397 22.9474C26.7718 23.1587 27.8162 23.3036 28.7768 23.2842C29.709 23.2654 30.8028 23.0887 31.7178 22.426L31.7202 22.4244C32.6344 21.7602 33.1366 20.7742 33.438 19.8982C33.7489 18.9943 33.9292 17.9607 34.0431 16.9189C34.2482 15.042 34.2671 12.8154 34.2848 10.7129C34.2867 10.4921 34.2885 10.2726 34.2906 10.055C34.313 7.68324 34.3596 5.54014 34.6291 3.91753C34.7639 3.10638 34.9342 2.56285 35.1035 2.23537C35.1304 2.1835 35.1543 2.14224 35.175 2.1097C35.2038 2.12236 35.2376 2.13838 35.2766 2.1586C35.5988 2.3257 36.05 2.6682 36.632 3.24958C37.7954 4.4118 39.0893 6.1215 40.5088 8.02956C40.5943 8.14438 40.6802 8.25992 40.7664 8.37599C42.0641 10.1219 43.4528 11.9903 44.7956 13.4407C45.5149 14.2176 46.2854 14.9467 47.0884 15.4933C47.8718 16.0266 48.8682 16.5112 49.9996 16.5112C51.1309 16.5112 52.1272 16.0266 52.9106 15.4933C53.7136 14.9467 54.4841 14.2176 55.2034 13.4407C56.5462 11.9903 57.9349 10.122 59.2327 8.37602C59.319 8.25994 59.4049 8.1444 59.4902 8.02957C60.9098 6.12151 62.2037 4.4118 63.3671 3.24959C63.9491 2.66821 64.4004 2.3257 64.7226 2.1586C64.7631 2.1376 64.7979 2.12114 64.8275 2.10825C64.8489 2.14142 64.8738 2.18399 64.9018 2.23809C65.0715 2.56495 65.2423 3.10774 65.3773 3.91837C65.6475 5.54008 65.6935 7.68253 65.7148 10.0541C65.7168 10.2757 65.7186 10.4992 65.7204 10.7242C65.7371 12.8226 65.7548 15.0444 65.9583 16.9176C66.0714 17.9594 66.251 18.9931 66.5614 19.8972C66.8623 20.7734 67.3643 21.7599 68.279 22.4244L68.2814 22.426C69.1963 23.0887 70.2902 23.2654 71.2223 23.2842C72.183 23.3036 73.2273 23.1587 74.2594 22.9474C76.1372 22.563 78.2941 21.8876 80.3263 21.2513C80.5181 21.1911 80.709 21.1314 80.8982 21.0723C83.1714 20.3625 85.233 19.7437 86.8663 19.4951C87.6831 19.3708 88.2555 19.3626 88.621 19.4207C88.6775 19.4298 88.7235 19.4393 88.7603 19.4485C88.7575 19.4821 88.7526 19.5227 88.7449 19.571C88.6876 19.9288 88.5038 20.4636 88.1323 21.1962C87.3897 22.661 86.1624 24.4182 84.7826 26.3522C84.6803 26.4958 84.577 26.6402 84.4732 26.7854C83.2273 28.5294 81.9 30.3874 80.9448 32.0718C80.4251 32.9883 79.9653 33.9383 79.6889 34.8616C79.4202 35.7597 79.2571 36.8549 79.6083 37.93C79.9592 39.0045 80.7515 39.7797 81.4892 40.3264C82.2533 40.8927 83.182 41.3768 84.1388 41.8017C85.8364 42.5555 87.9168 43.2472 89.8902 43.9033C90.1311 43.9834 90.3703 44.063 90.607 44.142C92.8631 44.8954 94.895 45.6053 96.3598 46.3685C97.0919 46.75 97.5585 47.0831 97.8194 47.3488C97.8832 47.4138 97.9254 47.4647 97.9528 47.5021C97.9252 47.5402 97.8824 47.5923 97.8171 47.659C97.5561 47.9256 97.0897 48.2598 96.358 48.6419C94.894 49.4065 92.8625 50.1174 90.607 50.8706C90.3619 50.9525 90.1141 51.0348 89.8646 51.1178C87.8994 51.771 85.83 52.4588 84.1406 53.2071C83.1842 53.6307 82.2558 54.113 81.492 54.6771C80.7549 55.2213 79.9608 55.9945 79.6089 57.0681L79.6083 57.07C79.2571 58.1451 79.4202 59.2404 79.6889 60.1385C79.9653 61.0618 80.4251 62.0118 80.9448 62.9283C81.9 64.6127 83.2273 66.4707 84.4733 68.2147C84.577 68.3599 84.6803 68.5044 84.7826 68.6479C86.1624 70.5819 87.3897 72.3391 88.1323 73.8038C88.5038 74.5365 88.6876 75.0712 88.7449 75.429C88.7526 75.4773 88.7575 75.5179 88.7603 75.5516C88.7235 75.5607 88.6775 75.5702 88.621 75.5793C88.2555 75.6374 87.6831 75.6292 86.8663 75.5049C85.233 75.2564 83.1714 74.6375 80.8982 73.9277C80.709 73.8686 80.5183 73.8089 80.3265 73.7489C78.2943 73.1125 76.1373 72.437 74.2594 72.0527C73.2273 71.8414 72.183 71.6965 71.2223 71.7159C70.2902 71.7346 69.1963 71.9114 68.2814 72.574L68.279 72.5756C67.3647 73.2398 66.8625 74.2257 66.5611 75.1019C66.2502 76.0057 66.0699 77.0393 65.9561 78.0812C65.7509 79.958 65.7321 82.1847 65.7143 84.287C65.7124 84.5079 65.7106 84.7274 65.7085 84.945C65.6861 87.3167 65.6396 89.4599 65.37 91.0825C65.2353 91.8937 65.0649 92.4372 64.8956 92.7647C64.8688 92.8165 64.8449 92.8578 64.8242 92.8904C64.7954 92.8777 64.7616 92.8616 64.7226 92.8415C64.4004 92.6743 63.9491 92.3319 63.3671 91.7505C62.2037 90.5882 60.9098 88.8785 59.4902 86.9704C59.4049 86.8557 59.319 86.7402 59.2327 86.6241C57.9349 84.8782 56.5462 83.0097 55.2034 81.5594C54.4841 80.7825 53.7136 80.0533 52.9106 79.5067C52.1272 78.9734 51.1309 78.4888 49.9996 78.4888C48.8682 78.4888 47.8718 78.9734 47.0884 79.5067C46.2854 80.0533 45.5149 80.7825 44.7956 81.5594C43.4528 83.0098 42.0641 84.8782 40.7663 86.6241C40.6801 86.7402 40.5943 86.8557 40.5088 86.9704C39.0893 88.8785 37.7954 90.5882 36.632 91.7505C36.05 92.3319 35.5988 92.6743 35.2766 92.8415C35.2361 92.8624 35.2013 92.8789 35.1717 92.8918C35.1503 92.8586 35.1254 92.8161 35.0973 92.762C34.9276 92.4351 34.7569 91.8923 34.6218 91.0816C34.3517 89.4599 34.3057 87.3175 34.2843 84.9459C34.2823 84.7244 34.2805 84.5008 34.2787 84.2759C34.262 82.1774 34.2443 79.9556 34.0409 78.0825C33.9277 77.0406 33.7481 76.0069 33.4377 75.1029C33.1368 74.2266 32.6348 73.2401 31.7202 72.5756L31.7178 72.574C30.8028 71.9114 29.709 71.7346 28.7768 71.7159C27.8162 71.6965 26.7718 71.8414 25.7397 72.0527C23.862 72.4369 21.705 73.1124 19.673 73.7488C19.481 73.8089 19.2902 73.8686 19.1009 73.9277C16.8278 74.6375 14.7661 75.2564 13.1328 75.5049C12.316 75.6292 11.7437 75.6374 11.3782 75.5793C11.3216 75.5702 11.2756 75.5607 11.2388 75.5516C11.2416 75.5179 11.2465 75.4773 11.2542 75.429C11.3115 75.0712 11.4954 74.5365 11.8669 73.8038C12.6095 72.3391 13.8367 70.5819 15.2165 68.6479C15.3189 68.5044 15.422 68.3599 15.5258 68.2147C16.7717 66.4707 18.0991 64.6127 19.0543 62.9283C19.574 62.0118 20.0338 61.0618 20.3101 60.1385C20.5788 59.2404 20.742 58.1451 20.3908 57.07L20.3902 57.0681C20.0383 55.9945 19.2442 55.2213 18.507 54.6771C17.7432 54.113 16.8149 53.6307 15.8584 53.2071C14.1691 52.4588 12.0996 51.771 10.1345 51.1178C9.88501 51.0348 9.63718 50.9525 9.39201 50.8707C7.13665 50.1174 5.10509 49.4065 3.64113 48.6419C2.90945 48.2598 2.44307 47.9256 2.18202 47.659C2.11549 47.591 2.07236 47.5383 2.04489 47.5C2.07236 47.4618 2.11549 47.409 2.18202 47.3411C2.44307 47.0743 2.90944 46.7403 3.64113 46.3581C5.10508 45.5934 7.13665 44.8825 9.392 44.1294C9.63714 44.0475 9.88495 43.9652 10.1344 43.8822C12.0996 43.2291 14.1691 42.5412 15.8584 41.793C16.8149 41.3694 17.7432 40.8871 18.507 40.3229C19.2442 39.7787 20.0383 39.0055 20.3902 37.9319ZM11.2398 19.3095C11.2398 19.3095 11.2395 19.3135 11.2376 19.3203C11.2386 19.3127 11.2398 19.3095 11.2398 19.3095ZM11.1188 19.4883C11.1129 19.4924 11.1092 19.4939 11.1092 19.4939C11.1092 19.4939 11.1118 19.4917 11.1188 19.4883ZM35.2608 2.00003C35.2608 2.00003 35.258 2.00322 35.2519 2.00759C35.2577 2.00189 35.2608 2.00003 35.2608 2.00003ZM35.047 2.06473C35.0403 2.06431 35.0366 2.06334 35.0366 2.06334C35.0366 2.06334 35.0399 2.06331 35.047 2.06473ZM64.7527 2.0101C64.7465 2.0057 64.7436 2.00246 64.7436 2.00246C64.7436 2.00246 64.7468 2.00431 64.7527 2.0101ZM64.9625 2.06334C64.9625 2.06334 64.9588 2.0643 64.9521 2.06473C64.9592 2.0633 64.9625 2.06334 64.9625 2.06334ZM88.7615 19.3203C88.7596 19.3135 88.7593 19.3095 88.7593 19.3095C88.7593 19.3095 88.7605 19.3127 88.7615 19.3203ZM64.9625 92.9367C64.9625 92.9367 64.9591 92.9367 64.9521 92.9353C64.9589 92.9357 64.9625 92.9367 64.9625 92.9367ZM35.2556 92.9976C35.2556 92.9976 35.2524 92.9957 35.2465 92.9899C35.2528 92.9943 35.2556 92.9976 35.2556 92.9976ZM98 47.5814C98 47.5814 97.9978 47.5777 97.9956 47.57C97.9992 47.5775 98 47.5814 98 47.5814ZM97.9948 47.4344C97.9969 47.427 97.9991 47.4229 97.9991 47.4229C97.9991 47.4229 97.9985 47.4265 97.9948 47.4344ZM88.8804 75.5117C88.8863 75.5076 88.89 75.5061 88.89 75.5061C88.89 75.5061 88.8872 75.5083 88.8804 75.5117ZM64.7384 92.9999C64.7384 92.9999 64.7413 92.9967 64.7473 92.9925C64.7414 92.9983 64.7384 92.9999 64.7384 92.9999ZM35.0366 92.9367C35.0366 92.9367 35.0403 92.9357 35.047 92.9353C35.0399 92.9367 35.0366 92.9367 35.0366 92.9367ZM11.2376 75.6798C11.2395 75.6866 11.2398 75.6906 11.2398 75.6906C11.2398 75.6906 11.2386 75.6874 11.2376 75.6798ZM2.00008 47.4229C2.00008 47.4229 2.00228 47.4268 2.00438 47.4345C2.00074 47.4267 2.00008 47.4229 2.00008 47.4229ZM2.00439 47.5655C2.00229 47.5731 2.00008 47.577 2.00008 47.577C2.00008 47.577 2.00075 47.5732 2.00439 47.5655Z" stroke="#FF7A2C" stroke-width="4"/>
<path id="Vector_2" d="M50 57.8917V37.1309" stroke="#FF7A2C" stroke-width="4.9945" stroke-miterlimit="10"/>
<path id="Vector_3" d="M39.5938 47.498H60.4199" stroke="#FF7A2C" stroke-width="4.9945" stroke-miterlimit="10"/>
</g>
<defs>
<clipPath id="clip0_3948_28614">
<rect width="100" height="95" fill="white"/>
</clipPath>
</defs>
</svg>
