<svg width="28" height="28" viewBox="0 0 28 28" fill="none" xmlns="http://www.w3.org/2000/svg">
<g id="fi-rr-cross-small">
<path id="Vector" d="M21.0017 6.99979C20.783 6.78107 20.4863 6.6582 20.1769 6.6582C19.8675 6.6582 19.5709 6.78107 19.3521 6.99979L14.0017 12.3501L8.65141 6.99979C8.43263 6.78107 8.13593 6.6582 7.82657 6.6582C7.51722 6.6582 7.22052 6.78107 7.00174 6.99979C6.78302 7.21857 6.66016 7.51526 6.66016 7.82462C6.66016 8.13398 6.78302 8.43067 7.00174 8.64945L12.3521 13.9998L7.00174 19.3501C6.78302 19.5689 6.66016 19.8656 6.66016 20.175C6.66016 20.4843 6.78302 20.781 7.00174 20.9998C7.22052 21.2185 7.51722 21.3414 7.82657 21.3414C8.13593 21.3414 8.43263 21.2185 8.65141 20.9998L14.0017 15.6495L19.3521 20.9998C19.5709 21.2185 19.8675 21.3414 20.1769 21.3414C20.4863 21.3414 20.783 21.2185 21.0017 20.9998C21.2205 20.781 21.3433 20.4843 21.3433 20.175C21.3433 19.8656 21.2205 19.5689 21.0017 19.3501L15.6514 13.9998L21.0017 8.64945C21.2205 8.43067 21.3433 8.13398 21.3433 7.82462C21.3433 7.51526 21.2205 7.21857 21.0017 6.99979Z" fill="#B8C7FF"/>
</g>
</svg>
