<svg width="24" height="24" viewBox="0 0 24 24" fill="none" xmlns="http://www.w3.org/2000/svg">
<g id="Ic / Arrow min up">
<path id="Vector" d="M18.0002 15.5008C17.8686 15.5015 17.7381 15.4763 17.6163 15.4266C17.4944 15.3768 17.3836 15.3035 17.2902 15.2108L12.7102 10.6208C12.6172 10.5271 12.5066 10.4527 12.3848 10.4019C12.2629 10.3511 12.1322 10.325 12.0002 10.325C11.8682 10.325 11.7375 10.3511 11.6156 10.4019C11.4937 10.4527 11.3831 10.5271 11.2902 10.6208L6.71019 15.2108C6.52188 15.3991 6.26649 15.5049 6.00019 15.5049C5.73388 15.5049 5.47849 15.3991 5.29019 15.2108C5.10188 15.0225 4.99609 14.7671 4.99609 14.5008C4.99609 14.3689 5.02207 14.2384 5.07253 14.1165C5.12299 13.9947 5.19695 13.884 5.29019 13.7908L9.88019 9.21079C10.4501 8.66323 11.2098 8.35742 12.0002 8.35742C12.7905 8.35742 13.5502 8.66323 14.1202 9.21079L18.7102 13.7908C18.8039 13.8837 18.8783 13.9943 18.9291 14.1162C18.9798 14.2381 19.006 14.3688 19.006 14.5008C19.006 14.6328 18.9798 14.7635 18.9291 14.8854C18.8783 15.0072 18.8039 15.1178 18.7102 15.2108C18.6167 15.3035 18.5059 15.3768 18.3841 15.4266C18.2623 15.4763 18.1318 15.5015 18.0002 15.5008Z" fill="#3A41BA"/>
</g>
</svg>
