<svg width="89" height="50" viewBox="0 0 89 50" fill="none" xmlns="http://www.w3.org/2000/svg">
<circle cx="84.1554" cy="44.2237" r="4.84462" transform="rotate(-180 84.1554 44.2237)" fill="#B8C7FF"/>
<circle cx="64.2687" cy="44.2237" r="4.84462" transform="rotate(-180 64.2687 44.2237)" fill="#B8C7FF"/>
<circle cx="44.8898" cy="44.2237" r="4.84462" transform="rotate(-180 44.8898 44.2237)" fill="#B8C7FF"/>
<circle cx="24.9991" cy="44.2237" r="4.84462" transform="rotate(-180 24.9991 44.2237)" fill="#B8C7FF"/>
<circle cx="5.11241" cy="44.2237" r="4.84462" transform="rotate(-180 5.11241 44.2237)" fill="#B8C7FF"/>
<circle cx="84.1554" cy="24.5343" r="4.84462" transform="rotate(-180 84.1554 24.5343)" fill="#B8C7FF"/>
<circle cx="64.2687" cy="24.5343" r="4.84462" transform="rotate(-180 64.2687 24.5343)" fill="#B8C7FF"/>
<circle cx="44.8898" cy="24.5343" r="4.84462" transform="rotate(-180 44.8898 24.5343)" fill="#B8C7FF"/>
<circle cx="24.9991" cy="24.5343" r="4.84462" transform="rotate(-180 24.9991 24.5343)" fill="#B8C7FF"/>
<circle cx="5.11241" cy="24.5343" r="4.84462" transform="rotate(-180 5.11241 24.5343)" fill="#B8C7FF"/>
<circle cx="84.1554" cy="4.84483" r="4.84462" transform="rotate(-180 84.1554 4.84483)" fill="#B8C7FF"/>
<circle cx="64.2687" cy="4.84483" r="4.84462" transform="rotate(-180 64.2687 4.84483)" fill="#B8C7FF"/>
<circle cx="44.8898" cy="4.84483" r="4.84462" transform="rotate(-180 44.8898 4.84483)" fill="#B8C7FF"/>
<circle cx="24.9991" cy="4.84483" r="4.84462" transform="rotate(-180 24.9991 4.84483)" fill="#B8C7FF"/>
<circle cx="5.11241" cy="4.84483" r="4.84462" transform="rotate(-180 5.11241 4.84483)" fill="#B8C7FF"/>
</svg>
