<svg width="602" height="157" viewBox="0 0 602 157" fill="none" xmlns="http://www.w3.org/2000/svg">
<g clip-path="url(#clip0_3743_30259)">
<path d="M12.609 141C12.609 141 7.51284 35 26.8047 35C46.0965 35 36.0932 141 63.2446 141C90.3961 141 70.3898 35 96.1121 35C121.834 35 96.1121 141 126.122 141C156.131 141 126.122 35 153.273 35C180.424 35 158.275 141 185.426 141C208.29 141 188.284 35 214.721 35C241.158 35 226.176 126 247.588 141C269 156 309 105 309 105" stroke="#B8C7FF" stroke-width="24" stroke-linecap="round"/>
<path d="M381 110.079C381 110.079 305.23 116.989 305.23 110.079C305.231 103.169 351.086 40.7963 359.06 33.3363C367.035 25.8764 359.06 144.988 359.06 144.988" stroke="#829DFD" stroke-width="24" stroke-linecap="round"/>
<path d="M563.77 109.079C563.77 109.079 487.999 115.989 488 109.079C488.001 102.169 533.855 39.7963 541.83 32.3363C549.805 24.8764 541.83 143.988 541.83 143.988" stroke="#829DFD" stroke-width="24" stroke-linecap="round"/>
<path d="M466.437 65.1861C459.888 46.9763 450.78 33.3147 435.02 33.0052C418.95 32.6897 409.306 46.6406 402.59 65.1861C396.47 82.084 396.47 95.916 402.59 112.814C409.306 131.359 418.95 145.31 435.02 144.995C450.78 144.685 460.352 129.732 466.437 112.814C472.521 95.8956 472.521 82.1044 466.437 65.1861Z" stroke="#829DFD" stroke-width="24"/>
<path d="M569.304 1.11322C568.964 1.78976 568.567 2.6777 568.34 3.14282C568.057 3.81936 565.845 19.6334 565.788 21.2824C565.788 21.9167 564.144 20.6482 555.921 13.756C546.223 5.55298 545.372 4.87645 544.975 5.17243C543.898 6.0181 546.166 9.3162 553.595 17.646L561.818 26.8215L560.231 27.0752C559.38 27.2444 554.616 27.7095 549.626 28.1323C539.758 28.9357 538 29.2317 538 30.1619C538 31.1344 539.361 31.2613 549.796 31.2613H559.834L553.822 35.7856C545.826 41.8744 544.578 43.0584 545.429 43.7772C546.336 44.6228 547.811 43.9463 556.998 38.2803C561.365 35.6165 565.221 33.4177 565.561 33.3755C565.958 33.3755 566.355 34.6862 566.582 36.589C567.149 41.1979 569.644 52.3184 570.382 53.2909C571.176 54.4326 572.82 54.1366 573.047 52.8258C573.161 52.2339 573.557 51.515 573.898 51.1768C574.351 50.7539 574.578 48.3015 574.522 43.6503L574.465 36.7158L577.641 38.9992C579.399 40.2677 582.801 42.551 585.24 44.1154C589.663 46.9484 591.705 47.4981 591.478 45.8491C591.081 42.6355 589.153 40.3945 581.554 34.1788C577.981 31.219 577.3 30.4579 578.094 30.2465C578.605 30.0774 583.879 29.4431 589.833 28.8511C600.665 27.7518 603.047 27.1598 601.629 26.1027C601.119 25.7222 597.376 25.5107 588.586 25.3416L576.28 25.1302L579.399 22.5932C581.1 21.1978 584.729 18.3226 587.452 16.2084C590.23 14.0942 592.442 12.1069 592.442 11.8532C592.442 10.7538 590.571 10.923 587.735 12.3183C586.091 13.1217 582.121 15.4473 578.832 17.4769L572.877 21.1133L572.48 19.8025C572.31 19.0414 571.97 14.6439 571.743 9.95045C571.516 5.257 571.232 1.11322 571.119 0.690387C570.665 -0.366696 569.985 -0.197564 569.304 1.11322Z" fill="#FF7A2C"/>
</g>
<defs>
<clipPath id="clip0_3743_30259">
<rect width="602" height="157" fill="white"/>
</clipPath>
</defs>
</svg>
