<svg width="50" height="50" viewBox="0 0 50 50" fill="none" xmlns="http://www.w3.org/2000/svg">
<path d="M25 16.0156C23.2231 16.0156 21.486 16.5425 20.0085 17.5298C18.5311 18.517 17.3795 19.9201 16.6995 21.5618C16.0195 23.2035 15.8416 25.01 16.1883 26.7528C16.5349 28.4956 17.3906 30.0964 18.6471 31.3529C19.9036 32.6094 21.5044 33.4651 23.2472 33.8117C24.99 34.1584 26.7965 33.9805 28.4382 33.3005C30.0799 32.6205 31.483 31.4689 32.4702 29.9915C33.4575 28.514 33.9844 26.7769 33.9844 25C33.9813 22.6181 33.0337 20.3347 31.3495 18.6505C29.6653 16.9663 27.3819 16.0187 25 16.0156ZM25 31.6406C23.6866 31.6406 22.4027 31.2512 21.3107 30.5215C20.2186 29.7918 19.3675 28.7547 18.8649 27.5413C18.3622 26.3278 18.2307 24.9926 18.487 23.7045C18.7432 22.4163 19.3757 21.2331 20.3044 20.3044C21.2331 19.3757 22.4163 18.7432 23.7045 18.487C24.9926 18.2307 26.3278 18.3622 27.5413 18.8649C28.7547 19.3675 29.7918 20.2186 30.5215 21.3107C31.2512 22.4027 31.6406 23.6866 31.6406 25C31.6406 26.7612 30.941 28.4503 29.6956 29.6956C28.4503 30.941 26.7612 31.6406 25 31.6406ZM34.375 5.07812H15.625C12.8287 5.08123 10.1479 6.19341 8.17066 8.17066C6.19341 10.1479 5.08123 12.8287 5.07812 15.625V34.375C5.08123 37.1713 6.19341 39.8521 8.17066 41.8293C10.1479 43.8066 12.8287 44.9188 15.625 44.9219H34.375C37.1713 44.9188 39.8521 43.8066 41.8293 41.8293C43.8066 39.8521 44.9188 37.1713 44.9219 34.375V15.625C44.9188 12.8287 43.8066 10.1479 41.8293 8.17066C39.8521 6.19341 37.1713 5.08123 34.375 5.07812ZM42.5781 34.375C42.5781 36.5506 41.7139 38.6371 40.1755 40.1755C38.6371 41.7139 36.5506 42.5781 34.375 42.5781H15.625C13.4494 42.5781 11.3629 41.7139 9.82451 40.1755C8.28613 38.6371 7.42188 36.5506 7.42188 34.375V15.625C7.42188 13.4494 8.28613 11.3629 9.82451 9.82451C11.3629 8.28613 13.4494 7.42188 15.625 7.42188H34.375C36.5506 7.42188 38.6371 8.28613 40.1755 9.82451C41.7139 11.3629 42.5781 13.4494 42.5781 15.625V34.375ZM37.1094 14.8438C37.1094 15.23 36.9948 15.6077 36.7802 15.9288C36.5656 16.25 36.2606 16.5004 35.9037 16.6482C35.5468 16.796 35.1541 16.8347 34.7752 16.7593C34.3963 16.684 34.0483 16.498 33.7752 16.2248C33.502 15.9517 33.316 15.6037 33.2407 15.2248C33.1653 14.8459 33.204 14.4532 33.3518 14.0963C33.4996 13.7394 33.75 13.4344 34.0711 13.2198C34.3923 13.0052 34.77 12.8906 35.1562 12.8906C35.6743 12.8906 36.171 13.0964 36.5373 13.4627C36.9036 13.829 37.1094 14.3257 37.1094 14.8438Z" fill="black"/>
</svg>
