<svg width="120" height="41" viewBox="0 0 120 41" fill="none" xmlns="http://www.w3.org/2000/svg">
<g clip-path="url(#clip0_459_5779)">
<path d="M47.3267 16.0479V1.97168H49.4503V8.69363H49.6221L55.5261 1.97168H58.1998L52.5227 8.30874L58.2203 16.0479H55.6636L51.1136 9.759L49.4503 11.6697V16.0479H47.3267ZM62.6901 1.97168V16.0479H60.5665V1.97168H62.6901ZM77.5318 1.97168V16.0479H75.5797L68.4246 5.72444H68.2941V16.0479H66.1701V1.97168H68.1358L75.2979 12.3089H75.4283V1.97168H77.5318ZM85.5738 16.0479H81.0169V1.97168H85.7181C87.0974 1.97168 88.2819 2.25348 89.2713 2.81708C90.2611 3.3761 91.0194 4.18026 91.5467 5.22958C92.0781 6.27428 92.3437 7.5275 92.3437 8.98918C92.3437 10.4555 92.0758 11.7155 91.5397 12.7694C91.0082 13.8233 90.2383 14.6343 89.2303 15.2025C88.2223 15.7661 87.0033 16.0479 85.5738 16.0479ZM83.1405 14.1922H85.4569C86.5291 14.1922 87.4202 13.9905 88.1305 13.5873C88.8409 13.1795 89.3723 12.5907 89.725 11.8209C90.078 11.0466 90.2545 10.1026 90.2545 8.98918C90.2545 7.88491 90.078 6.94786 89.725 6.17804C89.377 5.40826 88.8567 4.82406 88.165 4.4254C87.4729 4.02676 86.6139 3.82744 85.5873 3.82744H83.1405V14.1922ZM95.3719 16.0479V1.97168H104.197V3.79995H97.4956V8.08879H103.737V9.9102H97.4956V14.2197H104.279V16.0479H95.3719ZM107.421 16.0479V1.97168H112.438C113.529 1.97168 114.434 2.15955 115.153 2.53528C115.877 2.91101 116.418 3.43108 116.775 4.09549C117.133 4.75531 117.311 5.51824 117.311 6.38425C117.311 7.2457 117.131 8.00402 116.769 8.65926C116.411 9.30993 115.87 9.81625 115.146 10.1782C114.427 10.5402 113.522 10.7212 112.432 10.7212H108.631V8.89295H112.239C112.926 8.89295 113.485 8.79443 113.916 8.5974C114.351 8.40037 114.67 8.11399 114.872 7.73828C115.073 7.36252 115.174 6.9112 115.174 6.38425C115.174 5.85273 115.071 5.39224 114.865 5.00274C114.663 4.61328 114.345 4.31543 113.909 4.10924C113.478 3.89846 112.913 3.79307 112.212 3.79307H109.545V16.0479H107.421ZM114.37 9.69714L117.848 16.0479H115.428L112.019 9.69714H114.37Z" fill="black"/>
<path d="M59.7997 27.5302C59.6271 26.9881 59.3948 26.5027 59.1029 26.0738C58.8169 25.6389 58.4743 25.2696 58.0752 24.9658C57.6761 24.6561 57.2205 24.4208 56.7084 24.26C56.202 24.0991 55.645 24.0187 55.0373 24.0187C54.0068 24.0187 53.0778 24.2838 52.2498 24.8139C51.4218 25.3441 50.7664 26.1215 50.2837 27.146C49.8072 28.1646 49.5691 29.4126 49.5691 30.8898C49.5691 32.373 49.8103 33.627 50.293 34.6515C50.7753 35.6761 51.4365 36.4534 52.2765 36.9836C53.1165 37.5137 54.0722 37.7788 55.1445 37.7788C56.1393 37.7788 57.006 37.5763 57.7446 37.1712C58.4894 36.7662 59.0642 36.1943 59.4691 35.4557C59.8802 34.7111 60.0858 33.8354 60.0858 32.8287L60.8004 32.9628H55.5645V30.6843H62.7571V32.7662C62.7571 34.303 62.4297 35.6373 61.7743 36.7691C61.1251 37.8949 60.2255 38.7646 59.0762 39.3782C57.9324 39.9918 56.622 40.2984 55.1445 40.2984C53.4885 40.2984 52.0353 39.9171 50.7842 39.1548C49.5393 38.3924 48.5685 37.3112 47.8713 35.9114C47.1746 34.5056 46.8262 32.8377 46.8262 30.9077C46.8262 29.4483 47.0286 28.1378 47.4335 26.9762C47.8388 25.8147 48.4075 24.8288 49.1402 24.0187C49.8788 23.2026 50.7455 22.5801 51.7404 22.1513C52.741 21.7164 53.8342 21.499 55.0195 21.499C56.0085 21.499 56.9286 21.645 57.7806 21.9368C58.638 22.2287 59.4006 22.6427 60.068 23.1788C60.7411 23.7149 61.2978 24.3523 61.7387 25.0909C62.1796 25.8236 62.4773 26.6367 62.6321 27.5302H59.7997ZM77.2748 21.7492H80.0449V33.7848C80.0449 35.0655 79.7437 36.2003 79.1422 37.1891C78.5406 38.1719 77.6948 38.9463 76.6048 39.5122C75.5147 40.0723 74.2369 40.3522 72.7717 40.3522C71.312 40.3522 70.0373 40.0723 68.9472 39.5122C67.8571 38.9463 67.0113 38.1719 66.4098 37.1891C65.8082 36.2003 65.5075 35.0655 65.5075 33.7848V21.7492H68.2682V33.5614C68.2682 34.3894 68.4498 35.1251 68.8133 35.7684C69.1826 36.4117 69.704 36.9181 70.3768 37.2873C71.0499 37.6507 71.8481 37.8324 72.7717 37.8324C73.7008 37.8324 74.502 37.6507 75.1752 37.2873C75.8542 36.9181 76.3725 36.4117 76.7298 35.7684C77.0933 35.1251 77.2748 34.3894 77.2748 33.5614V21.7492ZM86.065 21.7492V40.0483H83.3038V21.7492H86.065ZM95.2547 40.0483H89.3309V21.7492H95.4424C97.2355 21.7492 98.7753 22.1155 100.062 22.8482C101.349 23.5749 102.334 24.6203 103.019 25.9844C103.71 27.3426 104.056 28.9717 104.056 30.872C104.056 32.7781 103.707 34.4162 103.011 35.7863C102.32 37.1563 101.319 38.2106 100.008 38.9493C98.6979 39.6821 97.1135 40.0483 95.2547 40.0483ZM92.0917 37.6358H95.1029C96.4969 37.6358 97.6555 37.3737 98.5787 36.8495C99.5019 36.3194 100.193 35.554 100.652 34.5532C101.11 33.5465 101.34 32.3194 101.34 30.872C101.34 29.4364 101.11 28.2182 100.652 27.2175C100.199 26.2168 99.5228 25.4573 98.6236 24.939C97.724 24.4208 96.6072 24.1617 95.2729 24.1617H92.0917V37.6358ZM106.734 40.0483V21.7492H118.207V24.1259H109.496V29.7014H117.608V32.0692H109.496V37.6716H118.314V40.0483H106.734Z" fill="black"/>
<path d="M13.9355 24.9512H27.871" stroke="black" stroke-linecap="round"/>
<path d="M7.35498 26.5001V23.4033" stroke="black" stroke-linecap="round"/>
<path d="M9.29053 26.5001V23.4033" stroke="black" stroke-linecap="round"/>
<path d="M37.9356 21.2744H3.87106C3.33659 21.2744 2.90332 21.7077 2.90332 22.2422V27.6615C2.90332 28.196 3.33659 28.6293 3.87106 28.6293H37.9356C38.47 28.6293 38.9033 28.196 38.9033 27.6615V22.2422C38.9033 21.7077 38.47 21.2744 37.9356 21.2744Z" stroke="black"/>
<mask id="mask0_459_5779" style="mask-type:luminance" maskUnits="userSpaceOnUse" x="0" y="28" width="42" height="13">
<path d="M41.4195 28.0479H0.387207V40.0479H41.4195V28.0479Z" fill="white"/>
</mask>
<g mask="url(#mask0_459_5779)">
<path d="M39.871 28.6289H1.93552C1.40105 28.6289 0.967773 29.0622 0.967773 29.5966V38.4999C0.967773 39.0343 1.40105 39.4676 1.93552 39.4676H39.871C40.4055 39.4676 40.8387 39.0343 40.8387 38.4999V29.5966C40.8387 29.0622 40.4055 28.6289 39.871 28.6289Z" stroke="black"/>
<path d="M35.0324 36.7582C36.5289 36.7582 37.7421 35.5451 37.7421 34.0485C37.7421 32.552 36.5289 31.3389 35.0324 31.3389C33.5359 31.3389 32.3228 32.552 32.3228 34.0485C32.3228 35.5451 33.5359 36.7582 35.0324 36.7582Z" stroke="black"/>
<path d="M4.06445 32.6933C4.06445 32.1589 4.49773 31.7256 5.0322 31.7256H20.5161C21.0505 31.7256 21.4838 32.1589 21.4838 32.6933V35.403C21.4838 35.9375 21.0505 36.3707 20.5161 36.3707H5.0322C4.49773 36.3707 4.06445 35.9375 4.06445 35.403V32.6933Z" stroke="black" stroke-linecap="round"/>
</g>
<path d="M17.101 10.1848C17.1495 10.3294 17.1381 10.4872 17.0693 10.6234C17.0005 10.7597 16.88 10.8634 16.7341 10.9116C16.5559 10.9674 16.3906 11.0576 16.2477 11.1771C16.1048 11.2965 15.9872 11.4427 15.9017 11.6074C15.6857 12.0087 15.5394 12.6687 15.6753 13.7463C15.6942 13.8976 15.6517 14.0503 15.5569 14.1707C15.4622 14.291 15.3231 14.3691 15.1703 14.3879C15.0174 14.4067 14.8633 14.3645 14.7418 14.2707C14.6203 14.1769 14.5414 14.0391 14.5224 13.8877C14.3692 12.6653 14.512 11.7442 14.8777 11.0668C15.2492 10.3769 15.8146 10.0031 16.3661 9.82148C16.4384 9.79748 16.5148 9.78788 16.5909 9.79315C16.667 9.79845 16.7413 9.81854 16.8095 9.85229C16.8778 9.88605 16.9387 9.93277 16.9887 9.98983C17.0387 10.0469 17.0768 10.1132 17.101 10.1848ZM22.8293 4.01195C22.9035 3.98965 22.9725 3.95282 23.0322 3.90364C23.0919 3.85446 23.1409 3.79393 23.1766 3.72562C23.2122 3.65732 23.2337 3.58263 23.2396 3.50598C23.2456 3.42933 23.236 3.35227 23.2114 3.27935C23.1868 3.20644 23.1476 3.13916 23.0963 3.08148C23.045 3.02381 22.9825 2.97692 22.9126 2.94358C22.8426 2.91025 22.7666 2.89114 22.6891 2.8874C22.6116 2.88366 22.5341 2.89536 22.4612 2.9218C21.3722 3.28058 20.6942 4.16604 20.2948 5.11473C20.2412 5.24298 20.192 5.373 20.1474 5.50458C19.9299 5.0965 19.6516 4.72318 19.3219 4.39718C18.8757 3.95423 18.3427 3.60637 17.7557 3.37499C17.1687 3.14361 16.5401 3.03361 15.9087 3.05174C15.2353 3.07014 14.6977 3.60372 14.6792 4.26953C14.6607 4.90334 14.7751 5.53407 15.0151 6.12192C15.255 6.70973 15.6155 7.24191 16.0735 7.68486C15.0983 7.89413 14.217 8.40877 13.56 9.15269C12.903 9.89662 12.5053 10.8303 12.4257 11.8155L12.4188 11.9006C12.2655 13.7948 12.673 15.6921 13.5913 17.3605L14.0093 18.1172C14.0209 18.1367 14.0325 18.1563 14.0465 18.1747L15.2074 19.7869C15.4705 20.1519 15.8108 20.4558 16.2045 20.6773C16.5982 20.8988 17.0359 21.0328 17.4872 21.0697C17.9384 21.1067 18.3924 21.0459 18.8175 20.8915C19.2426 20.7371 19.6287 20.4928 19.9489 20.1756C19.998 20.1269 20.0564 20.0882 20.1206 20.0619C20.1849 20.0355 20.2537 20.0219 20.3233 20.0219C20.3928 20.0219 20.4617 20.0355 20.5259 20.0619C20.5901 20.0882 20.6485 20.1269 20.6977 20.1756C21.0178 20.4928 21.4038 20.7371 21.829 20.8915C22.2541 21.0459 22.7081 21.1067 23.1593 21.0697C23.6106 21.0328 24.0483 20.8988 24.442 20.6773C24.8357 20.4558 25.176 20.1519 25.4391 19.7869L26.6001 18.1758C26.6136 18.157 26.6261 18.1374 26.6372 18.1172L27.054 17.3605C27.9724 15.6921 28.3799 13.7948 28.2266 11.9006L28.2208 11.8155C28.1694 11.1805 27.9855 10.5629 27.6805 10.002C27.3755 9.44116 26.9563 8.94908 26.4493 8.55711C25.9423 8.16509 25.3587 7.88166 24.7353 7.72481C24.1119 7.56792 23.4625 7.54102 22.8281 7.64576L20.9043 7.96314C20.9159 7.18005 21.0553 6.29917 21.3676 5.55633C21.6926 4.78013 22.1756 4.22814 22.8281 4.01195H22.8293ZM18.8355 7.81369L18.6567 7.78376C17.9749 7.65351 17.3484 7.32339 16.8583 6.83623C16.5229 6.50476 16.2595 6.1088 16.0844 5.67273C15.9093 5.23667 15.8262 4.76967 15.8401 4.30058C15.8405 4.27414 15.8512 4.24887 15.8701 4.23017C15.889 4.21147 15.9145 4.20084 15.9411 4.20054C16.4148 4.18684 16.8863 4.26936 17.3266 4.443C17.7669 4.61665 18.1666 4.87775 18.5011 5.21019C19.2058 5.9082 19.546 6.8293 19.5193 7.74583C19.519 7.77227 19.5082 7.79754 19.4894 7.81624C19.4705 7.83494 19.445 7.84558 19.4183 7.84585C19.2234 7.8512 19.0285 7.84044 18.8355 7.81369ZM18.4547 8.91645L18.6555 8.94982L19.5599 9.09931C20.0653 9.18273 20.5812 9.18273 21.0866 9.09931L23.0185 8.77961C23.4944 8.70099 23.9815 8.72116 24.4491 8.83884C24.9167 8.95651 25.3545 9.16911 25.7348 9.46318C26.1151 9.75726 26.4295 10.1264 26.6582 10.5471C26.8869 10.9679 27.0249 11.4311 27.0633 11.9075L27.0703 11.9926C27.2054 13.6642 26.8455 15.3386 26.0347 16.8109L25.6353 17.5353L24.4941 19.1176C24.329 19.3468 24.1156 19.5375 23.8685 19.6767C23.6215 19.8158 23.3468 19.9 23.0636 19.9233C22.7804 19.9466 22.4955 19.9085 22.2286 19.8117C21.9618 19.7148 21.7194 19.5616 21.5185 19.3626C21.3615 19.207 21.1751 19.0835 20.9699 18.9992C20.7647 18.915 20.5448 18.8716 20.3227 18.8716C20.1006 18.8716 19.8807 18.915 19.6755 18.9992C19.4703 19.0835 19.2839 19.207 19.1269 19.3626C18.9259 19.5614 18.6836 19.7145 18.4169 19.8112C18.1502 19.9079 17.8654 19.9459 17.5824 19.9226C17.2993 19.8993 17.0248 19.8152 16.7778 19.6762C16.5309 19.5372 16.3175 19.3466 16.1525 19.1176L15.0112 17.5353L14.6118 16.8109C13.801 15.3386 13.4411 13.6642 13.5762 11.9926L13.5832 11.9075C13.6217 11.4313 13.7596 10.9681 13.9882 10.5474C14.2169 10.1268 14.5312 9.75773 14.9113 9.46369C15.2915 9.16961 15.7292 8.95698 16.1966 8.83922C16.664 8.72147 17.1511 8.70118 17.6269 8.77961L18.4547 8.91645Z" fill="black"/>
</g>
<defs>
<clipPath id="clip0_459_5779">
<rect width="120" height="39.871" fill="white" transform="translate(0 0.564453)"/>
</clipPath>
</defs>
</svg>
