<svg width="115" height="38" viewBox="0 0 115 38" fill="none" xmlns="http://www.w3.org/2000/svg">
<g clip-path="url(#clip0_1658_10814)">
<path d="M45.5671 13.75L45.5743 0.0002891L47.6193 0.00135476L47.6159 6.4179L53.5193 0.00442936L56.0633 0.00575506L49.8271 6.71506L56.516 13.7557L53.8938 13.7544L47.6155 7.18178L47.6121 13.7511L45.5671 13.75Z" fill="#3A41BA"/>
<path d="M58.5782 13.7568L58.5854 0.00706936L60.6304 0.00813502L60.6232 13.7579L58.5782 13.7568Z" fill="#3A41BA"/>
<path d="M64.0507 13.7597L64.0579 0.00992113L66.1322 0.0110021L73.0641 10.2314L73.0694 0.0146172L75.1437 0.0156981L75.1365 13.7654L73.0622 13.7644L66.1303 3.53437L66.125 13.7608L64.0507 13.7597Z" fill="#3A41BA"/>
<path d="M78.3567 13.7671L78.3639 0.0173762L82.7767 0.0196758C82.9071 0.0197438 83.1485 0.0230525 83.5007 0.029602C83.8595 0.0361541 84.202 0.0617947 84.5281 0.106524C85.6304 0.240777 86.5565 0.62638 87.3063 1.26333C88.0626 1.90029 88.633 2.70902 89.0173 3.68953C89.4017 4.66367 89.5935 5.73319 89.5929 6.8981C89.5923 8.06938 89.3993 9.14507 89.0139 10.1252C88.6286 11.0989 88.0574 11.9039 87.3004 12.54C86.5499 13.1698 85.6235 13.5513 84.521 13.6844C84.1948 13.7288 83.8524 13.7541 83.4936 13.7603C83.1413 13.7664 82.9 13.7695 82.7695 13.7694L78.3567 13.7671ZM80.4516 11.8681L82.7705 11.8693C82.9923 11.8694 83.2565 11.8632 83.5631 11.8506C83.8697 11.838 84.1404 11.8127 84.3752 11.7746C85.0928 11.6413 85.6735 11.3393 86.1173 10.8684C86.5677 10.3913 86.8974 9.80579 87.1065 9.11205C87.3156 8.4183 87.4203 7.67994 87.4208 6.89697C87.4212 6.08854 87.3139 5.34052 87.099 4.65292C86.8841 3.95896 86.5518 3.37951 86.1019 2.91459C85.6586 2.4433 85.0847 2.14381 84.3803 2.01614C84.1455 1.97145 83.8716 1.94585 83.5585 1.93932C83.2519 1.92643 82.991 1.91993 82.7757 1.91981L80.4568 1.91861L80.4516 11.8681Z" fill="#3A41BA"/>
<path d="M92.357 13.7744L92.3641 0.0246719L101.366 0.0293629L101.365 1.9104L94.4081 1.90678L94.4061 5.76435L100.189 5.76736L100.188 7.6484L94.4051 7.64539L94.4029 11.8944L101.36 11.8981L101.359 13.7791L92.357 13.7744Z" fill="#3A41BA"/>
<path d="M104.198 13.7806L104.205 0.0308423L109.9 0.0338098C110.036 0.0338812 110.206 0.0403351 110.408 0.0531716C110.611 0.0596429 110.803 0.0788402 110.986 0.110763C111.768 0.232118 112.42 0.493448 112.942 0.894755C113.47 1.29606 113.865 1.80234 114.125 2.41357C114.386 3.02481 114.516 3.69963 114.516 4.43805C114.515 5.53293 114.227 6.47808 113.653 7.27348C113.079 8.06252 112.217 8.55541 111.069 8.75214L110.237 8.84719L106.245 8.84511L106.243 13.7817L104.198 13.7806ZM112.436 13.7849L109.66 8.18805L111.725 7.67351L114.775 13.7861L112.436 13.7849ZM106.246 6.95452L109.818 6.95639C109.948 6.95645 110.092 6.95016 110.248 6.93751C110.411 6.92487 110.565 6.90267 110.708 6.87091C111.126 6.77565 111.462 6.60077 111.716 6.34627C111.971 6.08542 112.153 5.78633 112.265 5.44901C112.376 5.11169 112.431 4.77434 112.431 4.43696C112.432 4.09958 112.376 3.76536 112.266 3.43429C112.155 3.09685 111.972 2.80075 111.718 2.546C111.464 2.28487 111.128 2.10646 110.711 2.01076C110.567 1.97249 110.414 1.94695 110.251 1.93413C110.094 1.92132 109.951 1.91488 109.82 1.91481L106.249 1.91295L106.246 6.95452Z" fill="#3A41BA"/>
<path d="M53.5094 37.8067C52.2798 37.8061 51.1479 37.5986 50.1135 37.1843C49.0792 36.7617 48.1807 36.1489 47.4179 35.3457C46.6551 34.5426 46.062 33.5658 45.6386 32.4154C45.2152 31.2649 45.0039 29.9573 45.0047 28.4925C45.0057 26.5644 45.3669 24.9095 46.0885 23.5279C46.81 22.138 47.8112 21.071 49.092 20.3269C50.3729 19.5745 51.8486 19.1988 53.5191 19.1997C55.673 19.2008 57.3899 19.6899 58.6699 20.6671C59.9583 21.6442 60.8353 22.9936 61.3008 24.7151L58.6039 25.1854C58.2314 24.1176 57.6298 23.265 56.7991 22.6273C55.9684 21.9897 54.9255 21.6664 53.6705 21.6575C52.3731 21.6486 51.2917 21.9293 50.4265 22.4999C49.5697 23.0704 48.9248 23.8728 48.4918 24.907C48.0588 25.9329 47.8377 27.1286 47.8285 28.494C47.8193 29.8594 48.0307 31.0553 48.4626 32.0817C48.8946 33.0998 49.5429 33.8945 50.4075 34.466C51.2806 35.0374 52.3659 35.3276 53.6633 35.3366C54.7064 35.3537 55.6011 35.168 56.3475 34.7794C57.1024 34.3826 57.7006 33.8036 58.1419 33.0425C58.5833 32.2814 58.8679 31.3465 58.9956 30.2376L55.4341 30.2358L55.4352 28.1504L61.8205 28.1537C61.8374 28.3027 61.85 28.5013 61.8584 28.7496C61.8667 28.9896 61.8709 29.1427 61.8709 29.2089C61.87 30.8639 61.5427 32.3409 60.8891 33.6398C60.2355 34.9387 59.2852 35.9602 58.0383 36.7043C56.7913 37.4402 55.2817 37.8076 53.5094 37.8067Z" fill="#3A41BA"/>
<path d="M70.8124 37.8157C69.3793 37.815 68.1117 37.5288 67.0096 36.9572C65.916 36.3774 65.06 35.5701 64.4415 34.5354C63.823 33.4924 63.5141 32.2674 63.5148 30.8606L63.5207 19.5773L66.2173 19.5663L66.2115 30.7255C66.2111 31.4868 66.3422 32.1572 66.6048 32.7366C66.8674 33.316 67.219 33.8003 67.6598 34.1895C68.1005 34.5786 68.5922 34.8727 69.1348 35.0716C69.6859 35.2705 70.2455 35.3701 70.8137 35.3704C71.3903 35.3707 71.95 35.2716 72.4929 35.0733C73.0442 34.8667 73.5404 34.5691 73.9816 34.1804C74.4227 33.7916 74.7706 33.3077 75.0253 32.7286C75.2885 32.1495 75.4203 31.4834 75.4207 30.7303L75.4265 19.571L78.1231 19.5725L78.1172 30.8683C78.1165 32.2668 77.8064 33.4872 77.1868 34.5296C76.5672 35.572 75.7061 36.3825 74.6034 36.9612C73.5092 37.5316 72.2455 37.8165 70.8124 37.8157Z" fill="#3A41BA"/>
<path d="M81.036 37.4486L81.0453 19.574L83.7038 19.5754L83.6944 37.45L81.036 37.4486Z" fill="#3A41BA"/>
<path d="M86.6238 37.4516L86.6331 19.5769L92.3698 19.5799C92.5394 19.58 92.8531 19.5843 93.311 19.5928C93.7774 19.6013 94.2226 19.6346 94.6466 19.6928C96.0796 19.8673 97.2835 20.3686 98.2582 21.1966C99.2415 22.0247 99.9829 23.076 100.483 24.3507C100.982 25.6171 101.232 27.0075 101.231 28.5218C101.23 30.0445 100.979 31.4429 100.478 32.717C99.9772 33.9829 99.2347 35.0293 98.2506 35.8563C97.275 36.6751 96.0706 37.171 94.6374 37.344C94.2133 37.4017 93.7681 37.4346 93.3017 37.4426C92.8438 37.4507 92.53 37.4546 92.3605 37.4546L86.6238 37.4516ZM89.3471 34.9828L92.3617 34.9844C92.6501 34.9845 92.9935 34.9764 93.3921 34.9601C93.7906 34.9437 94.1426 34.9108 94.4479 34.8613C95.3807 34.688 96.1357 34.2953 96.7126 33.6833C97.298 33.0629 97.7267 32.3018 97.9985 31.4C98.2703 30.4981 98.4065 29.5382 98.407 28.5204C98.4076 27.4694 98.2682 26.497 97.9888 25.6031C97.7094 24.7009 97.2774 23.9477 96.6926 23.3433C96.1162 22.7306 95.3702 22.3413 94.4545 22.1753C94.1492 22.1172 93.7931 22.0839 93.3861 22.0754C92.9875 22.0587 92.6483 22.0502 92.3685 22.0501L89.3539 22.0485L89.3471 34.9828Z" fill="#3A41BA"/>
<path d="M103.298 37.4602L103.307 19.5856L115.009 19.5917L115.008 22.037L105.964 22.0323L105.962 27.0472L113.479 27.0511L113.478 29.4964L105.96 29.4925L105.957 35.0163L115.001 35.021L115 37.4663L103.298 37.4602Z" fill="#3A41BA"/>
<path d="M18.0491 6.81935C18.1011 6.95445 18.0889 7.10184 18.0152 7.22916C17.9415 7.35648 17.8124 7.45334 17.6561 7.49845C17.4652 7.55061 17.2881 7.63488 17.1351 7.74647C16.9821 7.85805 16.8561 7.9947 16.7645 8.14854C16.5332 8.52351 16.3765 9.14029 16.522 10.1471C16.5423 10.2886 16.4967 10.4312 16.3952 10.5437C16.2938 10.6561 16.1448 10.7291 15.9811 10.7467C15.8173 10.7642 15.6522 10.7248 15.522 10.6372C15.3919 10.5495 15.3074 10.4207 15.2871 10.2793C15.123 9.13707 15.2759 8.2764 15.6677 7.64349C16.0656 6.99879 16.6712 6.64957 17.2619 6.47982C17.3394 6.4574 17.4212 6.44843 17.5028 6.45335C17.5843 6.4583 17.6638 6.47707 17.7369 6.50861C17.81 6.54015 17.8753 6.58381 17.9288 6.63713C17.9824 6.69048 18.0232 6.75237 18.0491 6.81935ZM24.1849 1.05141C24.2644 1.03057 24.3383 0.996161 24.4023 0.950207C24.4662 0.904252 24.5187 0.847693 24.5569 0.78387C24.5951 0.720048 24.618 0.650261 24.6244 0.578637C24.6309 0.507013 24.6206 0.435005 24.5942 0.366875C24.5678 0.298745 24.5259 0.235877 24.4709 0.181987C24.416 0.128097 24.349 0.0842844 24.2741 0.0531346C24.1992 0.0219848 24.1178 0.00413474 24.0348 0.000637082C23.9517 -0.00286058 23.8687 0.00807007 23.7906 0.032778C22.6242 0.368025 21.8979 1.19539 21.4701 2.08185C21.4127 2.20168 21.36 2.32318 21.3122 2.44612C21.0793 2.06481 20.7812 1.71599 20.428 1.41137C19.9501 0.997478 19.3791 0.672437 18.7504 0.456241C18.1216 0.240041 17.4484 0.137256 16.772 0.154198C16.0507 0.171389 15.4749 0.66996 15.455 1.2921C15.4352 1.88432 15.5577 2.47368 15.8148 3.02296C16.0719 3.57221 16.4579 4.06948 16.9486 4.48337C15.9039 4.67891 14.9599 5.15979 14.2563 5.85491C13.5525 6.55003 13.1265 7.42242 13.0412 8.34302L13.0338 8.42253C12.8696 10.1924 13.3061 11.9653 14.2898 13.5243L14.7375 14.2313C14.7499 14.2496 14.7624 14.2678 14.7773 14.285L16.0209 15.7915C16.3027 16.1325 16.6671 16.4165 17.0889 16.6235C17.5106 16.8305 17.9794 16.9556 18.4628 16.9902C18.9461 17.0247 19.4324 16.9679 19.8878 16.8236C20.3431 16.6793 20.7567 16.451 21.0996 16.1547C21.1522 16.1092 21.2147 16.073 21.2836 16.0484C21.3524 16.0238 21.4262 16.0111 21.5006 16.0111C21.5751 16.0111 21.6489 16.0238 21.7177 16.0484C21.7865 16.073 21.849 16.1092 21.9017 16.1547C22.2446 16.451 22.6581 16.6793 23.1135 16.8236C23.5688 16.9679 24.0551 17.0247 24.5384 16.9902C25.0218 16.9556 25.4906 16.8305 25.9124 16.6235C26.3341 16.4165 26.6986 16.1325 26.9804 15.7915L28.224 14.2861C28.2385 14.2685 28.2518 14.2502 28.2638 14.2313L28.7102 13.5243C29.6939 11.9653 30.1304 10.1924 29.9662 8.42253L29.96 8.34302C29.905 7.74965 29.7079 7.17263 29.3812 6.64852C29.0546 6.12445 28.6055 5.66465 28.0625 5.29839C27.5194 4.9321 26.8942 4.66726 26.2265 4.5207C25.5588 4.3741 24.8631 4.34896 24.1836 4.44684L22.123 4.7434C22.1355 4.01167 22.2847 3.18859 22.6192 2.49448C22.9674 1.76919 23.4847 1.25342 24.1836 1.05141H24.1849Z" fill="#3A41BA"/>
<rect x="3" y="18" width="36" height="8" rx="2" fill="#3A41BA"/>
<rect y="27" width="42" height="11" rx="2" fill="#3A41BA"/>
</g>
<defs>
<clipPath id="clip0_1658_10814">
<rect width="115" height="38" fill="white"/>
</clipPath>
</defs>
</svg>
