<svg width="115" height="38" viewBox="0 0 115 38" fill="none" xmlns="http://www.w3.org/2000/svg">
  <g clip-path="url(#clip0_699_10561)">
    <path
      d="M45.5672 13.6448L45.5743 0.0002891L47.6193 0.00135476L47.6159 6.36877L53.5193 0.00442936L56.0633 0.00575506L49.8271 6.66366L56.5161 13.6505L53.8938 13.6491L47.6156 7.1268L47.6122 13.6458L45.5672 13.6448Z"
      fill="#3A41BA"/>
    <path d="M58.5783 13.6515L58.5854 0.00706936L60.6304 0.00813502L60.6233 13.6526L58.5783 13.6515Z" fill="#3A41BA"/>
    <path
      d="M64.0507 13.6544L64.0579 0.00992113L66.1322 0.0110021L73.0641 10.1532L73.0694 0.0146172L75.1437 0.0156981L75.1366 13.6602L73.0623 13.6591L66.1304 3.5074L66.1251 13.6555L64.0507 13.6544Z"
      fill="#3A41BA"/>
    <path
      d="M78.3568 13.6618L78.3639 0.0173762L82.7767 0.0196758C82.9071 0.0197438 83.1485 0.0230281 83.5007 0.0295289C83.8595 0.0360322 84.202 0.0614779 84.5281 0.105866C85.6304 0.239095 86.5565 0.621749 87.3063 1.25383C88.0626 1.88591 88.633 2.68845 89.0173 3.66145C89.4017 4.62814 89.5935 5.68947 89.5929 6.84546C89.5923 8.00777 89.3994 9.07522 89.014 10.0478C88.6286 11.0141 88.0574 11.8129 87.3004 12.4442C86.55 13.0692 85.6235 13.4477 84.5211 13.5798C84.1949 13.6238 83.8524 13.6489 83.4936 13.655C83.1414 13.6612 82.9 13.6642 82.7696 13.6641L78.3568 13.6618ZM80.4516 11.7773L82.7706 11.7786C82.9923 11.7787 83.2565 11.7725 83.5631 11.76C83.8697 11.7475 84.1404 11.7224 84.3753 11.6846C85.0929 11.5524 85.6736 11.2526 86.1174 10.7854C86.5677 10.3119 86.8974 9.73088 87.1065 9.04245C87.3156 8.35401 87.4204 7.62131 87.4208 6.84433C87.4212 6.04209 87.314 5.2998 87.0991 4.61746C86.8842 3.92881 86.5518 3.3538 86.1019 2.89243C85.6586 2.42475 85.0847 2.12756 84.3803 2.00086C84.1455 1.95651 83.8716 1.9311 83.5585 1.92462C83.2519 1.91183 82.991 1.90538 82.7757 1.90527L80.4568 1.90406L80.4516 11.7773Z"
      fill="#3A41BA"/>
    <path
      d="M92.357 13.6691L92.3641 0.0246719L101.366 0.0293629L101.365 1.896L94.4081 1.89238L94.4061 5.72041L100.189 5.72342L100.188 7.59006L94.4052 7.58705L94.403 11.8036L101.36 11.8072L101.359 13.6738L92.357 13.6691Z"
      fill="#3A41BA"/>
    <path
      d="M104.198 13.6753L104.205 0.0308423L109.9 0.0338098C110.036 0.0338812 110.206 0.0402864 110.408 0.0530254C110.611 0.059448 110.803 0.078499 110.986 0.110179C111.768 0.230607 112.42 0.489939 112.942 0.888175C113.47 1.28641 113.865 1.78881 114.125 2.39537C114.386 3.00193 114.516 3.67158 114.516 4.40434C114.515 5.49085 114.227 6.42875 113.653 7.21807C113.079 8.00106 112.217 8.49017 111.069 8.68539L110.237 8.77971L106.245 8.77763L106.243 13.6764L104.198 13.6753ZM112.436 13.6796L109.66 8.12562L111.725 7.61502L114.775 13.6808L112.436 13.6796ZM106.246 6.90152L109.818 6.90338C109.948 6.90345 110.092 6.89721 110.248 6.88465C110.411 6.87211 110.565 6.85008 110.708 6.81857C111.126 6.72403 111.462 6.55049 111.716 6.29795C111.971 6.03909 112.153 5.74229 112.265 5.40755C112.376 5.07282 112.431 4.73805 112.431 4.40326C112.432 4.06846 112.376 3.7368 112.266 3.40826C112.155 3.07341 111.972 2.77958 111.718 2.52677C111.464 2.26764 111.128 2.0906 110.711 1.99563C110.567 1.95765 110.414 1.9323 110.251 1.91958C110.094 1.90687 109.951 1.90048 109.82 1.90041L106.249 1.89855L106.246 6.90152Z"
      fill="#3A41BA"/>
    <path
      d="M53.5096 37.5173C52.28 37.5166 51.148 37.3107 50.1137 36.8996C49.0794 36.4802 48.1808 35.8721 47.418 35.0751C46.6553 34.2782 46.0622 33.3088 45.6388 32.1672C45.2154 31.0255 45.004 29.7279 45.0048 28.2744C45.0058 26.361 45.367 24.7188 46.0886 23.3478C46.8101 21.9685 47.8112 20.9097 49.0921 20.1713C50.373 19.4247 51.8487 19.0518 53.5192 19.0527C55.6731 19.0538 57.39 19.5392 58.67 20.5089C59.9584 21.4786 60.8354 22.8176 61.3009 24.5259L58.604 24.9926C58.2315 23.933 57.6298 23.0869 56.7991 22.4541C55.9684 21.8214 54.9256 21.5006 53.6706 21.4917C52.3731 21.4828 51.2918 21.7615 50.4266 22.3276C49.5698 22.8938 48.9249 23.69 48.4919 24.7163C48.0589 25.7344 47.8378 26.9209 47.8286 28.2758C47.8194 29.6308 48.0308 30.8175 48.4627 31.8361C48.8947 32.8464 49.543 33.635 50.4077 34.2021C51.2808 34.7692 52.3661 35.0572 53.6635 35.0661C54.7065 35.083 55.6012 34.8987 56.3477 34.5132C57.1026 34.1194 57.7007 33.5449 58.1421 32.7896C58.5834 32.0343 58.868 31.1065 58.9957 30.0062L55.4342 30.0043L55.4353 27.9349L61.8206 27.9382C61.8375 28.0861 61.8501 28.2832 61.8585 28.5295C61.8668 28.7677 61.871 28.9196 61.871 28.9853C61.8701 30.6277 61.5429 32.0933 60.8892 33.3823C60.2356 34.6712 59.2853 35.6849 58.0384 36.4233C56.7915 37.1535 55.2819 37.5182 53.5096 37.5173Z"
      fill="#3A41BA"/>
    <path
      d="M70.8126 37.5263C69.3795 37.5255 68.1119 37.2415 67.0098 36.6743C65.9162 36.0989 65.0601 35.2978 64.4416 34.271C63.8231 33.236 63.5142 32.0205 63.515 30.6244L63.5208 19.4274L66.2174 19.4165L66.2116 30.4903C66.2112 31.2458 66.3423 31.9111 66.6049 32.486C66.8675 33.061 67.2192 33.5416 67.6599 33.9278C68.1007 34.314 68.5923 34.6058 69.135 34.8031C69.686 35.0005 70.2457 35.0993 70.8138 35.0996C71.3905 35.0999 71.9502 35.0017 72.493 34.8049C73.0443 34.5999 73.5405 34.3045 73.9817 33.9188C74.4228 33.533 74.7708 33.0528 75.0255 32.4781C75.2886 31.9034 75.4204 31.2424 75.4208 30.4951L75.4266 19.4213L78.1232 19.4227L78.1174 30.632C78.1166 32.0199 77.8065 33.231 77.1869 34.2653C76.5673 35.2997 75.7062 36.104 74.6035 36.6783C73.5093 37.2444 72.2457 37.527 70.8126 37.5263Z"
      fill="#3A41BA"/>
    <path d="M81.0361 37.1621L81.0454 19.4242L83.7038 19.4256L83.6946 37.1634L81.0361 37.1621Z" fill="#3A41BA"/>
    <path
      d="M86.6239 37.165L86.6332 19.4272L92.3698 19.4301C92.5394 19.4302 92.8532 19.4345 93.3111 19.443C93.7775 19.4514 94.2227 19.4845 94.6466 19.5422C96.0797 19.7154 97.2835 20.2128 98.2583 21.0345C99.2416 21.8563 99.983 22.8996 100.483 24.1645C100.982 25.4211 101.232 26.8009 101.231 28.3037C101.23 29.8147 100.979 31.2024 100.478 32.4667C99.9774 33.7229 99.2348 34.7613 98.2507 35.582C97.2751 36.3945 96.0707 36.8866 94.6375 37.0583C94.2135 37.1155 93.7683 37.1482 93.3019 37.1561C92.844 37.1641 92.5302 37.168 92.3606 37.168L86.6239 37.165ZM89.3473 34.7151L92.3619 34.7167C92.6502 34.7168 92.9936 34.7088 93.3922 34.6926C93.7908 34.6764 94.1427 34.6437 94.448 34.5946C95.3809 34.4226 96.1358 34.033 96.7127 33.4256C97.2982 32.81 97.7268 32.0547 97.9986 31.1597C98.2705 30.2648 98.4066 29.3123 98.4072 28.3022C98.4077 27.2593 98.2683 26.2943 97.9889 25.4073C97.7095 24.512 97.2775 23.7645 96.6927 23.1647C96.1163 22.5567 95.3703 22.1704 94.4546 22.0057C94.1493 21.948 93.7932 21.915 93.3861 21.9066C92.9876 21.89 92.6484 21.8816 92.3686 21.8814L89.354 21.8798L89.3473 34.7151Z"
      fill="#3A41BA"/>
    <path
      d="M103.298 37.1737L103.307 19.4358L115.009 19.4419L115.008 21.8686L105.964 21.8639L105.962 26.8403L113.479 26.8442L113.478 29.2709L105.96 29.2669L105.958 34.7484L115.001 34.7531L115 37.1798L103.298 37.1737Z"
      fill="#3A41BA"/>
    <path d="M14 22H30" stroke="#3A41BA" stroke-linecap="round"/>
    <path d="M8 24V20" stroke="#3A41BA" stroke-linecap="round"/>
    <path d="M8 34V29" stroke="#3A41BA" stroke-linecap="round"/>
    <path d="M10 24V20" stroke="#3A41BA" stroke-linecap="round"/>
    <path
      d="M38.087 18.1006H3.91228C3.37608 18.1006 2.94141 18.5507 2.94141 19.1059V24.7355C2.94141 25.2907 3.37608 25.7407 3.91228 25.7407H38.087C38.6232 25.7407 39.0579 25.2907 39.0579 24.7355V19.1059C39.0579 18.5507 38.6232 18.1006 38.087 18.1006Z"
      stroke="#3A41BA" stroke-width="1.2"/>
    <path
      d="M40.0291 25.7412H1.97087C1.43467 25.7412 1 26.1913 1 26.7465V35.9951C1 36.5503 1.43467 37.0004 1.97087 37.0004H40.0291C40.5653 37.0004 41 36.5503 41 35.9951V26.7465C41 26.1913 40.5653 25.7412 40.0291 25.7412Z"
      stroke="#3A41BA" stroke-width="1.2"/>
    <path
      d="M34.957 34C36.3377 34 37.457 32.8807 37.457 31.5C37.457 30.1193 36.3377 29 34.957 29C33.5763 29 32.457 30.1193 32.457 31.5C32.457 32.8807 33.5763 34 34.957 34Z"
      stroke="#3A41BA"/>
    <path
      d="M4.10742 30.0417C4.10742 29.4664 4.55514 29 5.10742 29H21.1074C21.6597 29 22.1074 29.4664 22.1074 30.0417V32.9583C22.1074 33.5336 21.6597 34 21.1074 34H5.10742C4.55514 34 4.10742 33.5336 4.10742 32.9583V30.0417Z"
      stroke="#3A41BA" stroke-linecap="round"/>
    <path
      d="M16.9121 7.22049C16.958 7.36353 16.9472 7.5196 16.8822 7.65441C16.8172 7.78922 16.7033 7.89178 16.5654 7.93953C16.3969 7.99476 16.2407 8.08399 16.1057 8.20214C15.9706 8.32029 15.8595 8.46498 15.7787 8.62786C15.5745 9.0249 15.4363 9.67795 15.5647 10.744C15.5826 10.8938 15.5423 11.0448 15.4528 11.1639C15.3633 11.283 15.2318 11.3603 15.0874 11.3788C14.9429 11.3974 14.7972 11.3557 14.6824 11.2629C14.5676 11.17 14.493 11.0337 14.4751 10.884C14.3302 9.67454 14.4652 8.76324 14.8109 8.09311C15.162 7.41049 15.6963 7.04072 16.2176 6.86099C16.2859 6.83724 16.3581 6.82775 16.4301 6.83296C16.502 6.8382 16.5722 6.85808 16.6367 6.89147C16.7012 6.92487 16.7587 6.9711 16.806 7.02755C16.8532 7.08404 16.8893 7.14956 16.9121 7.22049ZM22.326 1.11326C22.3963 1.0912 22.4614 1.05476 22.5179 1.0061C22.5742 0.957444 22.6206 0.897557 22.6543 0.829981C22.688 0.762404 22.7083 0.688512 22.7139 0.612675C22.7196 0.536837 22.7105 0.460594 22.6872 0.388456C22.6639 0.316318 22.627 0.249752 22.5784 0.192692C22.5299 0.135632 22.4709 0.0892423 22.4048 0.0562602C22.3387 0.023278 22.2668 0.00437796 22.1936 0.000674557C22.1203 -0.00302885 22.0471 0.00854478 21.9782 0.0347061C20.949 0.389674 20.3081 1.26571 19.9307 2.20431C19.88 2.33119 19.8335 2.45984 19.7913 2.59001C19.5858 2.18627 19.3228 1.81693 19.0112 1.49439C18.5894 1.05615 18.0857 0.711993 17.5309 0.483079C16.9761 0.254161 16.3821 0.145329 15.7852 0.163268C15.1488 0.181471 14.6408 0.709369 14.6232 1.3681C14.6058 1.99517 14.7139 2.61919 14.9407 3.20078C15.1675 3.78234 15.5081 4.30886 15.9411 4.7471C15.0193 4.95414 14.1864 5.46331 13.5655 6.19932C12.9446 6.93533 12.5687 7.85903 12.4934 8.83379L12.4868 8.91797C12.342 10.792 12.7271 12.6692 13.5951 14.3198L13.9901 15.0685C14.0011 15.0878 14.0121 15.1071 14.0252 15.1253L15.1225 16.7204C15.3712 17.0815 15.6927 17.3821 16.0649 17.6013C16.4369 17.8205 16.8506 17.953 17.2772 17.9896C17.7036 18.0262 18.1327 17.966 18.5345 17.8132C18.9363 17.6605 19.3012 17.4188 19.6037 17.1049C19.6502 17.0568 19.7053 17.0185 19.7661 16.9924C19.8268 16.9663 19.8919 16.9529 19.9576 16.9529C20.0233 16.9529 20.0884 16.9663 20.1491 16.9924C20.2098 17.0185 20.265 17.0568 20.3114 17.1049C20.614 17.4188 20.9789 17.6605 21.3807 17.8132C21.7825 17.966 22.2115 18.0262 22.638 17.9896C23.0645 17.953 23.4782 17.8205 23.8503 17.6013C24.2224 17.3821 24.544 17.0815 24.7927 16.7204L25.8899 15.1265C25.9027 15.1079 25.9145 15.0885 25.9251 15.0685L26.319 14.3198C27.187 12.6692 27.5721 10.792 27.4272 8.91797L27.4217 8.83379C27.3732 8.20551 27.1993 7.59455 26.9111 7.03961C26.6229 6.48471 26.2266 5.99787 25.7474 5.61007C25.2683 5.22222 24.7166 4.94181 24.1275 4.78662C23.5383 4.6314 22.9245 4.60478 22.3249 4.70842L20.5068 5.02242C20.5177 4.24766 20.6494 3.37615 20.9446 2.64121C21.2518 1.87326 21.7083 1.32715 22.3249 1.11326H22.326ZM18.5514 4.87455L18.3825 4.84495C17.7381 4.71608 17.146 4.38947 16.6828 3.90749C16.3658 3.57955 16.1168 3.1878 15.9513 2.75638C15.7858 2.32495 15.7073 1.86292 15.7205 1.39882C15.7208 1.37266 15.7309 1.34766 15.7488 1.32916C15.7666 1.31066 15.7907 1.30014 15.8159 1.29984C16.2636 1.28629 16.7093 1.36793 17.1254 1.53973C17.5415 1.71153 17.9193 1.96985 18.2354 2.29875C18.9015 2.98934 19.2229 3.90064 19.1977 4.80742C19.1974 4.83358 19.1873 4.85858 19.1695 4.87708C19.1516 4.89558 19.1275 4.90611 19.1023 4.90638C18.9181 4.91166 18.7339 4.90102 18.5514 4.87455ZM18.1915 5.96558L18.3814 5.9986L19.2361 6.1465C19.7138 6.22904 20.2013 6.22904 20.679 6.1465L22.5049 5.8302C22.9547 5.75242 23.4151 5.77237 23.857 5.8888C24.2989 6.00522 24.7127 6.21556 25.0721 6.5065C25.4316 6.79745 25.7287 7.16262 25.9449 7.57892C26.161 7.99522 26.2914 8.45353 26.3278 8.92479L26.3343 9.00896C26.462 10.6629 26.1219 12.3194 25.3556 13.776L24.9781 14.4928L23.8995 16.0583C23.7435 16.2849 23.5418 16.4737 23.3083 16.6113C23.0748 16.749 22.8152 16.8323 22.5475 16.8553C22.2799 16.8784 22.0106 16.8407 21.7584 16.7449C21.5062 16.6491 21.2771 16.4975 21.0872 16.3006C20.9388 16.1466 20.7627 16.0244 20.5687 15.9411C20.3748 15.8578 20.167 15.8149 19.957 15.8149C19.7471 15.8149 19.5393 15.8578 19.3453 15.9411C19.1514 16.0244 18.9752 16.1466 18.8268 16.3006C18.6369 16.4973 18.4079 16.6487 18.1559 16.7444C17.9038 16.8401 17.6346 16.8777 17.3671 16.8546C17.0996 16.8316 16.8401 16.7484 16.6067 16.6109C16.3733 16.4733 16.1716 16.2848 16.0156 16.0583L14.937 14.4928L14.5596 13.776C13.7933 12.3194 13.4531 10.6629 13.5808 9.00896L13.5874 8.92479C13.6238 8.45364 13.7541 7.99545 13.9702 7.57923C14.1863 7.16304 14.4833 6.79791 14.8426 6.507C15.2019 6.21605 15.6156 6.00568 16.0574 5.88918C16.4992 5.77268 16.9595 5.75261 17.4092 5.8302L18.1915 5.96558Z"
      fill="#3A41BA"/>
  </g>
  <defs>
    <clipPath id="clip0_699_10561">
      <rect width="115" height="38" fill="white"/>
    </clipPath>
  </defs>
</svg>
