<svg width="52" height="52" viewBox="0 0 52 52" fill="none" xmlns="http://www.w3.org/2000/svg">
<path d="M25.9987 4.3335C37.9587 4.3335 47.6654 14.0402 47.6654 26.0002C47.6654 37.9602 37.9587 47.6668 25.9987 47.6668C14.0387 47.6668 4.33203 37.9602 4.33203 26.0002C4.33203 14.0402 14.0387 4.3335 25.9987 4.3335ZM13.0485 33.4015C16.2292 38.1465 21.0045 41.1668 26.3454 41.1668C31.684 41.1668 36.4615 38.1487 39.64 33.4015C36.0341 30.0315 31.2809 28.1599 26.3454 28.1668C21.4091 28.1594 16.655 30.0309 13.0485 33.4015ZM25.9987 23.8335C27.7226 23.8335 29.3759 23.1487 30.5949 21.9297C31.8139 20.7107 32.4987 19.0574 32.4987 17.3335C32.4987 15.6096 31.8139 13.9563 30.5949 12.7373C29.3759 11.5183 27.7226 10.8335 25.9987 10.8335C24.2748 10.8335 22.6215 11.5183 21.4025 12.7373C20.1835 13.9563 19.4987 15.6096 19.4987 17.3335C19.4987 19.0574 20.1835 20.7107 21.4025 21.9297C22.6215 23.1487 24.2748 23.8335 25.9987 23.8335Z" fill="url(#paint0_diamond_1658_5139)"/>
<defs>
<radialGradient id="paint0_diamond_1658_5139" cx="0" cy="0" r="1" gradientUnits="userSpaceOnUse" gradientTransform="translate(6.70935 26.0002) scale(31.2963 163.507)">
<stop offset="0.249421" stop-color="#6E57D5"/>
<stop offset="1" stop-color="#5BC1FF"/>
</radialGradient>
</defs>
</svg>
