<svg width="100" height="100" viewBox="0 0 100 100" fill="none" xmlns="http://www.w3.org/2000/svg">
<g clip-path="url(#clip0_800_15440)">
<path d="M17.1875 84.375H26.5625C27.4266 84.375 28.125 83.6766 28.125 82.8125V75C28.125 74.1359 27.4266 73.4375 26.5625 73.4375H17.1875C16.3234 73.4375 15.625 74.1359 15.625 75V82.8125C15.625 83.6766 16.3234 84.375 17.1875 84.375ZM18.75 76.5625H25V81.25H18.75V76.5625Z" fill="#1F1F29"/>
<path d="M35.9375 84.375H45.3125C46.1766 84.375 46.875 83.6766 46.875 82.8125V75C46.875 74.1359 46.1766 73.4375 45.3125 73.4375H35.9375C35.0734 73.4375 34.375 74.1359 34.375 75V82.8125C34.375 83.6766 35.0734 84.375 35.9375 84.375ZM37.5 76.5625H43.75V81.25H37.5V76.5625Z" fill="#1F1F29"/>
<path d="M54.6875 84.375H64.0625C64.9266 84.375 65.625 83.6766 65.625 82.8125V75C65.625 74.1359 64.9266 73.4375 64.0625 73.4375H54.6875C53.8234 73.4375 53.125 74.1359 53.125 75V82.8125C53.125 83.6766 53.8234 84.375 54.6875 84.375ZM56.25 76.5625H62.5V81.25H56.25V76.5625Z" fill="#1F1F29"/>
<path d="M17.1875 67.1875H26.5625C27.4266 67.1875 28.125 66.4891 28.125 65.625V57.8125C28.125 56.9484 27.4266 56.25 26.5625 56.25H17.1875C16.3234 56.25 15.625 56.9484 15.625 57.8125V65.625C15.625 66.4891 16.3234 67.1875 17.1875 67.1875ZM18.75 59.375H25V64.0625H18.75V59.375Z" fill="#1F1F29"/>
<path d="M35.9375 67.1875H45.3125C46.1766 67.1875 46.875 66.4891 46.875 65.625V57.8125C46.875 56.9484 46.1766 56.25 45.3125 56.25H35.9375C35.0734 56.25 34.375 56.9484 34.375 57.8125V65.625C34.375 66.4891 35.0734 67.1875 35.9375 67.1875ZM37.5 59.375H43.75V64.0625H37.5V59.375Z" fill="#1F1F29"/>
<path d="M54.6875 67.1875H64.0625C64.9266 67.1875 65.625 66.4891 65.625 65.625V57.8125C65.625 56.9484 64.9266 56.25 64.0625 56.25H54.6875C53.8234 56.25 53.125 56.9484 53.125 57.8125V65.625C53.125 66.4891 53.8234 67.1875 54.6875 67.1875ZM56.25 59.375H62.5V64.0625H56.25V59.375Z" fill="#1F1F29"/>
<path d="M73.4375 67.1875H82.8125C83.6766 67.1875 84.375 66.4891 84.375 65.625V57.8125C84.375 56.9484 83.6766 56.25 82.8125 56.25H73.4375C72.5734 56.25 71.875 56.9484 71.875 57.8125V65.625C71.875 66.4891 72.5734 67.1875 73.4375 67.1875ZM75 59.375H81.25V64.0625H75V59.375Z" fill="#1F1F29"/>
<path d="M17.1875 50H26.5625C27.4266 50 28.125 49.3016 28.125 48.4375V40.625C28.125 39.7609 27.4266 39.0625 26.5625 39.0625H17.1875C16.3234 39.0625 15.625 39.7609 15.625 40.625V48.4375C15.625 49.3016 16.3234 50 17.1875 50ZM18.75 42.1875H25V46.875H18.75V42.1875Z" fill="#1F1F29"/>
<path d="M35.9375 50H45.3125C46.1766 50 46.875 49.3016 46.875 48.4375V40.625C46.875 39.7609 46.1766 39.0625 45.3125 39.0625H35.9375C35.0734 39.0625 34.375 39.7609 34.375 40.625V48.4375C34.375 49.3016 35.0734 50 35.9375 50ZM37.5 42.1875H43.75V46.875H37.5V42.1875Z" fill="#1F1F29"/>
<path d="M54.6875 50H64.0625C64.9266 50 65.625 49.3016 65.625 48.4375V40.625C65.625 39.7609 64.9266 39.0625 64.0625 39.0625H54.6875C53.8234 39.0625 53.125 39.7609 53.125 40.625V48.4375C53.125 49.3016 53.8234 50 54.6875 50ZM56.25 42.1875H62.5V46.875H56.25V42.1875Z" fill="#1F1F29"/>
<path d="M73.4375 50H82.8125C83.6766 50 84.375 49.3016 84.375 48.4375V40.625C84.375 39.7609 83.6766 39.0625 82.8125 39.0625H73.4375C72.5734 39.0625 71.875 39.7609 71.875 40.625V48.4375C71.875 49.3016 72.5734 50 73.4375 50ZM75 42.1875H81.25V46.875H75V42.1875Z" fill="#1F1F29"/>
<path d="M93.75 6.25H82.8125V4.6875C82.8125 2.09844 80.7141 0 78.125 0C75.5359 0 73.4375 2.09844 73.4375 4.6875V6.25H26.5625V4.6875C26.5625 2.09844 24.4641 0 21.875 0C19.2859 0 17.1875 2.09844 17.1875 4.6875V6.25H6.25C2.79531 6.25 0 9.04531 0 12.5V93.75C0 97.2047 2.79531 100 6.25 100H93.75C97.2047 100 100 97.2047 100 93.75V12.5C100 9.04531 97.2047 6.25 93.75 6.25ZM76.5625 4.6875C76.5625 3.82344 77.2609 3.125 78.125 3.125C78.9891 3.125 79.6875 3.82344 79.6875 4.6875V9.375V15.625C79.6875 16.4891 78.9891 17.1875 78.125 17.1875C77.2609 17.1875 76.5625 16.4891 76.5625 15.625V9.375V4.6875ZM20.3125 4.6875C20.3125 3.82344 21.0109 3.125 21.875 3.125C22.7391 3.125 23.4375 3.82344 23.4375 4.6875V9.375V15.625C23.4375 16.4891 22.7391 17.1875 21.875 17.1875C21.0109 17.1875 20.3125 16.4891 20.3125 15.625V9.375V4.6875ZM96.875 93.75C96.875 95.475 95.475 96.875 93.75 96.875H6.25C4.525 96.875 3.125 95.475 3.125 93.75V26.5625H96.875V93.75ZM96.875 23.4375H3.125V12.5C3.125 10.775 4.525 9.375 6.25 9.375H17.1875V15.625C17.1875 18.2141 19.2859 20.3125 21.875 20.3125C24.4641 20.3125 26.5625 18.2141 26.5625 15.625V9.375H73.4375V15.625C73.4375 18.2141 75.5359 20.3125 78.125 20.3125C80.7141 20.3125 82.8125 18.2141 82.8125 15.625V9.375H93.75C95.475 9.375 96.875 10.775 96.875 12.5V23.4375Z" fill="#1F1F29"/>
</g>
<defs>
<clipPath id="clip0_800_15440">
<rect width="100" height="100" fill="white"/>
</clipPath>
</defs>
</svg>
