<svg width="60" height="60" viewBox="0 0 60 60" fill="none" xmlns="http://www.w3.org/2000/svg">
<path id="Vector" d="M29.3477 1.23691C29.0287 1.98862 28.6565 2.97523 28.4439 3.49202C28.178 4.24373 26.1046 21.8148 26.0514 23.6471C26.0514 24.3518 24.5096 22.9424 16.8005 15.2844C7.70909 6.16998 6.91159 5.41827 6.53943 5.74714C5.52928 6.68678 7.65592 10.3513 14.6207 19.6067L22.3298 29.8017L20.8411 30.0836C20.0436 30.2715 15.5777 30.7883 10.8991 31.2581C1.64815 32.1508 0 32.4797 0 33.5132C0 34.5938 1.27599 34.7348 11.0586 34.7348H20.469L14.8333 39.7618C7.33692 46.5271 6.16727 47.8426 6.96476 48.6413C7.81542 49.5809 9.19774 48.8292 17.8106 42.5337C21.9044 39.5739 25.5197 37.1308 25.8387 37.0838C26.2109 37.0838 26.5831 38.5403 26.7957 40.6544C27.3274 45.7754 29.6667 58.1316 30.3578 59.2122C31.1022 60.4807 32.644 60.1518 32.8567 58.6954C32.963 58.0376 33.3352 57.2389 33.6541 56.8631C34.0795 56.3933 34.2921 53.6683 34.239 48.5004L34.1858 40.7954L37.1631 43.3324C38.8113 44.7418 42.0012 47.2788 44.2874 49.0172C48.4343 52.1649 50.3483 52.7757 50.1356 50.9434C49.7635 47.3728 47.9558 44.8828 40.8316 37.9765C37.4821 34.6878 36.8441 33.8421 37.5884 33.6072C38.0669 33.4193 43.0114 32.7146 48.5938 32.0568C58.7486 30.8353 60.9815 30.1776 59.6524 29.003C59.1739 28.5802 55.6649 28.3453 47.4242 28.1573L35.8871 27.9224L38.8113 25.1035C40.4062 23.5532 43.8089 20.3584 46.3608 18.0093C48.966 15.6603 51.0395 13.4521 51.0395 13.1702C51.0395 11.9487 49.285 12.1366 46.6267 13.687C45.0849 14.5797 41.3632 17.1637 38.2796 19.4188L32.6972 23.4592L32.325 22.0028C32.1655 21.1571 31.8465 16.271 31.6338 11.0561C31.4212 5.84111 31.1553 1.23691 31.049 0.767097C30.6237 -0.40744 29.9857 -0.219517 29.3477 1.23691Z" fill="#FF7A2C" fill-opacity="0.9"/>
</svg>
