<svg width="50" height="50" viewBox="0 0 50 50" fill="none" xmlns="http://www.w3.org/2000/svg">
<path d="M46.01 5.40969C45.8216 5.24694 45.5923 5.13873 45.3469 5.09673C45.1014 5.05474 44.8492 5.08056 44.6174 5.17141L5.03537 20.6616C4.55392 20.85 4.14659 21.1895 3.87455 21.6291C3.60251 22.0688 3.48043 22.5848 3.52666 23.0997C3.57289 23.6146 3.78493 24.1006 4.13093 24.4848C4.47693 24.8689 4.93822 25.1304 5.44552 25.23L16.0158 27.3062V39.062C16.0161 39.607 16.1791 40.1395 16.4841 40.5912C16.7891 41.0429 17.2222 41.3931 17.7276 41.5969C18.2331 41.8007 18.7879 41.8488 19.3209 41.7351C19.8539 41.6213 20.3407 41.3509 20.719 40.9585L25.9221 35.562L34.0432 42.6812C34.539 43.1199 35.178 43.3623 35.8401 43.3628C36.1292 43.3622 36.4164 43.3167 36.6916 43.2281C37.1428 43.0853 37.5486 42.8268 37.8687 42.4782C38.1888 42.1297 38.4119 41.7034 38.5158 41.2417L46.4494 6.75149C46.5052 6.50902 46.4938 6.25592 46.4163 6.01947C46.3389 5.78303 46.1984 5.57219 46.01 5.40969ZM5.86935 22.9234C5.86187 22.9032 5.86187 22.881 5.86935 22.8609C5.87817 22.8541 5.88808 22.8488 5.89865 22.8452L37.092 10.6343L16.9162 25.0874L5.89865 22.9312L5.86935 22.9234ZM19.0315 39.3296C18.9776 39.3855 18.9084 39.424 18.8326 39.4404C18.7567 39.4567 18.6777 39.4502 18.6057 39.4215C18.5336 39.3928 18.4717 39.3432 18.4279 39.2792C18.3841 39.2152 18.3603 39.1396 18.3596 39.062V28.9273L24.1584 34.0054L19.0315 39.3296ZM36.2326 40.7124C36.2182 40.7785 36.1863 40.8394 36.1403 40.8889C36.0942 40.9384 36.0357 40.9746 35.9709 40.9937C35.9048 41.0169 35.8336 41.0219 35.7649 41.0082C35.6962 40.9944 35.6324 40.9624 35.5803 40.9156L19.0705 26.4331L43.5549 8.88626L36.2326 40.7124Z" fill="black"/>
</svg>
