<svg width="40" height="40" viewBox="0 0 40 40" fill="none" xmlns="http://www.w3.org/2000/svg">
  <circle cx="20" cy="20" r="20" fill="#FA985F"/>
  <path
    d="M31.7921 9.14578C31.7091 9.07436 31.608 9.0269 31.4998 9.00853C31.3916 8.99016 31.2804 9.00159 31.1783 9.04158L6.785 18.5409C6.53633 18.637 6.32577 18.8108 6.18507 19.0363C6.04436 19.2619 5.98112 19.5268 6.0049 19.7911C6.02867 20.0555 6.13815 20.305 6.31685 20.5021C6.49555 20.6992 6.73378 20.8331 6.99564 20.8837L13.7048 22.194V29.6009C13.7048 29.8875 13.7908 30.1675 13.9519 30.405C14.1129 30.6426 14.3417 30.8268 14.6088 30.934C14.7806 31.0026 14.964 31.038 15.1492 31.0382C15.343 31.0378 15.5347 30.9985 15.713 30.9228C15.8913 30.8471 16.0524 30.7364 16.1867 30.5974L19.557 27.124L24.7327 31.6407C24.9951 31.8709 25.3325 31.9986 25.6824 32C25.8352 31.9994 25.987 31.9756 26.1325 31.9293C26.3708 31.8543 26.5852 31.7183 26.7541 31.535C26.9231 31.3518 27.0408 31.1276 27.0955 30.8849L31.9847 9.73268C32.0092 9.62667 32.0042 9.51603 31.9703 9.41263C31.9363 9.30923 31.8748 9.21698 31.7921 9.14578ZM6.96434 19.7051C6.95728 19.6472 6.9704 19.5886 7.0015 19.5391C7.03261 19.4896 7.07982 19.4523 7.13526 19.4332L28.1571 11.2466L14.0743 21.2897L7.1822 19.9435C7.12379 19.935 7.07014 19.9065 7.03042 19.8631C6.99069 19.8196 6.96734 19.7638 6.96434 19.7051ZM15.4946 29.9315C15.4281 29.9997 15.3426 30.0467 15.2491 30.0664C15.1556 30.0862 15.0584 30.0778 14.9697 30.0423C14.881 30.0069 14.805 29.946 14.7512 29.8674C14.6974 29.7888 14.6684 29.696 14.6677 29.6009V22.8576L18.83 26.4868L15.4946 29.9315ZM26.1566 30.6669C26.138 30.7482 26.0984 30.8233 26.0416 30.8847C25.9849 30.9461 25.913 30.9918 25.8331 31.017C25.7532 31.0423 25.6681 31.0464 25.5861 31.0289C25.5042 31.0114 25.4282 30.9729 25.3658 30.9172L14.9602 21.8371L30.8123 10.5328L26.1566 30.6669Z"
    fill="white"/>
</svg>
