<svg width="40" height="40" viewBox="0 0 40 40" fill="none" xmlns="http://www.w3.org/2000/svg">
  <circle cx="20" cy="20" r="20" fill="#FA985F"/>
  <path
    d="M27.7275 22.6546L23.7272 20.5746C23.6485 20.5338 23.5608 20.5153 23.473 20.521C23.3852 20.5267 23.3004 20.5564 23.2272 20.6071L21.1471 22.0501C20.0036 21.4798 19.0815 20.5209 18.5331 19.3318L19.9207 17.1686C19.9694 17.0924 19.998 17.0043 20.0035 16.913C20.009 16.8217 19.9912 16.7305 19.952 16.6486L17.9518 12.4886C17.9103 12.4018 17.8463 12.3287 17.767 12.2777C17.6877 12.2267 17.5963 12.1998 17.503 12.2C16.3095 12.2 15.1648 12.6931 14.3208 13.5707C13.4768 14.4484 13.0027 15.6388 13.0027 16.88C13.0057 19.7752 14.113 22.551 16.0816 24.5982C18.0502 26.6454 20.7194 27.7969 23.5035 27.8C24.697 27.8 25.8417 27.3069 26.6857 26.4293C27.5297 25.5516 28.0038 24.3612 28.0038 23.12C28.0039 23.0234 27.9781 22.9287 27.9293 22.8465C27.8805 22.7643 27.8106 22.6978 27.7275 22.6546ZM23.5035 26.76C20.9845 26.7572 18.5695 25.7154 16.7884 23.8632C15.0072 22.0109 14.0054 19.4995 14.0028 16.88C14.0026 15.969 14.331 15.091 14.923 14.4195C15.5151 13.748 16.3277 13.3317 17.2005 13.253L18.9256 16.8423L17.5505 18.9925C17.5047 19.0634 17.4764 19.145 17.4681 19.2301C17.4598 19.3151 17.4718 19.4009 17.503 19.48C18.1674 21.1225 19.4239 22.4291 21.0033 23.12C21.0794 23.1529 21.1621 23.1657 21.2441 23.1573C21.3261 23.1489 21.4049 23.1196 21.4733 23.0719L23.541 21.6419L26.9925 23.4359C26.9165 24.3435 26.5159 25.1885 25.8699 25.8039C25.224 26.4194 24.3796 26.7605 23.5035 26.76ZM20.5033 7C18.327 6.99958 16.1882 7.59 14.2987 8.71287C12.4091 9.83573 10.8342 11.4521 9.72966 13.4022C8.62514 15.3522 8.02928 17.5684 8.00105 19.8314C7.97282 22.0944 8.51318 24.3258 9.56869 26.305L8.08108 30.9447C7.99293 31.2196 7.98014 31.5145 8.04414 31.7965C8.10813 32.0785 8.24639 32.3364 8.4434 32.5413C8.64042 32.7462 8.88842 32.89 9.15959 32.9565C9.43077 33.0231 9.71441 33.0098 9.97872 32.9181L14.4403 31.3711C16.1092 32.3328 17.9677 32.8844 19.8733 32.9837C21.779 33.083 23.6812 32.7274 25.4342 31.9441C27.1872 31.1608 28.7446 29.9705 29.9869 28.4646C31.2293 26.9586 32.1237 25.1769 32.6015 23.256C33.0794 21.3351 33.1281 19.3259 32.7439 17.3823C32.3597 15.4388 31.5528 13.6125 30.385 12.0433C29.2172 10.4742 27.7195 9.20388 26.0067 8.3297C24.2938 7.45551 22.4113 7.00067 20.5033 7ZM20.5033 31.96C18.4812 31.9606 16.4947 31.4069 14.7441 30.3545C14.668 30.309 14.5818 30.2848 14.4941 30.2843C14.4401 30.2843 14.3864 30.2935 14.3353 30.3116L9.66245 31.9314C9.57434 31.962 9.4798 31.9664 9.3894 31.9442C9.29901 31.922 9.21635 31.8741 9.15068 31.8058C9.085 31.7375 9.03892 31.6515 9.01759 31.5575C8.99625 31.4635 9.00052 31.3652 9.0299 31.2736L10.5875 26.4142C10.61 26.3443 10.6179 26.2703 10.6108 26.197C10.6037 26.1238 10.5817 26.0529 10.5463 25.9891C9.2783 23.7099 8.76907 21.0592 9.09759 18.4483C9.42611 15.8374 10.574 13.4122 12.3632 11.5489C14.1524 9.68571 16.4829 8.48858 18.9931 8.14328C21.5033 7.79798 24.0529 8.32381 26.2464 9.63919C28.4399 10.9546 30.1547 12.986 31.1247 15.4183C32.0947 17.8505 32.2658 20.5477 31.6113 23.0914C30.9568 25.6351 29.5134 27.8831 27.5049 29.4866C25.4965 31.0901 23.0353 31.9595 20.5033 31.96Z"
    fill="white"/>
</svg>
