<svg width="40" height="40" viewBox="0 0 40 40" fill="none" xmlns="http://www.w3.org/2000/svg">
<path d="M31.4607 23.6387L25.2107 20.5137C25.0261 20.4219 24.8206 20.3804 24.6148 20.3934C24.4091 20.4064 24.2104 20.4735 24.0389 20.5879L20.9764 22.6289C19.426 21.8352 18.1646 20.5738 17.3709 19.0234L19.4139 15.9629C19.5282 15.7914 19.5953 15.5927 19.6083 15.3869C19.6214 15.1812 19.5799 14.9756 19.4881 14.791L16.3631 8.54102C16.2659 8.34548 16.116 8.18097 15.9304 8.06606C15.7447 7.95114 15.5306 7.89038 15.3123 7.89063C13.3439 7.89063 11.4561 8.67257 10.0642 10.0644C8.67236 11.4563 7.89041 13.3441 7.89041 15.3125C7.89558 19.7657 9.66691 24.0351 12.8158 27.184C15.9647 30.3329 20.2341 32.1042 24.6873 32.1094C26.6557 32.1094 28.5435 31.3274 29.9354 29.9356C31.3272 28.5437 32.1092 26.6559 32.1092 24.6875C32.1092 24.4697 32.0486 24.2562 31.9341 24.0709C31.8195 23.8856 31.6556 23.736 31.4607 23.6387ZM24.6873 29.7656C20.8555 29.761 17.182 28.2367 14.4725 25.5273C11.763 22.8178 10.2388 19.1443 10.2342 15.3125C10.2343 14.0869 10.6776 12.9027 11.4824 11.9784C12.2872 11.054 13.3991 10.452 14.6131 10.2832L17.0857 15.2285L15.0564 18.2715C14.9498 18.432 14.8844 18.6163 14.866 18.8081C14.8476 18.9999 14.8768 19.1933 14.951 19.3711C16.0286 21.9331 18.0667 23.9712 20.6287 25.0488C20.8065 25.123 20.9999 25.1522 21.1917 25.1338C21.3835 25.1154 21.5678 25.05 21.7283 24.9434L24.7713 22.9141L29.7166 25.3867C29.5478 26.6006 28.9458 27.7126 28.0214 28.5174C27.0971 29.3222 25.9129 29.7655 24.6873 29.7656ZM19.9998 0.0781254C16.5462 0.0774004 13.1518 0.974468 10.1496 2.68132C7.14731 4.38817 4.64032 6.84617 2.87456 9.81418C1.10881 12.7822 0.144942 16.1582 0.0775273 19.6111C0.0101126 23.064 0.841465 26.4751 2.49002 29.5098L0.220492 36.3203C0.0598208 36.8021 0.0365038 37.3191 0.153154 37.8134C0.269804 38.3077 0.521812 38.7597 0.880931 39.1189C1.24005 39.478 1.69209 39.73 2.18638 39.8466C2.68068 39.9633 3.19769 39.94 3.67948 39.7793L10.49 37.5098C13.156 38.9565 16.1172 39.7754 19.1477 39.904C22.1782 40.0325 25.198 39.4674 27.977 38.2516C30.7559 37.0359 33.2206 35.2016 35.183 32.8887C37.1453 30.5758 38.5537 27.8453 39.3006 24.9055C40.0475 21.9656 40.1132 18.894 39.4927 15.9249C38.8723 12.9558 37.582 10.1676 35.7203 7.77285C33.8587 5.37811 31.4748 3.4401 28.7504 2.1066C26.026 0.77309 23.033 0.0792986 19.9998 0.0781254ZM19.9998 37.5781C16.9098 37.5789 13.8742 36.7651 11.199 35.2188C11.0207 35.1162 10.8188 35.0617 10.6131 35.0605C10.487 35.0613 10.3618 35.0817 10.242 35.1211L2.93924 37.5547C2.87042 37.5776 2.79656 37.581 2.72594 37.5643C2.65533 37.5476 2.59075 37.5116 2.53945 37.4603C2.48815 37.409 2.45215 37.3445 2.43548 37.2738C2.41882 37.2032 2.42215 37.1294 2.4451 37.0605L4.8787 29.7656C4.93135 29.608 4.94987 29.441 4.93304 29.2756C4.9162 29.1103 4.86439 28.9504 4.78104 28.8066C2.84209 25.4572 2.06271 21.5615 2.56383 17.7239C3.06496 13.8863 4.81856 10.3214 7.55258 7.58219C10.2866 4.84297 13.8482 3.08261 17.6848 2.57421C21.5215 2.0658 25.4186 2.83778 28.7717 4.77037C32.1248 6.70297 34.7464 9.68814 36.2297 13.2628C37.7131 16.8374 37.9753 20.8016 36.9756 24.5404C35.9759 28.2793 33.7703 31.5837 30.7009 33.941C27.6315 36.2984 23.87 37.5768 19.9998 37.5781Z" fill="black"/>
</svg>
