<svg width="64" height="64" viewBox="0 0 64 64" fill="none" xmlns="http://www.w3.org/2000/svg">
<path fill-rule="evenodd" clip-rule="evenodd" d="M22.1619 9.28399C14.5159 10.7276 10.586 16.4488 10.586 26.2602C10.5593 36.3123 20.6915 42.4879 31.1178 38.7718L33.0427 38.0768C34.6201 39.7343 34.8874 39.7343 33.2032 40.7502C31.8665 41.5522 32.0001 42.381 32.8555 42.7018C34.0051 43.1295 40.9829 49.8398 41.9186 51.4706C45.3673 57.4858 53.9757 55.3738 53.3875 50.6686C53.1202 48.5298 51.4893 46.0436 49.5644 44.2791C47.4257 42.3008 46.2227 40.6967 44.6454 37.7025C43.1215 34.7884 41.7582 34.1468 39.7798 35.3499C38.9243 35.8578 38.8441 35.8846 38.3896 35.4568C37.4539 34.628 37.5074 34.0666 38.6569 32.3289C43.0413 25.5919 43.2819 19.7103 39.4054 15.0318C34.0051 8.50869 29.3802 10.8613 32.5348 12.8931C40.2075 17.8122 39.8066 27.8108 31.6259 35.3499C27.0811 39.5471 17.938 37.3015 15.5853 31.4199C11.8693 22.0629 17.9913 9.71173 27.9097 11.6901C31.3317 12.5723 32.6951 7.30565 22.1619 9.28399ZM21.0925 15.9408C19.9429 16.9032 20.6915 17.732 22.8302 16.2616C24.3273 15.2457 25.0493 15.0586 26.4127 15.3794C28.2039 15.7804 29.2999 15.3259 28.7385 14.417C28.5514 14.0961 24.6214 12.9733 21.0925 15.9408ZM31.8129 15.5933C30.3693 15.5131 29.995 16.3151 30.9842 17.3577C32.2139 18.6677 34.6736 18.8816 34.5399 17.6785C34.4597 16.8498 32.909 15.6467 31.8129 15.5933ZM41.1165 37.9966C41.3304 38.8788 43.4424 41.9799 44.5652 43.1295C45.9287 44.493 46.5168 45.4019 48.2812 47.3268C51.8636 51.2567 47.5861 55.1599 44.2176 50.2408C39.9669 44.0385 36.0102 42.0869 36.0637 41.3651C36.1439 40.4561 40.9294 37.248 41.1165 37.9966Z" fill="#FF7A2C"/>
</svg>
