<svg width="90" height="90" viewBox="0 0 90 90" fill="none" xmlns="http://www.w3.org/2000/svg">
<path fill-rule="evenodd" clip-rule="evenodd" d="M57.6543 20.873C50.787 17.1916 41.928 16.9372 35.3165 24.7761C30.3995 30.6339 30.4116 30.712 37.1946 33.8464C42.9209 36.4836 42.4521 36.5559 45.2281 32.7681C47.5911 29.5439 49.8314 28.3786 53.2143 28.9171C60.703 30.1427 59.2723 40.323 57.5869 42.6228C55.7362 45.148 52.9575 45.1563 46.0695 42.6381C40.4334 40.5869 37.5408 41.4128 33.8408 46.083C32.7547 47.4704 31.7707 48.4821 31.4807 48.5468C30.1538 48.8913 32.0104 51.465 34.7685 53.1398C43.0593 58.1417 42.8971 58.1267 44.6168 54.8817C45.6847 52.8572 46.0634 52.7188 48.3253 53.5101C53.7809 55.4291 58.2125 54.726 62.8701 51.2082C74.9364 42.1685 72.6604 28.9597 57.6543 20.873ZM63.9453 27.5631C68.473 32.025 68.3993 42.0562 63.769 46.5298C59.4872 50.6697 54.7852 51.6944 48.2626 49.8599C45.105 48.9666 43.4566 49.5607 41.4181 52.2948L40.2945 53.828C37.3455 52.0826 37.1651 51.9504 35.1631 50.899C40.3534 44.4791 40.3983 43.4723 50.7429 46.6177C57.228 48.598 61.5114 45.1178 61.8203 37.6504C62.3143 25.6745 44.5485 20.8331 40.5272 31.8527C40.3259 32.3637 40.1127 32.7966 40.0345 32.8086C39.9173 32.8267 36.507 31.3323 36.2815 31.1671C36.259 31.1506 38.1337 28.2617 38.6924 27.2156C43.4627 18.2005 55.7498 19.5465 63.9453 27.5631ZM31.1036 54.4047C25.6903 53.2792 21.8971 58.1237 24.8017 62.4359C30.5884 71.0437 41.1337 71.5982 40.41 63.27C40.2259 60.7784 34.18 55.0305 31.1036 54.4047ZM35.8841 59.9877C37.4896 61.5802 38.0103 64.1799 37.0188 65.5327C35.1846 68.0353 28.1431 64.7808 27.4373 61.1097C27.0986 59.302 30.1915 54.3253 35.8841 59.9877Z" fill="#FEFEFE"/>
</svg>
