<svg width="64" height="64" viewBox="0 0 64 64" fill="none" xmlns="http://www.w3.org/2000/svg">
<path d="M31.3042 1.31937C30.9639 2.12119 30.567 3.17357 30.3401 3.72482C30.0566 4.52664 27.8449 23.2692 27.7882 25.2236C27.7882 25.9753 26.1436 24.4719 17.9205 16.3034C8.22303 6.58131 7.37237 5.77949 6.97539 6.13028C5.89789 7.13256 8.16632 11.0414 15.5954 20.9138L23.8184 31.7885L22.2305 32.0892C21.3799 32.2896 16.6162 32.8409 11.6257 33.342C1.75803 34.2942 0 34.645 0 35.7475C0 36.9001 1.36105 37.0504 11.7958 37.0504H21.8336L15.8222 42.4126C7.82605 49.6289 6.57842 51.0321 7.42908 51.8841C8.33645 52.8863 9.81092 52.0845 18.998 45.3693C23.3647 42.2121 27.2211 39.6062 27.5613 39.5561C27.9583 39.5561 28.3553 41.1096 28.5821 43.3647C29.1492 48.8271 31.6445 62.007 32.3817 63.1596C33.1757 64.5127 34.8203 64.1619 35.0471 62.6084C35.1605 61.9068 35.5575 61.0549 35.8978 60.654C36.3514 60.1528 36.5783 57.2462 36.5216 51.7337L36.4649 43.5151L39.6407 46.2212C41.3987 47.7246 44.8013 50.4308 47.2399 52.285C51.6633 55.6426 53.7049 56.2941 53.478 54.3396C53.081 50.531 51.1529 47.875 43.5537 40.5083C39.9809 37.0003 39.3004 36.0983 40.0943 35.8477C40.6047 35.6472 45.8788 34.8955 51.8334 34.1939C62.6651 32.891 65.047 32.1894 63.6292 30.9366C63.1188 30.4855 59.3759 30.235 50.5858 30.0345L38.2796 29.7839L41.3987 26.7771C43.1 25.1234 46.7295 21.7156 49.4516 19.21C52.2304 16.7043 54.4421 14.3489 54.4421 14.0482C54.4421 12.7453 52.5707 12.9457 49.7351 14.5995C48.0905 15.5517 44.1208 18.3079 40.8316 20.7134L34.877 25.0231L34.48 23.4696C34.3099 22.5676 33.9696 17.3557 33.7428 11.7931C33.5159 6.23051 33.2324 1.31937 33.1189 0.818237C32.6653 -0.434601 31.9847 -0.234154 31.3042 1.31937Z" fill="#FF6003"/>
</svg>
