<svg width="18" height="16" viewBox="0 0 18 16" fill="none" xmlns="http://www.w3.org/2000/svg">
<path d="M8.56136 2.74282L9 3.54458L9.43864 2.74282C9.80555 2.07219 10.3405 1.5121 10.9888 1.11856C11.6329 0.727637 12.3664 0.514632 13.1163 0.500199C14.3227 0.557199 15.4598 1.09286 16.2805 1.9934C17.1048 2.89785 17.5427 4.09676 17.4967 5.32834L17.4964 5.33766V5.34698C17.4964 6.90858 16.6773 8.60436 15.4267 10.2663C14.1847 11.9167 12.5661 13.4695 11.0755 14.7344L11.0752 14.7347C10.4932 15.2295 9.75834 15.5 9 15.5C8.24166 15.5 7.50679 15.2295 6.92482 14.7347L6.92448 14.7344C5.43386 13.4695 3.81528 11.9167 2.57333 10.2663C1.32271 8.60436 0.503629 6.90858 0.503629 5.34698V5.33766L0.503282 5.32834C0.457345 4.09676 0.895191 2.89785 1.71948 1.9934C2.54019 1.09286 3.67732 0.557199 4.88369 0.500199C5.63361 0.514632 6.36715 0.727637 7.01118 1.11856C7.65953 1.5121 8.19445 2.07219 8.56136 2.74282Z" stroke="#ECF0FF"/>
</svg>
