<svg class="icon" width="24" height="24" viewBox="0 0 24 24" fill="none" xmlns="http://www.w3.org/2000/svg">
<g id="Ic / Heart">
<path id="Vector" d="M13.1797 20.0374L13.2773 19.9479L20.1211 13.6227C21.3203 12.5147 22 10.9596 22 9.33068V9.20239C22 6.46546 20.0469 4.1173 17.3438 3.60413C15.8047 3.30866 14.2305 3.66244 12.9766 4.54106C12.625 4.78987 12.2969 5.07756 12 5.40801C11.8359 5.2214 11.6602 5.05034 11.4727 4.89095C11.3281 4.76654 11.1797 4.64991 11.0234 4.54106C9.76953 3.66244 8.19531 3.30866 6.65625 3.60024C3.95312 4.11341 2 6.46546 2 9.20239V9.33068C2 10.9596 2.67969 12.5147 3.87891 13.6227L10.7227 19.9479L10.8203 20.0374C11.1406 20.3328 11.5625 20.5 12 20.5C12.4375 20.5 12.8594 20.3367 13.1797 20.0374ZM12.6602 7.47237C12.6758 7.46071 12.6875 7.44516 12.6992 7.42961L13.3945 6.65207L13.3984 6.64818C14.3008 5.64127 15.6641 5.18252 16.9922 5.43522C18.8125 5.78123 20.125 7.35963 20.125 9.20239V9.33068C20.125 10.4387 19.6602 11.5 18.8438 12.2542L12 18.5795L5.15625 12.2542C4.75228 11.8807 4.43001 11.4283 4.20956 10.9253C3.98911 10.4223 3.87522 9.87946 3.875 9.33068V9.20239C3.875 7.36352 5.1875 5.78123 7.00391 5.43522C8.33203 5.18252 9.69922 5.64516 10.5977 6.64818L10.6016 6.65207L10.6055 6.65596L11.3008 7.43349C11.3125 7.44904 11.3281 7.46071 11.3398 7.47626C11.5156 7.6512 11.7539 7.7484 12 7.7484C12.2461 7.7484 12.4844 7.6512 12.6602 7.47626V7.47237Z" fill="#000"/>
</g>
</svg>
