<svg width="23" height="22" viewBox="0 0 23 22" fill="none" xmlns="http://www.w3.org/2000/svg">
<path d="M17.2493 5.50081C17.0696 5.32896 16.8259 5.23242 16.5718 5.23242C16.3177 5.23242 16.074 5.32896 15.8943 5.50081L11.4993 9.70464L7.10442 5.50081C6.92471 5.32896 6.68099 5.23242 6.42688 5.23242C6.17276 5.23242 5.92905 5.32896 5.74934 5.50081C5.56968 5.67271 5.46875 5.90583 5.46875 6.14889C5.46875 6.39196 5.56968 6.62508 5.74934 6.79698L10.1443 11.0008L5.74934 15.2046C5.56968 15.3765 5.46875 15.6097 5.46875 15.8527C5.46875 16.0958 5.56968 16.3289 5.74934 16.5008C5.92905 16.6727 6.17276 16.7692 6.42688 16.7692C6.68099 16.7692 6.92471 16.6727 7.10442 16.5008L11.4993 12.297L15.8943 16.5008C16.074 16.6727 16.3177 16.7692 16.5718 16.7692C16.8259 16.7692 17.0696 16.6727 17.2493 16.5008C17.429 16.3289 17.5299 16.0958 17.5299 15.8527C17.5299 15.6097 17.429 15.3765 17.2493 15.2046L12.8544 11.0008L17.2493 6.79698C17.429 6.62508 17.5299 6.39196 17.5299 6.14889C17.5299 5.90583 17.429 5.67271 17.2493 5.50081Z" fill="#2E2360"/>
</svg>
