<svg width="28" height="28" viewBox="0 0 28 28" fill="none" xmlns="http://www.w3.org/2000/svg">
<g clip-path="url(#clip0_3409_49839)">
<path d="M8.16667 25.6667H5.83333C4.90508 25.6667 4.01484 25.2979 3.35846 24.6415C2.70208 23.9852 2.33333 23.0949 2.33333 22.1667V5.83333C2.33333 4.90508 2.70208 4.01484 3.35846 3.35846C4.01484 2.70208 4.90508 2.33333 5.83333 2.33333H8.16667C8.47609 2.33333 8.77283 2.21042 8.99162 1.99162C9.21042 1.77283 9.33333 1.47609 9.33333 1.16667C9.33333 0.857247 9.21042 0.560501 8.99162 0.341709C8.77283 0.122916 8.47609 0 8.16667 0L5.83333 0C4.28681 0.0018525 2.80415 0.617029 1.71059 1.71059C0.617029 2.80415 0.0018525 4.28681 0 5.83333L0 22.1667C0.0018525 23.7132 0.617029 25.1959 1.71059 26.2894C2.80415 27.383 4.28681 27.9981 5.83333 28H8.16667C8.47609 28 8.77283 27.8771 8.99162 27.6583C9.21042 27.4395 9.33333 27.1428 9.33333 26.8333C9.33333 26.5239 9.21042 26.2272 8.99162 26.0084C8.77283 25.7896 8.47609 25.6667 8.16667 25.6667Z" fill="#2E2360"/>
<path d="M26.8336 12.8337L8.42707 12.871C8.52939 12.6809 8.65737 12.5059 8.8074 12.3507L13.3329 7.82517C13.4443 7.71755 13.5332 7.58882 13.5944 7.44648C13.6555 7.30414 13.6877 7.15105 13.689 6.99614C13.6904 6.84123 13.6609 6.6876 13.6022 6.54423C13.5435 6.40085 13.4569 6.27059 13.3474 6.16104C13.2378 6.0515 13.1076 5.96487 12.9642 5.90621C12.8208 5.84755 12.6672 5.81803 12.5123 5.81938C12.3574 5.82073 12.2043 5.85291 12.0619 5.91405C11.9196 5.9752 11.7909 6.06408 11.6832 6.17551L7.1554 10.701C6.28053 11.5761 5.78906 12.7629 5.78906 14.0003C5.78906 15.2378 6.28053 16.4245 7.1554 17.2997L11.6809 21.8252C11.7885 21.9366 11.9173 22.0255 12.0596 22.0866C12.2019 22.1478 12.355 22.18 12.5099 22.1813C12.6648 22.1826 12.8185 22.1531 12.9618 22.0945C13.1052 22.0358 13.2355 21.9492 13.345 21.8396C13.4546 21.7301 13.5412 21.5998 13.5999 21.4565C13.6585 21.3131 13.688 21.1594 13.6867 21.0045C13.6853 20.8496 13.6532 20.6965 13.592 20.5542C13.5309 20.4119 13.442 20.2831 13.3306 20.1755L8.80507 15.65C8.6745 15.5156 8.56052 15.3659 8.46557 15.2043L26.8336 15.167C27.143 15.167 27.4397 15.0441 27.6585 14.8253C27.8773 14.6065 28.0002 14.3098 28.0002 14.0003C28.0002 13.6909 27.8773 13.3942 27.6585 13.1754C27.4397 12.9566 27.143 12.8337 26.8336 12.8337Z" fill="#2E2360"/>
</g>
<defs>
<clipPath id="clip0_3409_49839">
<rect width="28" height="28" fill="white"/>
</clipPath>
</defs>
</svg>
