<svg width="24" height="24" viewBox="0 0 24 24" fill="none" xmlns="http://www.w3.org/2000/svg">
<g clip-path="url(#clip0_2897_14220)">
<path d="M9.90892 0.879999L5.99892 4.75C5.9052 4.84296 5.8308 4.95357 5.78003 5.07542C5.72926 5.19728 5.70313 5.32799 5.70313 5.46C5.70313 5.59201 5.72926 5.72272 5.78003 5.84458C5.8308 5.96643 5.9052 6.07704 5.99892 6.17C6.18629 6.35625 6.43974 6.46079 6.70392 6.46079C6.96811 6.46079 7.22156 6.35625 7.40892 6.17L10.9989 2.61L10.9989 23C10.9989 23.2652 11.1043 23.5196 11.2918 23.7071C11.4794 23.8946 11.7337 24 11.9989 24V24C12.2641 24 12.5185 23.8946 12.706 23.7071C12.8936 23.5196 12.9989 23.2652 12.9989 23L12.9989 2.55L16.6089 6.17C16.7019 6.26373 16.8125 6.33812 16.9343 6.38889C17.0562 6.43966 17.1869 6.4658 17.3189 6.4658C17.4509 6.4658 17.5816 6.43966 17.7035 6.38889C17.8254 6.33812 17.936 6.26373 18.0289 6.17C18.1227 6.07704 18.197 5.96643 18.2478 5.84458C18.2986 5.72272 18.3247 5.59201 18.3247 5.46C18.3247 5.32799 18.2986 5.19728 18.2478 5.07542C18.197 4.95357 18.1227 4.84296 18.0289 4.75L14.1489 0.879999C13.5864 0.318197 12.8239 0.00263986 12.0289 0.00263985C11.2339 0.00263984 10.4714 0.318197 9.90892 0.879999Z" fill="#FEFEFE"/>
</g>
<defs>
<clipPath id="clip0_2897_14220">
<rect width="24" height="24" fill="white" transform="translate(0 24) rotate(-90)"/>
</clipPath>
</defs>
</svg>
