<svg width="372" height="66" viewBox="0 0 372 66" fill="none" xmlns="http://www.w3.org/2000/svg">
<path d="M368.185 52.4852C369.093 52.1395 369.549 51.1233 369.203 50.2153L363.571 35.4193C363.225 34.5114 362.209 34.0555 361.301 34.4012C360.393 34.7469 359.937 35.7631 360.283 36.6711L365.29 49.8231L352.138 54.8301C351.23 55.1757 350.774 56.192 351.119 57.0999C351.465 58.0079 352.481 58.4637 353.389 58.1181L368.185 52.4852ZM2.39896 46.1408C4.75315 45.4221 7.08636 44.7065 9.39953 43.9946L8.36469 40.632C6.05369 41.3432 3.72304 42.058 1.37171 42.7759L2.39896 46.1408ZM23.2902 39.6966C27.99 38.2369 32.6075 36.7997 37.1574 35.3886L36.1153 32.0283C31.5649 33.4395 26.9433 34.878 22.2467 36.3367L23.2902 39.6966ZM51.0766 31.0981C55.7822 29.6598 60.4183 28.2588 64.9968 26.9014L63.9967 23.5283C59.4065 24.8892 54.7606 26.2932 50.0482 27.7335L51.0766 31.0981ZM78.9305 22.8648C83.6486 21.5344 88.3147 20.2601 92.9424 19.0496L92.052 15.6459C87.3998 16.8629 82.712 18.1431 77.9756 19.4787L78.9305 22.8648ZM107.017 15.5474C111.755 14.4337 116.466 13.3971 121.165 12.4461L120.467 8.99781C115.729 9.95675 110.982 11.0013 106.212 12.1225L107.017 15.5474ZM135.411 9.82982C140.178 9.04791 144.948 8.36323 149.736 7.78464L149.314 4.29183C144.474 4.8767 139.655 5.56852 134.842 6.35801L135.411 9.82982ZM164.125 6.37959C168.903 6.02606 173.714 5.78442 178.573 5.66326L178.486 2.14615C173.567 2.26877 168.699 2.51332 163.866 2.87098L164.125 6.37959ZM193.021 5.66243C197.77 5.7803 202.578 6.01591 207.457 6.37686L207.717 2.86824C202.78 2.50304 197.915 2.2646 193.108 2.1453L193.021 5.66243ZM221.88 7.78907C226.567 8.35863 231.327 9.0434 236.171 9.8496L236.749 6.37913C231.854 5.56461 227.043 4.87245 222.305 4.29656L221.88 7.78907ZM250.383 12.5165C255.007 13.4802 259.711 14.5522 264.504 15.7373L265.349 12.322C260.515 11.1267 255.768 10.0451 251.101 9.07228L250.383 12.5165ZM278.519 19.4562C283.068 20.7435 287.698 22.1295 292.416 23.6181L293.474 20.2629C288.724 18.7642 284.061 17.3681 279.477 16.071L278.519 19.4562ZM306.189 28.1711C310.659 29.7141 315.207 31.3457 319.838 33.0689L321.065 29.7716C316.408 28.039 311.834 26.3979 307.336 24.8454L306.189 28.1711ZM333.368 38.2713C337.766 40.0157 342.239 41.8394 346.789 43.7446L348.148 40.4995C343.578 38.5859 339.085 36.7537 334.664 35.0008L333.368 38.2713ZM360.115 49.4618C362.338 50.4378 364.58 51.4325 366.839 52.4462L368.279 49.2361C366.011 48.2187 363.761 47.2202 361.529 46.2403L360.115 49.4618ZM368.811 54.1292C370.627 53.4379 371.539 51.4053 370.847 49.5894L359.582 19.9975C358.89 18.1816 356.858 17.2699 355.042 17.9612C353.226 18.6526 352.314 20.6851 353.006 22.501L363.02 48.8049L336.716 58.8189C334.9 59.5103 333.988 61.5428 334.679 63.3587C335.371 65.1746 337.403 66.0862 339.219 65.3949L368.811 54.1292ZM2.91258 47.8232C5.26821 47.1041 7.60269 46.3881 9.91696 45.6759L7.84727 38.9507C5.53735 39.6616 3.20798 40.376 0.858087 41.0934L2.91258 47.8232ZM23.812 41.3765C28.5133 39.9163 33.1288 38.4797 37.6785 37.0688L35.5943 30.3481C31.0436 31.7594 26.4199 33.1985 21.7249 34.6567L23.812 41.3765ZM51.5908 32.7804C56.293 31.3432 60.9242 29.9436 65.4968 28.5879L63.4967 21.8418C58.9006 23.2044 54.2498 24.6099 49.5341 26.0513L51.5908 32.7804ZM79.4079 24.5579C84.1169 23.2301 88.7721 21.9588 93.3876 20.7514L91.6068 13.944C86.9424 15.1642 82.2437 16.4474 77.4982 17.7856L79.4079 24.5579ZM107.419 17.2599C112.141 16.1499 116.834 15.1173 121.514 14.1702L120.118 7.27367C115.36 8.23655 110.596 9.28504 105.809 10.4101L107.419 17.2599ZM135.696 11.5657C140.439 10.7876 145.185 10.1065 149.947 9.53104L149.103 2.54543C144.237 3.13344 139.393 3.82882 134.557 4.62211L135.696 11.5657ZM164.255 8.1339C169.004 7.78243 173.787 7.54224 178.617 7.42182L178.442 0.387589C173.494 0.510944 168.597 0.756945 163.736 1.11667L164.255 8.1339ZM192.977 7.42099C197.698 7.53814 202.477 7.77234 207.328 8.13117L207.847 1.11392C202.881 0.746612 197.987 0.506748 193.152 0.38674L192.977 7.42099ZM221.668 9.53532C226.328 10.1017 231.063 10.7828 235.882 11.5848L237.037 4.64389C232.118 3.82522 227.282 3.12936 222.517 2.5503L221.668 9.53532ZM250.024 14.2386C254.626 15.1977 259.309 16.2649 264.082 17.445L265.771 10.6143C260.917 9.414 256.149 8.32751 251.46 7.35018L250.024 14.2386ZM278.04 21.1489C282.572 22.4312 287.185 23.8122 291.886 25.2956L294.004 18.5853C289.238 17.0815 284.557 15.6804 279.956 14.3783L278.04 21.1489ZM305.615 29.8339C310.071 31.3722 314.606 32.9991 319.224 34.7176L321.678 28.1229C317.009 26.3856 312.422 24.7398 307.91 23.1826L305.615 29.8339ZM332.719 39.9065C337.107 41.6466 341.569 43.4661 346.109 45.3672L348.827 38.8769C344.247 36.9592 339.744 35.1228 335.313 33.3656L332.719 39.9065ZM359.408 51.0725C361.627 52.0466 363.864 53.0395 366.12 54.0513L368.999 47.6311C366.727 46.6118 364.472 45.6113 362.236 44.6296L359.408 51.0725Z" fill="#ECF0FF"/>
</svg>
