<svg width="534" height="330" viewBox="0 0 534 330" fill="none" xmlns="http://www.w3.org/2000/svg">
  <path
    d="M530.992 152.676C530.992 176.246 520.01 198.935 500.967 219.804C481.923 240.674 454.929 259.591 423.246 275.539C359.873 307.44 278.135 327.267 204.888 327.267C131.682 327.267 81.1281 307.468 48.8777 275.931C16.6277 244.394 2.38101 200.826 2.38101 152.676C2.38101 129.118 13.0573 107.993 31.5978 89.4701C50.1608 70.9245 76.5279 55.0775 107.62 42.1941C169.8 16.4288 250.4 2.71255 323.764 2.71255C397.149 2.71255 448.935 16.438 482.339 41.9112C515.624 67.2947 530.992 104.608 530.992 152.676Z"
    stroke="#FA985F" stroke-width="4.39776"/>
</svg>
