<svg width="64" height="64" viewBox="0 0 64 64" fill="none" xmlns="http://www.w3.org/2000/svg">
<path fill-rule="evenodd" clip-rule="evenodd" d="M22.1619 9.28496C14.5159 10.7286 10.586 16.4497 10.586 26.2612C10.5593 36.3133 20.6915 42.4889 31.1178 38.7728L33.0427 38.0777C34.6201 39.7353 34.8874 39.7353 33.2032 40.7512C31.8665 41.5532 32.0001 42.3819 32.8555 42.7028C34.0051 43.1305 40.9829 49.8408 41.9186 51.4716C45.3673 57.4868 53.9757 55.3748 53.3875 50.6695C53.1202 48.5308 51.4893 46.0445 49.5644 44.2801C47.4257 42.3017 46.2227 40.6977 44.6454 37.7034C43.1215 34.7894 41.7582 34.1478 39.7798 35.3508C38.9243 35.8588 38.8441 35.8855 38.3896 35.4578C37.4539 34.629 37.5074 34.0676 38.6569 32.3299C43.0413 25.5928 43.2819 19.7113 39.4054 15.0328C34.0051 8.50967 29.3802 10.8623 32.5348 12.8941C40.2075 17.8132 39.8066 27.8118 31.6259 35.3508C27.0811 39.5481 17.938 37.3024 15.5853 31.4209C11.8693 22.0639 17.9913 9.71271 27.9097 11.691C31.3317 12.5733 32.6951 7.30663 22.1619 9.28496ZM21.0925 15.9418C19.9429 16.9042 20.6915 17.733 22.8302 16.2626C24.3273 15.2467 25.0493 15.0596 26.4127 15.3804C28.2039 15.7814 29.2999 15.3269 28.7385 14.4179C28.5514 14.0971 24.6214 12.9743 21.0925 15.9418ZM31.8129 15.5942C30.3693 15.514 29.995 16.3161 30.9842 17.3587C32.2139 18.6687 34.6736 18.8826 34.5399 17.6795C34.4597 16.8508 32.909 15.6477 31.8129 15.5942ZM41.1165 37.9975C41.3304 38.8798 43.4424 41.9809 44.5652 43.1305C45.9287 44.4939 46.5168 45.4029 48.2812 47.3278C51.8636 51.2577 47.5861 55.1609 44.2176 50.2418C39.9669 44.0395 36.0102 42.0879 36.0637 41.366C36.1439 40.4571 40.9294 37.249 41.1165 37.9975Z" fill="white"/>
</svg>
