<svg width="90" height="90" viewBox="0 0 90 90" fill="none" xmlns="http://www.w3.org/2000/svg">
<path fill-rule="evenodd" clip-rule="evenodd" d="M57.8223 21.1474C50.955 17.466 42.0959 17.2116 35.4844 25.0505C30.5675 30.9083 30.5796 30.9864 37.3625 34.1208C43.0889 36.758 42.62 36.8303 45.3961 33.0425C47.759 29.8183 49.9993 28.653 53.3823 29.1915C60.871 30.4172 59.4403 40.5974 57.7548 42.8972C55.9041 45.4224 53.1254 45.4307 46.2374 42.9125C40.6014 40.8613 37.7088 41.6872 34.0088 46.3574C32.9226 47.7448 31.9387 48.7565 31.6487 48.8212C30.3218 49.1657 32.1784 51.7394 34.9365 53.4142C43.2273 58.4161 43.065 58.4011 44.7848 55.1561C45.8527 53.1316 46.2313 52.9932 48.4932 53.7845C53.9489 55.7035 58.3804 55.0004 63.0381 51.4826C75.1043 42.4429 72.8284 29.2341 57.8223 21.1474ZM64.1133 27.8375C68.641 32.2994 68.5672 42.3306 63.9369 46.8042C59.6552 50.9441 54.9532 51.9688 48.4306 50.1343C45.273 49.241 43.6246 49.8351 41.5861 52.5692L40.4624 54.1024C37.5135 52.357 37.3331 52.2248 35.3311 51.1734C40.5214 44.7535 40.5663 43.7467 50.9108 46.8921C57.3959 48.8724 61.6794 45.3922 61.9883 37.9248C62.4823 25.949 44.7164 21.1075 40.6951 32.1271C40.4939 32.6381 40.2806 33.071 40.2025 33.083C40.0853 33.1011 36.675 31.6068 36.4495 31.4415C36.427 31.425 38.3016 28.5361 38.8604 27.49C43.6306 18.4749 55.9178 19.821 64.1133 27.8375ZM31.2716 54.6791C25.8583 53.5536 22.0651 58.3981 24.9697 62.7103C30.7564 71.3181 41.3017 71.8726 40.5779 63.5444C40.3939 61.0528 34.348 55.3049 31.2716 54.6791ZM36.0521 60.2621C37.6575 61.8546 38.1782 64.4543 37.1868 65.8071C35.3526 68.3098 28.3111 65.0552 27.6052 61.3841C27.2666 59.5764 30.3594 54.5997 36.0521 60.2621Z" fill="white"/>
</svg>
