<svg width="65" height="64" viewBox="0 0 65 64" fill="none" xmlns="http://www.w3.org/2000/svg">
<path d="M31.8042 1.31937C31.4639 2.12119 31.067 3.17358 30.8401 3.72482C30.5566 4.52664 28.3449 23.2692 28.2882 25.2236C28.2882 25.9753 26.6435 24.4719 18.4205 16.3034C8.72302 6.58131 7.87237 5.77949 7.47539 6.13028C6.39789 7.13256 8.66631 11.0414 16.0954 20.9138L24.3184 31.7885L22.7305 32.0892C21.8799 32.2896 17.1162 32.8409 12.1257 33.342C2.25803 34.2942 0.5 34.645 0.5 35.7475C0.5 36.9001 1.86105 37.0504 12.2958 37.0504H22.3335L16.3222 42.4126C8.32605 49.6289 7.07842 51.0321 7.92908 51.8841C8.83645 52.8863 10.3109 52.0845 19.498 45.3693C23.8647 42.2121 27.721 39.6062 28.0613 39.5561C28.4583 39.5561 28.8553 41.1096 29.0821 43.3647C29.6492 48.8271 32.1445 62.007 32.8817 63.1596C33.6757 64.5127 35.3203 64.1619 35.5471 62.6084C35.6605 61.9068 36.0575 61.0549 36.3978 60.654C36.8514 60.1528 37.0783 57.2462 37.0216 51.7337L36.9649 43.5151L40.1407 46.2212C41.8987 47.7246 45.3013 50.4308 47.7399 52.285C52.1633 55.6426 54.2049 56.2941 53.978 54.3396C53.581 50.531 51.6529 47.875 44.0537 40.5083C40.4809 37.0003 39.8004 36.0983 40.5943 35.8477C41.1047 35.6472 46.3788 34.8955 52.3334 34.1939C63.1651 32.891 65.547 32.1894 64.1292 30.9366C63.6188 30.4855 59.8759 30.235 51.0858 30.0345L38.7796 29.7839L41.8987 26.7771C43.6 25.1234 47.2295 21.7156 49.9516 19.21C52.7304 16.7043 54.9421 14.3489 54.9421 14.0482C54.9421 12.7453 53.0706 12.9457 50.2351 14.5995C48.5905 15.5517 44.6208 18.3079 41.3316 20.7134L35.377 25.0231L34.98 23.4696C34.8099 22.5676 34.4696 17.3557 34.2428 11.7931C34.0159 6.23051 33.7324 1.31937 33.6189 0.818237C33.1653 -0.434608 32.4847 -0.234154 31.8042 1.31937Z" fill="white"/>
</svg>
