<svg width="65" height="54" viewBox="0 0 65 54" fill="none" xmlns="http://www.w3.org/2000/svg">
  <g id="browser">
    <g id="Group">
      <path id="Vector"
            d="M60 0H4C1.789 0 0 1.49083 0 3.33333V50C0 51.8425 1.789 53.3333 4 53.3333H60C62.211 53.3333 64 51.8425 64 50V3.33333C64 1.49083 62.211 0 60 0ZM62 50C62 50.92 61.104 51.6667 60 51.6667H4C2.896 51.6667 2 50.92 2 50V11.6667H62V50ZM62 10H2V3.33333C2 2.41333 2.896 1.66667 4 1.66667H60C61.104 1.66667 62 2.41333 62 3.33333V10Z"
            fill="white"/>
      <path id="Vector_2"
            d="M7 3.33301C5.343 3.33301 4 4.45217 4 5.83301C4 7.21384 5.343 8.33301 7 8.33301C8.657 8.33301 10 7.21384 10 5.83301C10 4.45217 8.657 3.33301 7 3.33301ZM7 6.66634C6.447 6.66634 6 6.29384 6 5.83301C6 5.37217 6.447 4.99967 7 4.99967C7.553 4.99967 8 5.37217 8 5.83301C8 6.29384 7.553 6.66634 7 6.66634Z"
            fill="white"/>
      <path id="Vector_3"
            d="M33 3.33301H15C13.343 3.33301 12 4.45217 12 5.83301C12 7.21384 13.343 8.33301 15 8.33301H33C34.657 8.33301 36 7.21384 36 5.83301C36 4.45217 34.657 3.33301 33 3.33301ZM33 6.66634H15C14.447 6.66634 14 6.29384 14 5.83301C14 5.37217 14.447 4.99967 15 4.99967H33C33.553 4.99967 34 5.37217 34 5.83301C34 6.29384 33.553 6.66634 33 6.66634Z"
            fill="white"/>
      <path id="Vector_4"
            d="M11 19.9997H29C29.553 19.9997 30 19.6272 30 19.1663C30 18.7055 29.553 18.333 29 18.333H11C10.447 18.333 10 18.7055 10 19.1663C10 19.6272 10.447 19.9997 11 19.9997Z"
            fill="white"/>
      <path id="Vector_5"
            d="M11 24.9997H29C29.553 24.9997 30 24.6272 30 24.1663C30 23.7055 29.553 23.333 29 23.333H11C10.447 23.333 10 23.7055 10 24.1663C10 24.6272 10.447 24.9997 11 24.9997Z"
            fill="white"/>
      <path id="Vector_6"
            d="M11 29.9997H29C29.553 29.9997 30 29.6272 30 29.1663C30 28.7055 29.553 28.333 29 28.333H11C10.447 28.333 10 28.7055 10 29.1663C10 29.6272 10.447 29.9997 11 29.9997Z"
            fill="white"/>
      <path id="Vector_7"
            d="M11 34.9997H29C29.553 34.9997 30 34.6272 30 34.1663C30 33.7055 29.553 33.333 29 33.333H11C10.447 33.333 10 33.7055 10 34.1663C10 34.6272 10.447 34.9997 11 34.9997Z"
            fill="white"/>
      <path id="Vector_8"
            d="M11 39.9997H53C53.553 39.9997 54 39.6272 54 39.1663C54 38.7055 53.553 38.333 53 38.333H11C10.447 38.333 10 38.7055 10 39.1663C10 39.6272 10.447 39.9997 11 39.9997Z"
            fill="white"/>
      <path id="Vector_9"
            d="M11 44.9997H53C53.553 44.9997 54 44.6272 54 44.1663C54 43.7055 53.553 43.333 53 43.333H11C10.447 43.333 10 43.7055 10 44.1663C10 44.6272 10.447 44.9997 11 44.9997Z"
            fill="white"/>
      <path id="Vector_10"
            d="M35 34.9997H53C53.553 34.9997 54 34.6272 54 34.1663V19.1663C54 18.7055 53.553 18.333 53 18.333H35C34.447 18.333 34 18.7055 34 19.1663V34.1663C34 34.6272 34.447 34.9997 35 34.9997ZM36 19.9997H52V33.333H36V19.9997Z"
            fill="white"/>
    </g>
  </g>
</svg>
