<svg xmlns="http://www.w3.org/2000/svg" width="120" height="120" fill="none"><rect width="120" height="120" fill="#FF7A2C" rx="16"/><path fill="#FEFEFE" d="M82.4 34.4h-3.2v-3.2c0-1.92-1.28-3.2-3.2-3.2-1.92 0-3.2 1.28-3.2 3.2v3.2H47.2v-3.2c0-1.92-1.28-3.2-3.2-3.2-1.92 0-3.2 1.28-3.2 3.2v3.2h-3.2c-5.44 0-9.6 4.16-9.6 9.6v3.2h64V44c0-5.44-4.16-9.6-9.6-9.6ZM28 82.4c0 5.44 4.16 9.6 9.6 9.6h44.8c5.44 0 9.6-4.16 9.6-9.6V53.6H28v28.8ZM76 60c1.92 0 3.2 1.28 3.2 3.2 0 1.92-1.28 3.2-3.2 3.2-1.92 0-3.2-1.28-3.2-3.2 0-1.92 1.28-3.2 3.2-3.2Zm0 12.8c1.92 0 3.2 1.28 3.2 3.2 0 1.92-1.28 3.2-3.2 3.2-1.92 0-3.2-1.28-3.2-3.2 0-1.92 1.28-3.2 3.2-3.2ZM60 60c1.92 0 3.2 1.28 3.2 3.2 0 1.92-1.28 3.2-3.2 3.2-1.92 0-3.2-1.28-3.2-3.2 0-1.92 1.28-3.2 3.2-3.2Zm0 12.8c1.92 0 3.2 1.28 3.2 3.2 0 1.92-1.28 3.2-3.2 3.2-1.92 0-3.2-1.28-3.2-3.2 0-1.92 1.28-3.2 3.2-3.2ZM44 60c1.92 0 3.2 1.28 3.2 3.2 0 1.92-1.28 3.2-3.2 3.2-1.92 0-3.2-1.28-3.2-3.2 0-1.92 1.28-3.2 3.2-3.2Zm0 12.8c1.92 0 3.2 1.28 3.2 3.2 0 1.92-1.28 3.2-3.2 3.2-1.92 0-3.2-1.28-3.2-3.2 0-1.92 1.28-3.2 3.2-3.2Z"/></svg>