<svg width="64" height="64" viewBox="0 0 64 64" fill="none" xmlns="http://www.w3.org/2000/svg">
<g id="Group">
<path id="Vector" d="M32 0C14.327 0 0 14.327 0 32C0 49.673 14.327 64 32 64C49.673 64 64 49.673 64 32C64 14.327 49.673 0 32 0ZM32 62C15.431 62 2 48.568 2 32C2 15.431 15.431 2 32 2C48.569 2 62 15.431 62 32C62 48.568 48.569 62 32 62Z" fill="white"/>
<path id="Vector_2" d="M32 33C32.5523 33 33 32.5523 33 32C33 31.4477 32.5523 31 32 31C31.4477 31 31 31.4477 31 32C31 32.5523 31.4477 33 32 33Z" fill="white"/>
<path id="Vector_3" d="M36.931 32.688C36.962 32.461 37 32.236 37 32C37 30.369 36.208 28.936 35 28.022V14C35 12.343 33.657 11 32 11C30.343 11 29 12.343 29 14V28.022C27.792 28.935 27 30.369 27 32C27 34.762 29.238 37 32 37C32.235 37 32.461 36.962 32.688 36.931L41.193 45.436C42.365 46.608 44.263 46.607 45.435 45.435C46.607 44.263 46.607 42.365 45.435 41.193L36.931 32.688ZM31 14C31 13.447 31.447 13 32 13C32.553 13 33 13.447 33 14V27.101C32.677 27.035 32.343 27 32 27C31.657 27 31.323 27.035 31 27.101V14ZM29 32C29 30.343 30.343 29 32 29C33.657 29 35 30.343 35 32C35 33.657 33.657 35 32 35C30.343 35 29 33.657 29 32ZM44.021 44.021C43.63 44.413 42.998 44.413 42.607 44.022L34.754 36.169C35.316 35.797 35.797 35.316 36.169 34.754L44.021 42.607C44.411 42.997 44.411 43.63 44.021 44.021Z" fill="white"/>
<path id="Vector_4" d="M32 4C16.536 4 4 16.536 4 32C4 47.464 16.536 60 32 60C47.464 60 60 47.464 60 32C60 16.536 47.464 4 32 4ZM51.075 49.66L48.972 47.556C48.579 47.166 47.947 47.166 47.557 47.556C47.166 47.948 47.166 48.579 47.557 48.971L49.661 51.075C45.252 55.16 39.426 57.732 33.001 57.975L33.002 55.001C33 54.448 32.553 54.001 32.002 54.001C31.448 54.002 31.002 54.448 31.002 55.001L31.001 57.975C24.576 57.732 18.75 55.161 14.341 51.077L16.445 48.973C16.835 48.581 16.835 47.949 16.445 47.559C16.052 47.168 15.422 47.168 15.031 47.559L12.927 49.663C8.843 45.254 6.271 39.428 6.027 33.003H9.001C9.554 33.002 10.001 32.555 10.001 32.003C10 31.449 9.554 31.003 9.001 31.003H6.025C6.268 24.578 8.839 18.751 12.923 14.342L15.027 16.446C15.418 16.837 16.05 16.837 16.441 16.446C16.832 16.054 16.832 15.423 16.441 15.032L14.337 12.928C18.746 8.843 24.573 6.271 30.998 6.028V9C30.998 9.553 31.445 10 31.998 10C32.551 10 32.998 9.553 32.998 9V6.025C39.423 6.268 45.25 8.839 49.659 12.924L47.555 15.028C47.164 15.419 47.164 16.051 47.555 16.442C47.946 16.833 48.578 16.833 48.969 16.442L51.074 14.338C55.158 18.747 57.73 24.574 57.973 30.999H55C54.447 30.999 54 31.446 54 31.999C54 32.552 54.447 32.999 55 32.999H57.975C57.731 39.425 55.16 45.251 51.075 49.66Z" fill="white"/>
</g>
</svg>
