<svg width="64" height="64" viewBox="0 0 64 64" fill="none" xmlns="http://www.w3.org/2000/svg">
  <g id="thumb-up" clip-path="url(#clip0_706_14499)">
    <g id="Group">
      <path id="Vector"
            d="M64 28C64 24.686 61.313 22 58 22H41L43 4C43.209 1.812 41.713 0 39.502 0H35.501C33 0 31.959 1.75 31 4L23 22C20.845 27.169 18 28 16 28C15 28 14 28 14 28V26C14 23.788 12.211 22 10 22H4C1.789 22 0 23.788 0 26V60C0 62.21 1.789 64 4 64H10C12.211 64 14 62.21 14 60V58C15 58 17.632 58.052 20.21 60.697C23.324 63.894 27.043 64 29 64H52C55.313 64 58 61.312 58 58C58 56.269 57.263 54.712 56.09 53.617C58.371 52.769 60 50.577 60 48C60 46.269 59.263 44.712 58.09 43.617C60.371 42.769 62 40.577 62 38C62 36.269 61.263 34.712 60.09 33.617C62.371 32.769 64 30.577 64 28ZM12 60C12 61.104 11.104 62 10 62H4C2.896 62 2 61.104 2 60V26C2 24.895 2.896 24 4 24H10C11.104 24 12 24.895 12 26V60ZM58 32H48C47.447 32 47 32.446 47 33C47 33.552 47.447 34 48 34H56C58.209 34 60 35.79 60 38C60 40.209 58.209 42 56 42H46C45.447 42 45 42.446 45 43C45 43.552 45.447 44 46 44H54C56.209 44 58 45.79 58 48C58 50.209 56.209 52 54 52H44C43.447 52 43 52.446 43 53C43 53.552 43.447 54 44 54H52C54.209 54 56 55.79 56 58C56 60.209 54.209 62 52 62H29C28 62 24.305 62.034 21.642 59.301C18.532 56.109 16.112 56.003 14 56V30H16C20 30 22.57 28.429 25.25 22L33 4C33.521 2.896 34.146 2 35.251 2H39C40.104 2 41.126 2.834 41 4L39.01 22C38.878 23.673 39.924 24 41 24H58C60.209 24 62 25.79 62 28C62 30.209 60.209 32 58 32Z"
            fill="white"/>
      <path id="Vector_2"
            d="M7 54C5.343 54 4 55.342 4 57C4 58.656 5.343 60 7 60C8.657 60 10 58.656 10 57C10 55.342 8.657 54 7 54ZM7 58C6.447 58 6 57.551 6 57C6 56.447 6.447 56 7 56C7.553 56 8 56.447 8 57C8 57.551 7.553 58 7 58Z"
            fill="white"/>
    </g>
  </g>
  <defs>
    <clipPath id="clip0_706_14499">
      <rect width="64" height="64" fill="white"/>
    </clipPath>
  </defs>
>>>>>>> Stashed changes
</svg>
