<svg xmlns="http://www.w3.org/2000/svg" width="120" height="120" fill="none"><rect width="120" height="120" fill="#FF7A2C" rx="16"/><path fill="#FEFEFE" d="M30.91 53.807h8.726v34.91H30.91A2.91 2.91 0 0 1 28 85.806v-29.09a2.909 2.909 0 0 1 2.91-2.91Zm15.397-3.761 18.618-18.619a1.455 1.455 0 0 1 1.903-.136l2.481 1.862a4.364 4.364 0 0 1 1.609 4.567l-3.354 13.178h18.618A5.818 5.818 0 0 1 92 56.716v6.121c0 .76-.147 1.513-.436 2.217L82.56 86.915a2.909 2.909 0 0 1-2.69 1.801H48.363a2.91 2.91 0 0 1-2.91-2.909V52.102c0-.771.307-1.51.853-2.056Z"/></svg>