<svg xmlns="http://www.w3.org/2000/svg" width="24" height="24" fill="none"><g fill="#FFDB73"><path d="M22.846 9.148a3.009 3.009 0 0 0-1.068-1.534 2.85 2.85 0 0 0-1.743-.574H16.03l-1.217-3.917a3.054 3.054 0 0 0-1.073-1.536A2.894 2.894 0 0 0 11.998 1c-.627 0-1.237.206-1.743.587-.506.382-.882.92-1.073 1.536L7.965 7.04H3.961c-.623 0-1.23.205-1.735.584-.504.379-.88.913-1.073 1.525a3.153 3.153 0 0 0-.002 1.886 3.054 3.054 0 0 0 1.069 1.528l3.259 2.462-1.24 3.965c-.2.615-.202 1.28-.007 1.897a3.004 3.004 0 0 0 1.093 1.525A2.85 2.85 0 0 0 7.069 23a2.852 2.852 0 0 0 1.739-.606l3.19-2.427 3.191 2.424a2.895 2.895 0 0 0 1.738.594 2.894 2.894 0 0 0 1.744-.577 3.052 3.052 0 0 0 1.08-1.526 3.152 3.152 0 0 0 .005-1.892l-1.239-3.965 3.263-2.462c.509-.376.887-.91 1.08-1.525a3.104 3.104 0 0 0-.014-1.89Zm-2.148 1.885L16.9 13.902a.946.946 0 0 0-.331.473.978.978 0 0 0 0 .584l1.443 4.612c.073.233.072.485-.002.719a1.16 1.16 0 0 1-.41.58 1.101 1.101 0 0 1-1.325-.007l-3.734-2.84a.897.897 0 0 0-1.086 0l-3.734 2.84a1.1 1.1 0 0 1-1.329.012 1.16 1.16 0 0 1-.413-.582 1.199 1.199 0 0 1 0-.722l1.448-4.612a.977.977 0 0 0 0-.584.946.946 0 0 0-.331-.473l-3.798-2.869a1.16 1.16 0 0 1-.407-.58 1.199 1.199 0 0 1 .002-.718 1.16 1.16 0 0 1 .408-.58 1.1 1.1 0 0 1 .66-.221h4.674a.897.897 0 0 0 .54-.182.946.946 0 0 0 .333-.475l1.42-4.575a1.16 1.16 0 0 1 .409-.583 1.1 1.1 0 0 1 1.324 0c.193.145.335.349.408.583l1.421 4.575c.06.19.176.357.333.475a.897.897 0 0 0 .54.182h4.674a1.1 1.1 0 0 1 .66.222c.191.143.334.346.408.58.073.232.074.483.001.716a1.16 1.16 0 0 1-.406.581h-.002Z"/><path d="M11.997 1.767c-.627 0-1.238.194-1.744.556-.507.36-.883.87-1.074 1.454l-1.217 3.71H3.955c-.624 0-1.231.194-1.736.553-.504.358-.88.864-1.073 1.444a2.833 2.833 0 0 0-.003 1.786c.192.58.566 1.087 1.07 1.447l3.261 2.331-1.24 3.755a2.79 2.79 0 0 0-.007 1.797c.195.584.579 1.09 1.093 1.444.505.364 1.117.56 1.745.557a2.957 2.957 0 0 0 1.74-.575l3.192-2.494V1.767Z"/></g></svg>