<svg xmlns="http://www.w3.org/2000/svg" width="24" height="24" fill="none"><path fill="#FFDB73" d="M22.846 9.148a3.008 3.008 0 0 0-1.069-1.534 2.852 2.852 0 0 0-1.743-.574h-4.006l-1.216-3.917a3.053 3.053 0 0 0-1.074-1.536A2.896 2.896 0 0 0 11.994 1c-.627 0-1.237.206-1.744.587-.506.382-.882.92-1.073 1.536L7.96 7.04H3.954c-.623 0-1.23.205-1.735.584-.505.379-.88.913-1.073 1.525a3.152 3.152 0 0 0-.003 1.886 3.053 3.053 0 0 0 1.07 1.528l3.26 2.462-1.24 3.965c-.2.615-.203 1.28-.007 1.897a3.004 3.004 0 0 0 1.093 1.525A2.852 2.852 0 0 0 7.064 23a2.853 2.853 0 0 0 1.739-.606l3.191-2.427 3.193 2.424a2.897 2.897 0 0 0 1.738.594 2.896 2.896 0 0 0 1.744-.577 3.052 3.052 0 0 0 1.082-1.526 3.151 3.151 0 0 0 .004-1.892l-1.24-3.965 3.264-2.462c.51-.376.888-.91 1.08-1.525a3.103 3.103 0 0 0-.013-1.89Zm-2.148 1.885-3.8 2.869a.946.946 0 0 0-.331.473.976.976 0 0 0 0 .584l1.443 4.612a1.2 1.2 0 0 1-.001.719 1.16 1.16 0 0 1-.412.58 1.102 1.102 0 0 1-1.324-.007l-3.736-2.84a.898.898 0 0 0-1.086 0l-3.736 2.84a1.1 1.1 0 0 1-1.33.012 1.16 1.16 0 0 1-.412-.582 1.198 1.198 0 0 1 0-.722l1.449-4.612a.977.977 0 0 0 0-.584.946.946 0 0 0-.332-.473l-3.8-2.869a1.16 1.16 0 0 1-.406-.58 1.198 1.198 0 0 1 .002-.718 1.16 1.16 0 0 1 .408-.58c.192-.143.423-.22.66-.221H8.63a.897.897 0 0 0 .54-.182.946.946 0 0 0 .333-.475l1.421-4.575a1.16 1.16 0 0 1 .409-.583 1.101 1.101 0 0 1 1.325 0c.192.145.335.349.408.583l1.421 4.575c.06.19.176.357.333.475a.898.898 0 0 0 .54.182h4.676a1.1 1.1 0 0 1 .66.222c.192.143.335.346.408.58.074.232.074.483.002.716a1.16 1.16 0 0 1-.407.581h-.001Z"/></svg>