<svg width="432" height="260" viewBox="0 0 432 260" fill="none" xmlns="http://www.w3.org/2000/svg">
<circle cx="417.597" cy="244.801" r="14.4" transform="rotate(-90 417.597 244.801)" fill="#FF6003"/>
<circle cx="417.597" cy="187.202" r="14.4" transform="rotate(-90 417.597 187.202)" fill="#FF6003"/>
<circle cx="417.597" cy="129.602" r="14.4" transform="rotate(-90 417.597 129.602)" fill="#FF6003"/>
<circle cx="417.597" cy="72.0003" r="14.4" transform="rotate(-90 417.597 72.0003)" fill="#FF6003"/>
<circle cx="417.597" cy="14.4007" r="14.4" transform="rotate(-90 417.597 14.4007)" fill="#FF6003"/>
<circle cx="14.4" cy="14.4" r="14.4" fill="#FF6003"/>
<circle cx="72.0016" cy="14.4" r="14.4" fill="#FF6003"/>
<circle cx="129.599" cy="14.4" r="14.4" fill="#FF6003"/>
<circle cx="187.201" cy="14.4" r="14.4" fill="#FF6003"/>
<circle cx="244.8" cy="14.4" r="14.4" fill="#FF6003"/>
<circle cx="302.402" cy="14.4" r="14.4" fill="#FF6003"/>
<circle cx="360" cy="14.4" r="14.4" fill="#FF6003"/>
<circle cx="14.4" cy="71.9997" r="14.4" fill="#FF6003"/>
<circle cx="72.0016" cy="71.9997" r="14.4" fill="#FF6003"/>
<circle cx="129.599" cy="71.9997" r="14.4" fill="#FF6003"/>
<circle cx="187.201" cy="71.9997" r="14.4" fill="#FF6003"/>
<circle cx="244.8" cy="71.9997" r="14.4" fill="#FF6003"/>
<circle cx="302.402" cy="71.9997" r="14.4" fill="#FF6003"/>
<circle cx="360" cy="71.9997" r="14.4" fill="#FF6003"/>
<circle cx="14.4" cy="129.601" r="14.4" fill="#FF6003"/>
<circle cx="72.0016" cy="129.601" r="14.4" fill="#FF6003"/>
<circle cx="129.599" cy="129.601" r="14.4" fill="#FF6003"/>
<circle cx="187.201" cy="129.601" r="14.4" fill="#FF6003"/>
<circle cx="244.8" cy="129.601" r="14.4" fill="#FF6003"/>
<circle cx="302.402" cy="129.601" r="14.4" fill="#FF6003"/>
<circle cx="360" cy="129.601" r="14.4" fill="#FF6003"/>
<circle cx="14.4" cy="187.203" r="14.4" fill="#FF6003"/>
<circle cx="72.0016" cy="187.203" r="14.4" fill="#FF6003"/>
<circle cx="129.599" cy="187.203" r="14.4" fill="#FF6003"/>
<circle cx="187.201" cy="187.203" r="14.4" fill="#FF6003"/>
<circle cx="244.8" cy="187.203" r="14.4" fill="#FF6003"/>
<circle cx="302.402" cy="187.203" r="14.4" fill="#FF6003"/>
<circle cx="360" cy="187.203" r="14.4" fill="#FF6003"/>
<circle cx="14.4" cy="244.8" r="14.4" fill="#FF6003"/>
<circle cx="72.0016" cy="244.8" r="14.4" fill="#FF6003"/>
<circle cx="129.599" cy="244.8" r="14.4" fill="#FF6003"/>
<circle cx="187.201" cy="244.8" r="14.4" fill="#FF6003"/>
<circle cx="244.8" cy="244.8" r="14.4" fill="#FF6003"/>
<circle cx="302.402" cy="244.8" r="14.4" fill="#FF6003"/>
<circle cx="360" cy="244.8" r="14.4" fill="#FF6003"/>
</svg>
