<svg width="251" height="175" viewBox="0 0 251 175" fill="none" xmlns="http://www.w3.org/2000/svg">
<circle cx="241.5" cy="165.5" r="9.5" transform="rotate(-180 241.5 165.5)" fill="#B8C7FF"/>
<circle cx="202.5" cy="165.5" r="9.5" transform="rotate(-180 202.5 165.5)" fill="#B8C7FF"/>
<circle cx="164.5" cy="165.5" r="9.5" transform="rotate(-180 164.5 165.5)" fill="#B8C7FF"/>
<circle cx="125.5" cy="165.5" r="9.5" transform="rotate(-180 125.5 165.5)" fill="#B8C7FF"/>
<circle cx="87.5" cy="165.5" r="9.5" transform="rotate(-180 87.5 165.5)" fill="#B8C7FF"/>
<circle cx="48.5" cy="165.5" r="9.5" transform="rotate(-180 48.5 165.5)" fill="#B8C7FF"/>
<circle cx="9.5" cy="165.5" r="9.5" transform="rotate(-180 9.5 165.5)" fill="#B8C7FF"/>
<circle cx="241.5" cy="126.5" r="9.5" transform="rotate(-180 241.5 126.5)" fill="#B8C7FF"/>
<circle cx="202.5" cy="126.5" r="9.5" transform="rotate(-180 202.5 126.5)" fill="#B8C7FF"/>
<circle cx="164.5" cy="126.5" r="9.5" transform="rotate(-180 164.5 126.5)" fill="#B8C7FF"/>
<circle cx="125.5" cy="126.5" r="9.5" transform="rotate(-180 125.5 126.5)" fill="#B8C7FF"/>
<circle cx="87.5" cy="126.5" r="9.5" transform="rotate(-180 87.5 126.5)" fill="#B8C7FF"/>
<circle cx="48.5" cy="126.5" r="9.5" transform="rotate(-180 48.5 126.5)" fill="#B8C7FF"/>
<circle cx="9.5" cy="126.5" r="9.5" transform="rotate(-180 9.5 126.5)" fill="#B8C7FF"/>
<circle cx="241.5" cy="87.5" r="9.5" transform="rotate(-180 241.5 87.5)" fill="#B8C7FF"/>
<circle cx="202.5" cy="87.5" r="9.5" transform="rotate(-180 202.5 87.5)" fill="#B8C7FF"/>
<circle cx="164.5" cy="87.5" r="9.5" transform="rotate(-180 164.5 87.5)" fill="#B8C7FF"/>
<circle cx="125.5" cy="87.5" r="9.5" transform="rotate(-180 125.5 87.5)" fill="#B8C7FF"/>
<circle cx="87.5" cy="87.5" r="9.5" transform="rotate(-180 87.5 87.5)" fill="#B8C7FF"/>
<circle cx="48.5" cy="87.5" r="9.5" transform="rotate(-180 48.5 87.5)" fill="#B8C7FF"/>
<circle cx="9.5" cy="87.5" r="9.5" transform="rotate(-180 9.5 87.5)" fill="#B8C7FF"/>
<circle cx="241.5" cy="48.5" r="9.5" transform="rotate(-180 241.5 48.5)" fill="#B8C7FF"/>
<circle cx="202.5" cy="48.5" r="9.5" transform="rotate(-180 202.5 48.5)" fill="#B8C7FF"/>
<circle cx="164.5" cy="48.5" r="9.5" transform="rotate(-180 164.5 48.5)" fill="#B8C7FF"/>
<circle cx="125.5" cy="48.5" r="9.5" transform="rotate(-180 125.5 48.5)" fill="#B8C7FF"/>
<circle cx="87.5" cy="48.5" r="9.5" transform="rotate(-180 87.5 48.5)" fill="#B8C7FF"/>
<circle cx="48.5" cy="48.5" r="9.5" transform="rotate(-180 48.5 48.5)" fill="#B8C7FF"/>
<circle cx="9.5" cy="48.5" r="9.5" transform="rotate(-180 9.5 48.5)" fill="#B8C7FF"/>
<circle cx="241.5" cy="9.5" r="9.5" transform="rotate(-180 241.5 9.5)" fill="#B8C7FF"/>
<circle cx="202.5" cy="9.5" r="9.5" transform="rotate(-180 202.5 9.5)" fill="#B8C7FF"/>
<circle cx="164.5" cy="9.5" r="9.5" transform="rotate(-180 164.5 9.5)" fill="#B8C7FF"/>
<circle cx="125.5" cy="9.5" r="9.5" transform="rotate(-180 125.5 9.5)" fill="#B8C7FF"/>
<circle cx="87.5" cy="9.5" r="9.5" transform="rotate(-180 87.5 9.5)" fill="#B8C7FF"/>
<circle cx="48.5" cy="9.5" r="9.5" transform="rotate(-180 48.5 9.5)" fill="#B8C7FF"/>
<circle cx="9.5" cy="9.5" r="9.5" transform="rotate(-180 9.5 9.5)" fill="#B8C7FF"/>
</svg>
