<svg width="296" height="208" viewBox="0 0 296 208" fill="none" xmlns="http://www.w3.org/2000/svg">
<circle cx="284.817" cy="196.817" r="11.1828" transform="rotate(-180 284.817 196.817)" fill="#ECF0FF"/>
<circle cx="238.911" cy="196.817" r="11.1828" transform="rotate(-180 238.911 196.817)" fill="#ECF0FF"/>
<circle cx="194.18" cy="196.817" r="11.1828" transform="rotate(-180 194.18 196.817)" fill="#ECF0FF"/>
<circle cx="148.274" cy="196.817" r="11.1828" transform="rotate(-180 148.274 196.817)" fill="#ECF0FF"/>
<circle cx="103.532" cy="196.817" r="11.1828" transform="rotate(-180 103.532 196.817)" fill="#ECF0FF"/>
<circle cx="57.6257" cy="196.817" r="11.1828" transform="rotate(-180 57.6257 196.817)" fill="#ECF0FF"/>
<circle cx="11.7195" cy="196.817" r="11.1828" transform="rotate(-180 11.7195 196.817)" fill="#ECF0FF"/>
<circle cx="284.817" cy="150.451" r="11.1828" transform="rotate(-180 284.817 150.451)" fill="#ECF0FF"/>
<circle cx="238.911" cy="150.451" r="11.1828" transform="rotate(-180 238.911 150.451)" fill="#ECF0FF"/>
<circle cx="194.18" cy="150.451" r="11.1828" transform="rotate(-180 194.18 150.451)" fill="#ECF0FF"/>
<circle cx="148.274" cy="150.451" r="11.1828" transform="rotate(-180 148.274 150.451)" fill="#ECF0FF"/>
<circle cx="103.532" cy="150.451" r="11.1828" transform="rotate(-180 103.532 150.451)" fill="#ECF0FF"/>
<circle cx="57.6257" cy="150.451" r="11.1828" transform="rotate(-180 57.6257 150.451)" fill="#ECF0FF"/>
<circle cx="11.7195" cy="150.451" r="11.1828" transform="rotate(-180 11.7195 150.451)" fill="#ECF0FF"/>
<circle cx="284.817" cy="104.086" r="11.1828" transform="rotate(-180 284.817 104.086)" fill="#ECF0FF"/>
<circle cx="238.911" cy="104.086" r="11.1828" transform="rotate(-180 238.911 104.086)" fill="#ECF0FF"/>
<circle cx="194.18" cy="104.086" r="11.1828" transform="rotate(-180 194.18 104.086)" fill="#ECF0FF"/>
<circle cx="148.274" cy="104.086" r="11.1828" transform="rotate(-180 148.274 104.086)" fill="#ECF0FF"/>
<circle cx="103.532" cy="104.086" r="11.1828" transform="rotate(-180 103.532 104.086)" fill="#ECF0FF"/>
<circle cx="57.6257" cy="104.086" r="11.1828" transform="rotate(-180 57.6257 104.086)" fill="#ECF0FF"/>
<circle cx="11.7195" cy="104.086" r="11.1828" transform="rotate(-180 11.7195 104.086)" fill="#ECF0FF"/>
<circle cx="284.817" cy="57.72" r="11.1828" transform="rotate(-180 284.817 57.72)" fill="#ECF0FF"/>
<circle cx="238.911" cy="57.72" r="11.1828" transform="rotate(-180 238.911 57.72)" fill="#ECF0FF"/>
<circle cx="194.18" cy="57.72" r="11.1828" transform="rotate(-180 194.18 57.72)" fill="#ECF0FF"/>
<circle cx="148.274" cy="57.72" r="11.1828" transform="rotate(-180 148.274 57.72)" fill="#ECF0FF"/>
<circle cx="103.532" cy="57.72" r="11.1828" transform="rotate(-180 103.532 57.72)" fill="#ECF0FF"/>
<circle cx="57.6257" cy="57.72" r="11.1828" transform="rotate(-180 57.6257 57.72)" fill="#ECF0FF"/>
<circle cx="11.7195" cy="57.72" r="11.1828" transform="rotate(-180 11.7195 57.72)" fill="#ECF0FF"/>
<circle cx="284.817" cy="11.3543" r="11.1828" transform="rotate(-180 284.817 11.3543)" fill="#ECF0FF"/>
<circle cx="238.911" cy="11.3543" r="11.1828" transform="rotate(-180 238.911 11.3543)" fill="#ECF0FF"/>
<circle cx="194.18" cy="11.3543" r="11.1828" transform="rotate(-180 194.18 11.3543)" fill="#ECF0FF"/>
<circle cx="148.274" cy="11.3543" r="11.1828" transform="rotate(-180 148.274 11.3543)" fill="#ECF0FF"/>
<circle cx="103.532" cy="11.3543" r="11.1828" transform="rotate(-180 103.532 11.3543)" fill="#ECF0FF"/>
<circle cx="57.6257" cy="11.3543" r="11.1828" transform="rotate(-180 57.6257 11.3543)" fill="#ECF0FF"/>
<circle cx="11.7195" cy="11.3543" r="11.1828" transform="rotate(-180 11.7195 11.3543)" fill="#ECF0FF"/>
</svg>
