<svg xmlns="http://www.w3.org/2000/svg" width="627" height="416" fill="none"><g clip-path="url(#a)"><path fill="#ECF0FF" d="M627 392c0 13.255-10.745 24-24 24H24c-13.255 0-24-10.745-24-24V24C0 10.745 10.745 0 24 0h172.799c13.255 0 24 10.745 24 24v111.732c0 13.255 10.745 24 24 24H603c13.255 0 24 10.745 24 24V392Z"/><path fill="#FEFEFE" d="M144 40H56c-8.837 0-16 7.163-16 16v88c0 8.837 7.163 16 16 16h88c8.837 0 16-7.163 16-16V56c0-8.837-7.163-16-16-16Z"/><path fill="#B8C7FF" d="M122.4 74.4h-3.2v-3.2c0-1.92-1.28-3.2-3.2-3.2-1.92 0-3.2 1.28-3.2 3.2v3.2H87.2v-3.2c0-1.92-1.28-3.2-3.2-3.2-1.92 0-3.2 1.28-3.2 3.2v3.2h-3.2c-5.44 0-9.6 4.16-9.6 9.6v3.2h64V84c0-5.44-4.16-9.6-9.6-9.6Zm-54.4 48c0 5.44 4.16 9.6 9.6 9.6h44.8c5.44 0 9.6-4.16 9.6-9.6V93.6H68v28.8Zm48-22.4c1.92 0 3.2 1.28 3.2 3.2 0 1.92-1.28 3.2-3.2 3.2-1.92 0-3.2-1.28-3.2-3.2 0-1.92 1.28-3.2 3.2-3.2Zm0 12.8c1.92 0 3.2 1.28 3.2 3.2 0 1.92-1.28 3.2-3.2 3.2-1.92 0-3.2-1.28-3.2-3.2 0-1.92 1.28-3.2 3.2-3.2ZM100 100c1.92 0 3.2 1.28 3.2 3.2 0 1.92-1.28 3.2-3.2 3.2-1.92 0-3.2-1.28-3.2-3.2 0-1.92 1.28-3.2 3.2-3.2Zm0 12.8c1.92 0 3.2 1.28 3.2 3.2 0 1.92-1.28 3.2-3.2 3.2-1.92 0-3.2-1.28-3.2-3.2 0-1.92 1.28-3.2 3.2-3.2ZM84 100c1.92 0 3.2 1.28 3.2 3.2 0 1.92-1.28 3.2-3.2 3.2-1.92 0-3.2-1.28-3.2-3.2 0-1.92 1.28-3.2 3.2-3.2Zm0 12.8c1.92 0 3.2 1.28 3.2 3.2 0 1.92-1.28 3.2-3.2 3.2-1.92 0-3.2-1.28-3.2-3.2 0-1.92 1.28-3.2 3.2-3.2ZM485.68 160s-6.64 81.741 21.59 120.094C537.887 321.69 627 336 627 336v-66.86s-42.924-16.37-62.809-36.669C541.929 209.745 526.898 160 526.898 160H485.68Z"/></g><defs><clipPath id="a"><path fill="#fff" d="M0 0h627v416H0z"/></clipPath></defs></svg>