<svg width="1440" height="110" viewBox="0 0 1440 110" fill="none" xmlns="http://www.w3.org/2000/svg">
<path d="M-161.684 60.7829C-161.684 60.7829 -81.7886 106.382 -8.70271 108.595C72.4139 111.051 87.7619 58.8596 168.953 60.7829C243.683 62.5532 252.4 105.323 326.868 108.595C414.411 112.441 436.377 59.0127 524.263 60.7829C605.486 62.419 620.738 106.588 701.918 108.595C791.448 110.808 814.877 57.5555 904.248 60.7829C982.032 63.5919 993.995 109.066 1072.03 108.595C1148.46 108.134 1158.46 61.244 1234.88 60.7829C1312.92 60.3122 1324.89 105.786 1402.67 108.595C1492.04 111.822 1605 60.7829 1605 60.7829V1.14105C1605 1.14105 1492.04 52.1805 1402.67 48.953C1324.89 46.144 1312.92 0.670268 1234.88 1.14105C1158.46 1.60212 1148.46 48.4919 1072.03 48.953C993.995 49.4238 982.032 3.95006 904.248 1.14105C814.877 -2.08641 791.448 51.1658 701.918 48.953C620.738 46.9466 605.486 2.7771 524.263 1.14105C436.377 -0.6292 414.411 52.7996 326.868 48.953C252.4 45.6809 243.683 2.9113 168.953 1.14105C87.7619 -0.782236 72.4139 51.409 -8.70271 48.953C-81.7886 46.7402 -161.684 1.14105 -161.684 1.14105V60.7829Z" fill="#FF6003" stroke="#FF6003"/>
<path d="M5.91291 96.9513C3.68027 97.1327 1.55214 96.8241 -0.471469 96.0254C-2.46579 95.1922 -4.2469 94.0206 -5.81481 92.5106C-7.38532 90.9687 -8.65248 89.2096 -9.6163 87.2332C-10.5827 85.2248 -11.1557 83.1203 -11.3351 80.9196C-11.5224 78.6232 -11.3005 76.422 -10.6696 74.316C-10.0413 72.1781 -9.09047 70.2548 -7.81714 68.546C-6.51191 66.8347 -4.93886 65.4548 -3.09799 64.4062C-1.22782 63.3232 0.839527 62.6897 3.10406 62.5056C6.38923 62.2387 9.15621 62.7041 11.405 63.9019C13.6538 65.0997 15.4101 66.7549 16.674 68.8674L13.5601 71.4321C12.4102 69.535 10.935 68.178 9.13464 67.3611C7.3343 66.5443 5.39754 66.2201 3.32437 66.3885C1.60205 66.5285 0.0691104 67.0223 -1.27445 67.8699C-2.618 68.7175 -3.74808 69.8207 -4.66469 71.1794C-5.552 72.5036 -6.20174 73.9851 -6.61391 75.6238C-6.99419 77.26 -7.11411 78.9392 -6.97367 80.6615C-6.82542 82.4795 -6.39793 84.1784 -5.69118 85.7584C-4.95514 87.3039 -3.99419 88.6545 -2.80833 89.8102C-1.62508 90.9341 -0.287207 91.7885 1.20528 92.3736C2.69777 92.9586 4.27328 93.1837 5.93181 93.049C7.8774 92.8909 9.68699 92.2462 11.3606 91.1149C13.0342 89.9836 14.5692 88.3339 15.9656 86.1657L16.3284 90.6149C13.563 94.4996 10.0911 96.6118 5.91291 96.9513ZM15.1116 82.1898L7.79173 82.7846L7.52645 79.5314L18.4823 78.6411L19.8634 95.5769L16.2273 95.8723L15.1116 82.1898Z" fill="white"/>
<path d="M25.6717 84.469L20.8761 70.231L24.8805 68.8869L29.4157 82.3516C30.2328 84.7777 31.2704 86.4547 32.5284 87.3827C33.7864 88.3106 35.2496 88.4946 36.9181 87.9345C38.0103 87.568 38.9803 86.9892 39.8282 86.1983C40.6962 85.3669 41.3917 84.374 41.9145 83.2196C42.4374 82.0652 42.7221 80.8051 42.7686 79.4394L37.7585 64.5644L41.7629 63.2204L48.2286 82.4167C48.392 82.902 48.6056 83.2353 48.8693 83.4168C49.1532 83.5578 49.5277 83.5671 49.993 83.4447L51.0348 86.538C50.6002 86.7514 50.2464 86.9039 49.9734 86.9955C49.7409 87.1073 49.5033 87.2039 49.2606 87.2854C48.5022 87.54 47.7733 87.5314 47.0741 87.2598C46.3646 86.9579 45.8772 86.4633 45.6119 85.776L44.5863 83.0317C44.1473 85.1368 43.2114 86.9699 41.7788 88.5309C40.3764 90.0817 38.6438 91.2033 36.5809 91.8957C34.0933 92.7307 31.9315 92.528 30.0956 91.2878C28.2495 90.0172 26.7748 87.7442 25.6717 84.469Z" fill="white"/>
<path d="M56.0478 84.4288L45.9005 61.5195L49.7648 59.8138L59.9121 82.7231L56.0478 84.4288ZM43.9955 57.2185L41.8572 52.3909L45.7215 50.6852L47.8598 55.5129L43.9955 57.2185Z" fill="white"/>
<path d="M58.6452 69.7757C57.5405 67.6812 56.9577 65.5474 56.8968 63.3741C56.8494 61.1577 57.3001 59.1314 58.249 57.2951C59.2262 55.4438 60.6921 54.0046 62.6466 52.9773C64.4311 52.0394 66.2778 51.6653 68.1868 51.8549C70.0957 52.0446 71.7975 52.5961 73.2923 53.5096L66.3058 40.2631L70.0448 38.2979L84.1522 65.0456C84.391 65.4985 84.6552 65.7934 84.9445 65.9306C85.2473 66.0245 85.6186 65.9739 86.0584 65.7789L87.5811 68.666C86.9327 69.1514 86.4102 69.4983 86.0136 69.7067C85.2772 70.0938 84.4913 70.1815 83.6561 69.9698C82.8492 69.7432 82.2815 69.3185 81.9531 68.6958L80.9678 66.8277C80.8361 68.7045 80.2503 70.4403 79.2103 72.0353C78.1703 73.6303 76.8571 74.8447 75.2709 75.6784C73.7413 76.4824 72.1683 76.9296 70.5518 77.02C68.9487 77.0673 67.382 76.8062 65.8516 76.2368C64.3496 75.6526 62.9712 74.8226 61.7164 73.7468C60.4751 72.6279 59.4513 71.3042 58.6452 69.7757ZM78.5546 63.4869L75.1957 57.1184C74.3482 56.3347 73.3405 55.7617 72.1727 55.3995C70.9899 55.0089 69.7975 54.8403 68.5956 54.8936C67.407 54.9037 66.3454 55.1545 65.4107 55.6458C64.3059 56.2264 63.4273 56.9955 62.7746 57.9531C62.1354 58.8675 61.699 59.8921 61.4655 61.0271C61.2454 62.1188 61.2267 63.2494 61.4092 64.4187C61.5918 65.588 61.9668 66.7104 62.534 67.786C63.1163 68.8899 63.8527 69.8404 64.7435 70.6375C65.6625 71.4197 66.6635 72.0143 67.7464 72.4212C68.8576 72.8132 69.9784 72.9833 71.1087 72.9315C72.2674 72.8647 73.3849 72.5485 74.4613 71.9827C75.1411 71.6254 75.7679 71.1333 76.3417 70.5064C76.9438 69.8645 77.4512 69.146 77.8639 68.3507C78.2765 67.5554 78.5527 66.7415 78.6924 65.9089C78.8172 65.048 78.7712 64.2406 78.5546 63.4869Z" fill="white"/>
<path d="M101.502 62.7912C99.7688 63.5397 98.0488 63.9163 96.3421 63.9213C94.652 63.8842 93.0428 63.5508 91.5145 62.921C90.0028 62.2492 88.6415 61.3208 87.4305 60.1357C86.2489 58.938 85.3083 57.5317 84.6086 55.9167C83.6671 53.7439 83.3078 51.5463 83.5307 49.3239C83.7535 47.1015 84.5109 45.0666 85.8029 43.2191C87.1242 41.3589 88.9307 39.9341 91.2222 38.9447C93.5431 37.9426 95.7972 37.6315 97.9846 38.0116C100.189 38.3496 102.149 39.2112 103.865 40.5964C105.598 41.9395 106.909 43.6387 107.8 45.6941C107.927 45.9877 108.04 46.2877 108.138 46.594C108.252 46.8583 108.326 47.0701 108.361 47.2296L89.2794 55.4685C90.0457 56.9152 91.0359 58.0736 92.2498 58.9437C93.4805 59.7717 94.8149 60.276 96.2533 60.4566C97.679 60.6079 99.0528 60.3981 100.375 59.8273C101.785 59.2184 102.954 58.2952 103.883 57.0578C104.841 55.8076 105.307 54.5085 105.281 53.1604L109.031 52.6393C109.015 53.9707 108.698 55.2925 108.081 56.6046C107.493 57.9041 106.631 59.0952 105.496 60.1778C104.391 61.2478 103.059 62.119 101.502 62.7912ZM87.9831 52.8389L103.671 46.0652C102.905 44.6184 101.906 43.4811 100.676 42.653C99.4451 41.825 98.117 41.3354 96.6913 41.1841C95.2657 41.0329 93.8625 41.2553 92.4817 41.8515C91.1303 42.435 90.0216 43.2971 89.1558 44.4378C88.2899 45.5785 87.7378 46.88 87.4995 48.3422C87.2906 49.7918 87.4518 51.2907 87.9831 52.8389Z" fill="white"/>
<path d="M131.763 51.8285L127.949 18.011L132.242 17.5284L134.351 36.2259L149.694 15.5183L154.321 14.9981L142.411 31.4556L158.905 48.7776L154.087 49.3191L139.983 34.3369L134.889 40.9956L136.056 51.346L131.763 51.8285Z" fill="white"/>
<path d="M163.175 49.3913L161.769 24.3748L165.986 24.1386L167.392 49.1552L163.175 49.3913ZM161.505 19.6782L161.209 14.4065L165.426 14.1703L165.723 19.442L161.505 19.6782Z" fill="white"/>
<path d="M196.04 50.466L191.824 50.202L192.703 36.2136C192.87 33.5628 192.576 31.6046 191.822 30.339C191.102 29.0435 189.911 28.3437 188.25 28.2397C187.101 28.1677 185.933 28.3831 184.747 28.8859C183.593 29.3908 182.538 30.1102 181.581 31.0443C180.659 31.9484 179.966 33.0272 179.502 34.2806L178.554 49.3709L174.338 49.1068L175.91 24.1002L179.742 24.3402L179.405 29.7056C180.15 28.566 181.077 27.598 182.185 26.8017C183.293 26.0054 184.533 25.4097 185.904 25.0147C187.276 24.6197 188.696 24.4681 190.165 24.5602C191.602 24.6502 192.783 24.9967 193.707 25.5996C194.665 26.1726 195.385 26.9552 195.868 27.9473C196.384 28.9094 196.714 30.0363 196.858 31.3278C197.033 32.6212 197.073 34.0185 196.979 35.5195L196.04 50.466Z" fill="white"/>
<path d="M203.228 38.7895C203.952 36.5349 205.07 34.6248 206.581 33.0589C208.132 31.4724 209.897 30.374 211.874 29.7638C213.882 29.1633 215.937 29.1996 218.04 29.8727C219.96 30.4873 221.521 31.5412 222.722 33.0343C223.923 34.5275 224.72 36.1266 225.113 37.8317L229.693 23.5732L233.716 24.8609L224.468 53.6521C224.311 54.1396 224.285 54.5345 224.39 54.8367C224.535 55.1183 224.831 55.3475 225.278 55.5243L224.28 58.6319C223.479 58.5099 222.865 58.3806 222.439 58.244C221.646 57.9904 221.033 57.4918 220.6 56.7483C220.197 56.0145 220.103 55.3125 220.318 54.6423L220.964 52.6314C219.53 53.8524 217.879 54.651 216.01 55.0272C214.142 55.4035 212.354 55.3185 210.647 54.7722C209.002 54.2454 207.581 53.4377 206.384 52.3492C205.228 51.2399 204.318 49.9406 203.653 48.4512C203.02 46.9715 202.648 45.4078 202.539 43.76C202.47 42.0916 202.699 40.4347 203.228 38.7895ZM221.663 48.5713L223.865 41.7163C223.832 40.5633 223.537 39.4438 222.978 38.3578C222.429 37.2414 221.715 36.2736 220.835 35.4544C219.996 34.6146 219.073 34.0337 218.067 33.7117C216.879 33.3313 215.714 33.2439 214.572 33.4497C213.471 33.6348 212.433 34.0417 211.458 34.6704C210.523 35.2783 209.701 36.057 208.993 37.0063C208.285 37.9555 207.745 39.009 207.373 40.1668C206.991 41.355 206.827 42.5457 206.881 43.7388C206.965 44.9418 207.241 46.0716 207.708 47.1283C208.206 48.1948 208.869 49.1126 209.697 49.8818C210.556 50.6607 211.565 51.2356 212.723 51.6063C213.454 51.8404 214.245 51.9423 215.095 51.912C215.976 51.8914 216.845 51.7496 217.702 51.4865C218.56 51.2234 219.335 50.85 220.028 50.3662C220.731 49.852 221.276 49.2537 221.663 48.5713Z" fill="white"/>
<path d="M237.935 66.9364C236.243 66.0991 234.844 65.0318 233.737 63.7345C232.673 62.4228 231.889 60.9812 231.383 59.4099C230.92 57.824 230.75 56.187 230.874 54.4987C231.026 52.8247 231.494 51.1995 232.276 49.6231C233.329 47.5022 234.778 45.8088 236.621 44.5429C238.464 43.2771 240.509 42.5397 242.757 42.3307C245.033 42.1359 247.29 42.592 249.527 43.6989C251.792 44.8201 253.487 46.3367 254.609 48.249C255.775 50.1467 256.383 52.1969 256.432 54.3993C256.525 56.5873 256.073 58.6845 255.077 60.6908C254.935 60.9774 254.778 61.2569 254.607 61.5293C254.479 61.7873 254.365 61.9808 254.265 62.1099L235.637 52.8926C235.026 54.4111 234.78 55.9139 234.899 57.4009C235.061 58.8735 235.538 60.2161 236.329 61.4288C237.134 62.6128 238.182 63.5241 239.473 64.1627C240.85 64.8439 242.311 65.1386 243.857 65.0468C245.432 64.9691 246.727 64.485 247.74 63.5942L250.562 66.1149C249.533 66.9628 248.318 67.5754 246.916 67.9527C245.543 68.3442 244.075 68.4572 242.514 68.2916C240.982 68.1403 239.455 67.6885 237.935 66.9364ZM236.81 50.2062L252.126 57.7844C252.737 56.2659 252.961 54.7704 252.799 53.2978C252.637 51.8252 252.153 50.4969 251.348 49.3129C250.543 48.1289 249.466 47.2034 248.118 46.5364C246.798 45.8836 245.423 45.5957 243.991 45.6728C242.56 45.7499 241.208 46.1699 239.936 46.933C238.692 47.7102 237.651 48.8012 236.81 50.2062Z" fill="white"/>
<path d="M276.638 62.4994C274.762 61.528 272.855 61.1209 270.916 61.278C269.021 61.4222 267.344 62.138 265.887 63.4255L258.552 77.0304L254.831 75.0313L266.722 52.9762L270.189 54.839L267.433 59.9514C269.014 58.8392 270.675 58.1516 272.417 57.8884C274.201 57.6122 275.815 57.7888 277.257 58.4183C277.539 58.5697 277.778 58.6984 277.976 58.8044C278.173 58.9105 278.334 59.0154 278.46 59.1193L276.638 62.4994Z" fill="white"/>
<path d="M288.618 90.0532C286.476 89.4007 284.611 88.3311 283.024 86.8445C281.477 85.3365 280.253 83.5924 279.353 81.6122C278.461 79.6013 277.932 77.5001 277.765 75.3085C277.608 73.0862 277.852 70.9193 278.497 68.8077C279.17 66.6042 280.189 64.6397 281.552 62.9141C282.926 61.1579 284.519 59.7198 286.334 58.5998C288.179 57.4891 290.151 56.7849 292.249 56.4873C294.388 56.1684 296.544 56.3399 298.717 57.0017C301.87 57.9618 304.271 59.412 305.92 61.3525C307.569 63.293 308.592 65.4775 308.987 67.906L305.146 69.1447C304.776 66.9583 303.905 65.1544 302.533 63.733C301.16 62.3116 299.479 61.2979 297.489 60.692C295.836 60.1887 294.229 60.0839 292.667 60.3776C291.105 60.6713 289.647 61.2811 288.293 62.207C286.98 63.1116 285.829 64.2497 284.841 65.6214C283.884 67.0024 283.152 68.5192 282.647 70.1718C282.114 71.9162 281.885 73.6527 281.959 75.3812C282.073 77.0885 282.468 78.6973 283.144 80.2078C283.83 81.6876 284.759 82.9739 285.93 84.0666C287.102 85.1594 288.484 85.9481 290.076 86.4328C291.943 87.0014 293.864 87.0677 295.837 86.6316C297.811 86.1956 299.847 85.2266 301.945 83.7248L300.641 87.9939C296.636 90.5879 292.629 91.2743 288.618 90.0532ZM302.618 79.715L295.593 77.5757L296.547 74.4542L307.062 77.656L302.097 93.9064L298.607 92.8438L302.618 79.715Z" fill="white"/>
<path d="M312.78 85.9928L313.778 71.002L317.993 71.2815L317.049 85.4582C316.879 88.0125 317.198 89.9579 318.007 91.2944C318.816 92.6309 320.099 93.3574 321.855 93.4739C323.005 93.5501 324.122 93.3837 325.208 92.9747C326.327 92.5358 327.349 91.882 328.273 91.0132C329.196 90.1445 329.94 89.0874 330.504 87.842L331.547 72.1806L335.762 72.4602L334.416 92.6715C334.382 93.1824 334.452 93.5719 334.627 93.84C334.836 94.0783 335.178 94.2294 335.655 94.2931L335.438 97.5498C334.955 97.5819 334.57 97.5884 334.283 97.5694C334.025 97.5844 333.769 97.5834 333.513 97.5664C332.715 97.5135 332.044 97.2285 331.501 96.7114C330.961 96.1624 330.699 95.5197 330.716 94.7832L330.814 91.8553C329.606 93.6352 328.041 94.9746 326.121 95.8735C324.233 96.7745 322.204 97.153 320.032 97.009C317.414 96.8353 315.493 95.8259 314.269 93.9808C313.047 92.1038 312.55 89.4412 312.78 85.9928Z" fill="white"/>
<path d="M343.195 97.1622L342.169 72.1272L346.39 71.9548L347.416 96.9898L343.195 97.1622ZM341.976 67.4271L341.76 62.1516L345.981 61.9792L346.197 67.2548L341.976 67.4271Z" fill="white"/>
<path d="M352.606 84.5718C352.132 82.2517 352.17 80.0396 352.721 77.9357C353.296 75.7939 354.296 73.9739 355.721 72.4756C357.177 70.9709 358.987 69.9984 361.151 69.5581C363.126 69.156 365.003 69.3127 366.783 70.0282C368.562 70.7438 370.041 71.749 371.22 73.0439L368.223 58.3708L372.362 57.5283L378.413 87.1567C378.516 87.6583 378.687 88.0154 378.926 88.228C379.19 88.4028 379.561 88.458 380.038 88.3936L380.691 91.5916C379.933 91.8765 379.334 92.0637 378.895 92.153C378.08 92.319 377.301 92.1836 376.558 91.7469C375.847 91.3038 375.421 90.7374 375.28 90.0476L374.858 87.9783C374.206 89.7438 373.158 91.2471 371.713 92.4882C370.268 93.7293 368.667 94.5285 366.911 94.8859C365.218 95.2306 363.583 95.2205 362.006 94.8557C360.454 94.4531 359.023 93.7646 357.714 92.7902C356.436 91.8094 355.345 90.6272 354.442 89.2435C353.564 87.8221 352.952 86.2648 352.606 84.5718ZM373.477 84.0957L372.036 77.0414C371.442 76.0519 370.635 75.2201 369.616 74.5459C368.59 73.8404 367.493 73.3453 366.324 73.0606C365.18 72.7382 364.091 72.6823 363.056 72.8929C361.834 73.1418 360.775 73.6349 359.88 74.3721C359.011 75.0716 358.305 75.9337 357.763 76.9584C357.246 77.9453 356.911 79.0257 356.759 80.1997C356.607 81.3736 356.653 82.5563 356.896 83.7477C357.146 84.9704 357.586 86.089 358.218 87.1034C358.881 88.1114 359.676 88.962 360.601 89.6554C361.558 90.3424 362.586 90.8189 363.686 91.085C364.816 91.3446 365.978 91.3532 367.169 91.1107C367.922 90.9575 368.661 90.6601 369.387 90.2183C370.145 89.7702 370.833 89.222 371.452 88.5735C372.071 87.9251 372.564 87.2206 372.931 86.4601C373.292 85.6682 373.474 84.8801 373.477 84.0957Z" fill="white"/>
<path d="M399.31 84.4368C397.55 85.1212 395.818 85.4346 394.112 85.3769C392.425 85.2779 390.829 84.8857 389.325 84.2003C387.839 83.4736 386.512 82.4958 385.346 81.2671C384.209 80.0268 383.321 78.5869 382.681 76.9474C381.82 74.7414 381.542 72.5321 381.846 70.3193C382.15 68.1065 382.982 66.1006 384.341 64.3016C385.729 62.4911 387.587 61.1334 389.913 60.2286C392.269 59.3123 394.533 59.0841 396.705 59.5441C398.895 59.9626 400.822 60.8955 402.486 62.3428C404.169 63.7486 405.417 65.4948 406.231 67.5815C406.348 67.8796 406.449 68.1835 406.536 68.4932C406.64 68.7615 406.707 68.976 406.735 69.1366L387.365 76.6706C388.077 78.1446 389.024 79.3385 390.206 80.2525C391.405 81.1251 392.72 81.678 394.151 81.9113C395.57 82.1147 396.95 81.9554 398.292 81.4334C399.724 80.8766 400.926 79.9969 401.9 78.7943C402.903 77.5801 403.416 76.2989 403.44 74.9507L407.206 74.5673C407.141 75.8973 406.776 77.2066 406.111 78.4953C405.476 79.7724 404.571 80.9311 403.397 81.9715C402.253 83.0002 400.891 83.822 399.31 84.4368ZM386.166 73.9952L402.092 67.801C401.379 66.3271 400.423 65.1538 399.224 64.2812C398.024 63.4086 396.715 62.8706 395.296 62.6672C393.877 62.4638 392.467 62.6346 391.065 63.1798C389.693 63.7134 388.554 64.5343 387.646 65.6425C386.739 66.7507 386.14 68.0311 385.848 69.4837C385.586 70.9247 385.692 72.4285 386.166 73.9952Z" fill="white"/>
<path d="M436.728 67.1008L424.536 35.3277L428.571 33.7847L435.312 51.3518L444.963 27.4651L449.312 25.8021L441.917 44.715L462.239 57.3458L457.71 59.0773L440.29 48.1122L437.032 55.8332L440.763 65.5578L436.728 67.1008Z" fill="white"/>
<path d="M468.116 56.4306L460.641 32.5157L464.674 31.2594L472.149 55.1743L468.116 56.4306ZM459.238 28.0259L457.662 22.9864L461.695 21.7301L463.27 26.7697L459.238 28.0259Z" fill="white"/>
<path d="M500.555 49.9807L496.389 50.6771L494.07 36.8543C493.63 34.2349 492.9 32.3942 491.878 31.3321C490.882 30.2332 489.564 29.8209 487.923 30.0953C486.787 30.2852 485.698 30.7592 484.657 31.5172C483.648 32.27 482.783 33.2094 482.064 34.3354C481.37 35.4247 480.94 36.6321 480.773 37.9578L483.275 52.8694L479.108 53.5659L474.963 28.8552L478.751 28.222L479.64 33.5239C480.107 32.2455 480.79 31.0931 481.688 30.0669C482.587 29.0407 483.659 28.1801 484.905 27.4851C486.152 26.7901 487.501 26.3213 488.952 26.0786C490.373 25.8411 491.601 25.9115 492.638 26.2897C493.701 26.6311 494.581 27.2303 495.276 28.0874C495.998 28.9077 496.575 29.9305 497.008 31.1559C497.472 32.3761 497.828 33.7278 498.077 35.211L500.555 49.9807Z" fill="white"/>
<path d="M505.238 37.3252C505.21 34.9573 505.665 32.7919 506.602 30.8288C507.571 28.8334 508.896 27.2339 510.578 26.0302C512.292 24.8262 514.253 24.2113 516.461 24.1856C518.477 24.1621 520.291 24.669 521.903 25.7063C523.515 26.7436 524.778 28.009 525.692 29.5025L525.517 14.5275L529.741 14.4783L530.094 44.7163C530.1 45.2282 530.2 45.6111 530.395 45.8648C530.622 46.0862 530.975 46.2101 531.456 46.2365L531.494 49.5003C530.695 49.6376 530.072 49.7089 529.624 49.7141C528.792 49.7238 528.053 49.4444 527.406 48.8758C526.792 48.307 526.48 47.6705 526.472 46.9666L526.447 44.8547C525.474 46.4662 524.161 47.7456 522.508 48.6929C520.855 49.6402 519.132 50.1243 517.34 50.1451C515.613 50.1652 514.009 49.8479 512.529 49.1931C511.081 48.5059 509.806 47.5607 508.704 46.3574C507.633 45.1538 506.785 43.7876 506.16 42.2588C505.565 40.6976 505.258 39.053 505.238 37.3252ZM525.824 40.7817L525.739 33.5822C525.343 32.4988 524.707 31.5301 523.833 30.6762C522.959 29.7903 521.975 29.0977 520.881 28.5984C519.819 28.0668 518.76 27.8071 517.704 27.8194C516.456 27.8339 515.323 28.1191 514.305 28.675C513.319 29.1985 512.464 29.9125 511.738 30.817C511.044 31.6892 510.512 32.6874 510.141 33.8118C509.77 34.9362 509.592 36.1064 509.606 37.3223C509.621 38.5702 509.842 39.7517 510.272 40.8668C510.733 41.9815 511.352 42.9664 512.13 43.8214C512.94 44.676 513.86 45.3373 514.89 45.8054C515.951 46.273 517.09 46.4998 518.306 46.4856C519.074 46.4767 519.856 46.3236 520.653 46.0263C521.481 45.7286 522.26 45.3195 522.99 44.799C523.72 44.2784 524.337 43.6792 524.841 43.0013C525.345 42.2914 525.673 41.5515 525.824 40.7817Z" fill="white"/>
<path d="M548.452 51.7458C546.581 51.497 544.912 50.9362 543.447 50.0635C542.017 49.1633 540.81 48.0505 539.824 46.7251C538.875 45.3721 538.187 43.8764 537.76 42.2378C537.364 40.6035 537.283 38.914 537.516 37.1695C537.829 34.8223 538.654 32.7529 539.99 30.9614C541.327 29.1699 543.025 27.8139 545.085 26.8933C547.176 25.9769 549.459 25.6832 551.933 26.0121C554.439 26.3452 556.532 27.2367 558.211 28.6866C559.926 30.109 561.162 31.8551 561.919 33.9249C562.712 35.9672 562.96 38.0985 562.664 40.3189C562.622 40.636 562.564 40.9511 562.489 41.2641C562.451 41.5496 562.406 41.7695 562.353 41.9239L541.75 39.1851C541.661 40.8196 541.913 42.3219 542.505 43.6918C543.133 45.0343 544.017 46.1525 545.157 47.0465C546.301 47.9088 547.586 48.4348 549.014 48.6246C550.537 48.827 552.015 48.6361 553.449 48.0519C554.914 47.472 555.983 46.5972 556.656 45.4277L560.139 46.9075C559.439 48.0412 558.486 49.0121 557.28 49.8203C556.107 50.6327 554.754 51.2115 553.223 51.5568C551.724 51.9063 550.134 51.9693 548.452 51.7458ZM541.995 36.2638L558.934 38.5156C559.023 36.881 558.753 35.3925 558.125 34.0501C557.497 32.7076 556.611 31.6052 555.467 30.743C554.323 29.8807 553.005 29.3505 551.515 29.1523C550.055 28.9583 548.661 29.128 547.331 29.6614C546 30.1947 544.856 31.0272 543.898 32.1588C542.972 33.2947 542.337 34.663 541.995 36.2638Z" fill="white"/>
<path d="M582.637 36.8127C580.585 36.3121 578.636 36.3674 576.79 36.9785C574.983 37.5666 573.524 38.6586 572.413 40.2544L568.51 55.2096L564.422 54.1466L570.749 29.9024L574.558 30.893L573.091 36.5128C574.364 35.0582 575.815 33.9972 577.444 33.3297C579.113 32.6394 580.722 32.4296 582.271 32.7003C582.581 32.7809 582.844 32.8493 583.061 32.9057C583.278 32.9621 583.46 33.0259 583.607 33.0971L582.637 36.8127Z" fill="white"/>
<path d="M593.883 63.1528C591.805 62.3164 590.04 61.0888 588.589 59.4699C587.179 57.8332 586.112 55.9894 585.387 53.9385C584.674 51.858 584.33 49.7189 584.355 47.5212C584.392 45.2939 584.824 43.1565 585.65 41.1092C586.513 38.9728 587.699 37.1045 589.208 35.5042C590.729 33.8742 592.443 32.5803 594.348 31.6224C596.283 30.6765 598.309 30.1465 600.425 30.0326C602.584 29.9009 604.717 30.2592 606.825 31.1074C609.882 32.338 612.148 33.9915 613.622 36.0678C615.095 38.1442 615.923 40.4092 616.106 42.8627L612.171 43.7625C611.993 41.5525 611.283 39.6798 610.039 38.1445C608.796 36.6092 607.209 35.4533 605.28 34.6767C603.676 34.0315 602.084 33.7873 600.502 33.9441C598.92 34.1008 597.415 34.5815 595.986 35.386C594.598 36.1729 593.352 37.2065 592.248 38.487C591.174 39.7794 590.314 41.2268 589.667 42.829C588.984 44.5203 588.604 46.2301 588.527 47.9584C588.492 49.669 588.745 51.306 589.287 52.8694C589.841 54.4031 590.654 55.7652 591.726 56.9556C592.799 58.146 594.107 59.0518 595.65 59.6731C597.461 60.4019 599.369 60.6349 601.373 60.3722C603.377 60.1095 605.49 59.3214 607.712 58.0078L606.04 62.147C601.824 64.3826 597.772 64.7179 593.883 63.1528ZM608.732 54.0721L601.919 51.3301L603.141 48.3036L613.338 52.4076L606.975 68.1632L603.591 66.8012L608.732 54.0721Z" fill="white"/>
<path d="M616.371 62.8102L622.562 49.1211L626.413 50.8567L620.558 63.8023C619.503 66.1348 619.121 68.0683 619.41 69.6027C619.699 71.1372 620.646 72.266 622.251 72.9891C623.301 73.4625 624.407 73.6974 625.567 73.694C626.77 73.6745 627.957 73.4195 629.127 72.929C630.297 72.4385 631.364 71.7087 632.329 70.7397L638.797 56.4383L642.648 58.1739L634.301 76.6301C634.09 77.0966 634.02 77.4859 634.089 77.7981C634.201 78.0942 634.469 78.3555 634.894 78.5819L633.549 81.5559C633.085 81.4169 632.721 81.2883 632.459 81.17C632.212 81.0939 631.972 81.0033 631.739 80.8981C631.009 80.5694 630.481 80.0681 630.154 79.394C629.84 78.6908 629.82 77.9974 630.094 77.3136L631.213 74.6063C629.456 75.8504 627.521 76.5576 625.407 76.728C623.322 76.9115 621.287 76.5562 619.304 75.6621C616.911 74.5839 615.465 72.9669 614.965 70.8111C614.478 68.626 614.947 65.9591 616.371 62.8102Z" fill="white"/>
<path d="M640.704 84.2063L648.443 60.3755L652.462 61.6761L644.723 85.5069L640.704 84.2063ZM649.896 55.9015L651.527 50.8797L655.546 52.1803L653.915 57.2021L649.896 55.9015Z" fill="white"/>
<path d="M653.18 74.5808C653.776 72.2891 654.785 70.3192 656.206 68.6711C657.666 67 659.366 65.8045 661.305 65.0843C663.276 64.3723 665.33 64.2933 667.468 64.8476C669.419 65.3536 671.036 66.3185 672.319 67.742C673.602 69.1656 674.488 70.7177 674.976 72.3981L678.748 57.9048L682.836 58.9651L675.221 88.2304C675.092 88.7259 675.088 89.1217 675.21 89.4176C675.37 89.6906 675.678 89.9028 676.135 90.0543L675.313 93.2131C674.506 93.1362 673.886 93.0415 673.453 92.929C672.647 92.7202 672.007 92.2567 671.533 91.5386C671.089 90.8286 670.956 90.1329 671.134 89.4516L671.665 87.4076C670.302 88.7071 668.699 89.597 666.854 90.0774C665.01 90.5578 663.22 90.573 661.486 90.1232C659.813 89.6895 658.349 88.9627 657.093 87.9428C655.876 86.9001 654.895 85.6537 654.148 84.2038C653.432 82.7619 652.973 81.2214 652.771 79.5823C652.609 77.9203 652.745 76.2531 653.18 74.5808ZM672.135 83.3145L673.949 76.3466C673.851 75.1973 673.493 74.0961 672.874 73.0431C672.263 71.9591 671.496 71.0328 670.572 70.2642C669.686 69.4726 668.733 68.9443 667.71 68.6792C666.502 68.366 665.334 68.344 664.206 68.6135C663.117 68.86 662.103 69.3244 661.165 70.0068C660.266 70.6662 659.49 71.4897 658.836 72.4772C658.182 73.4647 657.702 74.5469 657.396 75.7237C657.082 76.9314 656.985 78.1295 657.106 79.3178C657.257 80.5142 657.596 81.6268 658.122 82.6558C658.678 83.6927 659.392 84.572 660.262 85.2936C661.164 86.0232 662.203 86.5406 663.38 86.8458C664.123 87.0386 664.918 87.096 665.765 87.0181C666.643 86.9483 667.503 86.758 668.344 86.4472C669.186 86.1365 669.939 85.7202 670.604 85.1984C671.277 84.6456 671.787 84.0176 672.135 83.3145Z" fill="white"/>
<path d="M695.237 95.9932C693.353 95.8692 691.651 95.4204 690.13 94.6469C688.644 93.8435 687.365 92.8133 686.294 91.5562C685.256 90.2693 684.47 88.8225 683.935 87.2159C683.431 85.6113 683.238 83.931 683.354 82.1748C683.51 79.812 684.195 77.6924 685.409 75.8161C686.624 73.9398 688.228 72.474 690.222 71.4187C692.248 70.3655 694.506 69.9209 696.996 70.0849C699.519 70.2509 701.666 71.0016 703.438 72.3369C705.244 73.6423 706.593 75.3026 707.487 77.3176C708.414 79.3028 708.803 81.4129 708.656 83.6481C708.635 83.9674 708.598 84.2856 708.545 84.6028C708.526 84.8902 708.495 85.1126 708.452 85.2702L687.713 83.9049C687.733 85.5418 688.084 87.024 688.766 88.3517C689.482 89.6495 690.439 90.7067 691.636 91.523C692.835 92.3075 694.152 92.747 695.589 92.8416C697.122 92.9425 698.584 92.6539 699.976 91.9759C701.4 91.2999 702.408 90.3561 703.001 89.1445L706.575 90.3899C705.952 91.5675 705.066 92.5996 703.917 93.486C702.8 94.3746 701.489 95.0419 699.984 95.488C698.512 95.9362 696.929 96.1047 695.237 95.9932ZM687.763 80.9738L704.814 82.0963C704.794 80.4595 704.425 78.9921 703.709 77.6943C702.993 76.3964 702.036 75.3553 700.837 74.5709C699.638 73.7864 698.288 73.3448 696.788 73.246C695.319 73.1493 693.939 73.4112 692.647 74.0317C691.355 74.6522 690.269 75.5588 689.388 76.7515C688.54 77.9464 687.998 79.3538 687.763 80.9738Z" fill="white"/>
<path d="M746.898 92.7547L737.257 60.1167L741.402 58.8969L746.732 76.9421L758.241 53.8901L762.708 52.5754L753.84 70.8468L773.098 85.0425L768.448 86.4115L751.95 74.1052L748.091 81.5455L751.042 91.5348L746.898 92.7547Z" fill="white"/>
<path d="M777.928 82.6834L768.567 59.4415L772.487 57.8682L781.848 81.1101L777.928 82.6834ZM766.81 55.078L764.837 50.1803L768.757 48.607L770.73 53.5048L766.81 55.078Z" fill="white"/>
<path d="M807.957 68.5206L804.089 70.2184L798.439 57.3916C797.368 54.961 796.207 53.3565 794.955 52.5781C793.719 51.7575 792.34 51.6816 790.816 52.3505C789.761 52.8135 788.822 53.5401 788 54.5302C787.206 55.5075 786.599 56.6302 786.179 57.8981C785.775 59.124 785.655 60.3997 785.819 61.7255L791.914 75.5626L788.046 77.2604L777.946 54.3303L781.462 52.7869L783.629 57.7067C783.767 56.3531 784.146 55.0687 784.764 53.8536C785.383 52.6384 786.211 51.5411 787.248 50.5616C788.285 49.5822 789.478 48.7966 790.826 48.2049C792.144 47.6262 793.353 47.3927 794.451 47.5047C795.566 47.5746 796.566 47.9394 797.451 48.5993C798.352 49.2171 799.164 50.0666 799.885 51.148C800.635 52.2165 801.313 53.4389 801.92 54.8153L807.957 68.5206Z" fill="white"/>
<path d="M807.557 55.6093C806.722 53.3933 806.41 51.2033 806.621 49.0392C806.85 46.8339 807.55 44.8792 808.721 43.1752C809.921 41.4599 811.555 40.2143 813.622 39.4383C815.509 38.7298 817.388 38.5885 819.258 39.0144C821.129 39.4403 822.748 40.1995 824.117 41.292L818.838 27.2774L822.792 25.7929L833.453 54.0917C833.633 54.5708 833.858 54.8964 834.128 55.0685C834.417 55.1994 834.792 55.1955 835.252 55.0567L836.403 58.1112C835.699 58.5121 835.137 58.7913 834.718 58.9488C833.939 59.2412 833.148 59.2303 832.346 58.9162C831.574 58.5909 831.064 58.0988 830.816 57.44L830.071 55.4636C829.706 57.3095 828.909 58.9591 827.678 60.4123C826.447 61.8655 824.993 62.9071 823.315 63.5368C821.698 64.1441 820.081 64.392 818.466 64.2805C816.87 64.1278 815.348 63.6736 813.901 62.918C812.484 62.1512 811.22 61.156 810.109 59.9322C809.017 58.6673 808.166 57.2263 807.557 55.6093ZM828.094 51.8479L825.555 45.1101C824.812 44.2269 823.884 43.5329 822.771 43.028C821.646 42.4932 820.484 42.1774 819.285 42.0806C818.105 41.9426 817.02 42.0592 816.031 42.4304C814.863 42.869 813.895 43.5227 813.128 44.3917C812.38 45.2195 811.82 46.1819 811.446 47.2791C811.092 48.335 810.932 49.4545 810.968 50.6376C811.003 51.8206 811.235 52.9811 811.663 54.1191C812.103 55.287 812.716 56.3219 813.5 57.2238C814.314 58.1144 815.233 58.8291 816.257 59.3677C817.31 59.8951 818.401 60.2034 819.529 60.2927C820.687 60.3708 821.835 60.1961 822.973 59.7688C823.692 59.4989 824.375 59.0886 825.023 58.5379C825.7 57.976 826.293 57.3261 826.802 56.5883C827.31 55.8505 827.686 55.0772 827.928 54.2684C828.159 53.4297 828.214 52.6229 828.094 51.8479Z" fill="white"/>
<path d="M851.52 54.7892C849.693 55.2643 847.936 55.374 846.249 55.1184C844.584 54.8238 843.045 54.2486 841.631 53.3928C840.24 52.4981 839.037 51.3726 838.022 50.0165C837.038 48.6523 836.323 47.1187 835.879 45.4157C835.281 43.1244 835.262 40.8975 835.822 38.7349C836.383 36.5724 837.442 34.6767 839.002 33.0479C840.592 31.411 842.595 30.2785 845.011 29.6504C847.457 29.0142 849.732 29.0509 851.835 29.7604C853.962 30.4309 855.767 31.5817 857.25 33.2128C858.757 34.8049 859.793 36.6846 860.359 38.852C860.44 39.1617 860.505 39.4753 860.555 39.793C860.628 40.0717 860.669 40.2925 860.678 40.4553L840.563 45.6857C841.099 47.2326 841.9 48.5287 842.966 49.5739C844.056 50.5802 845.297 51.2824 846.691 51.6805C848.077 52.0476 849.466 52.05 850.86 51.6876C852.346 51.301 853.643 50.5671 854.75 49.4858C855.888 48.3964 856.547 47.1835 856.727 45.8471L860.512 45.9044C860.293 47.2179 859.778 48.476 858.967 49.6787C858.188 50.8733 857.154 51.919 855.867 52.8159C854.611 53.7046 853.162 54.3624 851.52 54.7892ZM839.684 42.8888L856.222 38.5885C855.686 37.0416 854.874 35.765 853.784 34.7588C852.695 33.7525 851.458 33.0658 850.072 32.6987C848.687 32.3316 847.266 32.3373 845.81 32.7157C844.386 33.0862 843.158 33.769 842.128 34.7643C841.098 35.7595 840.354 36.9616 839.894 38.3705C839.466 39.7713 839.396 41.2774 839.684 42.8888Z" fill="white"/>
<path d="M877.543 27.9771C875.448 28.2476 873.65 28.9997 872.148 30.2334C870.675 31.4317 869.708 32.9749 869.247 34.8631L871 50.2193L866.803 50.6968L863.961 25.8025L867.872 25.3576L868.531 31.1281C869.193 29.3136 870.164 27.8022 871.443 26.5938C872.75 25.3501 874.176 24.576 875.719 24.2715C876.037 24.2354 876.307 24.2046 876.53 24.1793C876.753 24.154 876.945 24.1482 877.108 24.1619L877.543 27.9771Z" fill="white"/>
<path d="M897.405 49.6934C895.165 49.6691 893.074 49.1664 891.133 48.1853C889.223 47.1726 887.558 45.8425 886.136 44.195C884.714 42.5155 883.614 40.6474 882.836 38.5909C882.059 36.5023 881.682 34.3541 881.706 32.1463C881.731 29.8424 882.155 27.6709 882.977 25.6316C883.8 23.5604 884.924 21.7325 886.349 20.1479C887.807 18.5636 889.5 17.3338 891.43 16.4587C893.392 15.5519 895.509 15.1108 897.78 15.1354C901.076 15.1712 903.789 15.8886 905.917 17.2878C908.046 18.6869 909.643 20.4963 910.707 22.716L907.37 24.984C906.399 22.9893 905.056 21.5027 903.338 20.524C901.621 19.5453 899.722 19.0447 897.642 19.0222C895.914 19.0035 894.342 19.3544 892.926 20.0751C891.51 20.7958 890.284 21.7906 889.246 23.0594C888.24 24.2966 887.457 25.7122 886.895 27.3062C886.366 28.9006 886.092 30.5617 886.073 32.2896C886.053 34.1135 886.322 35.8445 886.881 37.4826C887.471 39.0891 888.304 40.5222 889.378 41.782C890.453 43.0097 891.706 43.9833 893.139 44.7029C894.571 45.4224 896.119 45.7912 897.783 45.8093C899.735 45.8304 901.596 45.3546 903.367 44.3817C905.137 43.4088 906.818 41.907 908.408 39.8761L908.359 44.3398C905.248 47.9543 901.596 49.7388 897.405 49.6934ZM907.924 35.8386L900.58 35.759L900.616 32.4952L911.607 32.6143L911.422 49.6053L907.775 49.5658L907.924 35.8386Z" fill="white"/>
<path d="M917.464 39.6702L919.763 24.823L923.937 25.4671L921.763 39.5078C921.372 42.0377 921.521 44.0034 922.21 45.405C922.9 46.8065 924.115 47.6415 925.854 47.9098C926.993 48.0855 928.12 48.0167 929.237 47.7033C930.391 47.3633 931.466 46.8005 932.462 46.0152C933.458 45.2299 934.291 44.2413 934.961 43.0496L937.362 27.5384L941.537 28.1825L938.438 48.2C938.359 48.706 938.396 49.1001 938.546 49.3823C938.733 49.6379 939.062 49.818 939.531 49.9228L939.032 53.1484C938.547 53.1385 938.163 53.1115 937.878 53.0676C937.621 53.0602 937.365 53.037 937.112 52.998C936.321 52.876 935.678 52.5339 935.182 51.9717C934.691 51.3779 934.486 50.7149 934.567 49.9827L934.921 47.0745C933.561 48.7428 931.886 49.9414 929.895 50.6703C927.936 51.4041 925.881 51.6052 923.73 51.2734C921.137 50.8733 919.311 49.7011 918.252 47.7569C917.198 45.781 916.935 43.0855 917.464 39.6702Z" fill="white"/>
<path d="M944.863 55.5846L952.326 31.6655L956.359 32.9195L948.897 56.8386L944.863 55.5846ZM953.726 27.175L955.299 22.1346L959.332 23.3886L957.76 28.429L953.726 27.175Z" fill="white"/>
<path d="M959.765 46.2179C960.745 44.0624 962.077 42.2944 963.759 40.9139C965.484 39.5175 967.364 38.6305 969.399 38.2529C971.463 37.8885 973.501 38.1621 975.512 39.0736C977.348 39.9059 978.776 41.1329 979.796 42.7547C980.816 44.3765 981.423 46.0568 981.616 47.7958L987.817 34.1637L991.664 35.9075L979.144 63.4339C978.932 63.8999 978.86 64.2891 978.929 64.6014C979.041 64.8978 979.308 65.1596 979.732 65.3869L978.381 68.358C977.599 68.1442 977.004 67.9449 976.596 67.7599C975.838 67.4165 975.287 66.8505 974.943 66.0619C974.628 65.2866 974.616 64.5785 974.907 63.9377L975.782 62.0152C974.216 63.0621 972.483 63.6645 970.583 63.8222C968.683 63.98 966.917 63.689 965.285 62.9492C963.711 62.2358 962.393 61.2694 961.33 60.05C960.31 58.8147 959.557 57.419 959.069 55.863C958.611 54.3201 958.423 52.7241 958.505 51.075C958.629 49.4099 959.049 47.7909 959.765 46.2179ZM976.946 58.0636L979.927 51.5097C980.028 50.3608 979.864 49.2147 979.434 48.0716C979.018 46.8993 978.421 45.8555 977.642 44.9403C976.905 44.0092 976.056 43.3256 975.094 42.8897C973.958 42.3745 972.81 42.1531 971.653 42.2255C970.537 42.282 969.459 42.5662 968.417 43.0779C967.418 43.5737 966.512 44.2521 965.699 45.1131C964.885 45.9741 964.227 46.958 963.723 48.0649C963.207 49.2009 962.906 50.3645 962.821 51.5558C962.765 52.7602 962.908 53.9142 963.25 55.0177C963.621 56.1344 964.174 57.1227 964.907 57.9823C965.671 58.8552 966.606 59.5427 967.713 60.0447C968.413 60.3617 969.187 60.5543 970.034 60.6224C970.912 60.7037 971.791 60.6633 972.674 60.5011C973.556 60.3389 974.369 60.0576 975.114 59.6573C975.872 59.2278 976.482 58.6966 976.946 58.0636Z" fill="white"/>
<path d="M994.779 77.0611C993.08 76.2379 991.672 75.1822 990.555 73.8941C989.48 72.5912 988.684 71.1562 988.165 69.5891C987.688 68.0071 987.505 66.3715 987.615 64.6823C987.753 63.0071 988.207 61.378 988.977 59.7952C990.013 57.6656 991.447 55.9603 993.279 54.6792C995.112 53.3981 997.151 52.6438 999.397 52.4162C1001.67 52.2026 1003.93 52.64 1006.18 53.7283C1008.45 54.8307 1010.16 56.3333 1011.3 58.2362C1012.48 60.1242 1013.1 62.1693 1013.17 64.3713C1013.28 66.5585 1012.85 68.6593 1011.87 70.6738C1011.73 70.9616 1011.57 71.2424 1011.41 71.5162C1011.28 71.7752 1011.17 71.9697 1011.07 72.0996L992.365 63.0368C991.766 64.5603 991.533 66.065 991.664 67.5511C991.838 69.0223 992.326 70.3609 993.127 71.567C993.943 72.7443 994.998 73.6469 996.294 74.2748C997.676 74.9446 999.14 75.2272 1000.69 75.1226C1002.26 75.0319 1003.55 74.537 1004.56 73.6379L1007.4 76.1351C1006.38 76.9915 1005.17 77.6141 1003.77 78.0031C1002.4 78.406 1000.93 78.5311 999.369 78.3784C997.835 78.2398 996.305 77.8007 994.779 77.0611ZM993.515 60.3407L1008.89 67.792C1009.49 66.2684 1009.7 64.7711 1009.53 63.2999C1009.36 61.8287 1008.86 60.5044 1008.05 59.3271C1007.23 58.1498 1006.15 57.2332 1004.79 56.5774C1003.47 55.9355 1002.09 55.6591 1000.66 55.748C999.228 55.8369 997.88 56.2682 996.614 57.0417C995.377 57.8292 994.344 58.9288 993.515 60.3407Z" fill="white"/>
<path d="M1041.68 95.283L1043.69 61.3107L1048 61.5654L1046.89 80.3485L1065.54 62.5536L1070.19 62.8282L1055.65 77.0191L1068.94 96.8937L1064.1 96.6078L1052.76 79.4452L1046.61 85.1401L1045.99 95.5378L1041.68 95.283Z" fill="white"/>
<path d="M1075.41 96.6404L1073.63 71.6477L1077.84 71.3486L1079.62 96.3412L1075.41 96.6404ZM1073.29 66.9556L1072.92 61.689L1077.13 61.3898L1077.51 66.6565L1073.29 66.9556Z" fill="white"/>
<path d="M1109.83 92.1372L1105.68 92.9583L1102.95 79.2115C1102.43 76.6065 1101.65 74.7886 1100.59 73.7577C1099.57 72.6891 1098.24 72.3166 1096.6 72.6401C1095.47 72.864 1094.4 73.3705 1093.38 74.1593C1092.4 74.942 1091.56 75.9069 1090.87 77.054C1090.21 78.1636 1089.82 79.3833 1089.69 80.7134L1092.64 95.543L1088.5 96.3642L1083.61 71.7894L1087.38 71.0429L1088.43 76.3156C1088.86 75.0237 1089.5 73.8515 1090.37 72.7988C1091.24 71.7461 1092.28 70.8537 1093.51 70.1217C1094.73 69.3896 1096.07 68.8805 1097.51 68.5943C1098.92 68.3144 1100.15 68.3479 1101.2 68.6948C1102.27 69.0042 1103.17 69.5767 1103.89 70.4125C1104.64 71.2107 1105.25 72.2158 1105.72 73.4276C1106.22 74.6333 1106.61 75.9737 1106.91 77.4488L1109.83 92.1372Z" fill="white"/>
<path d="M1111.77 78.6077C1110.77 76.4604 1110.29 74.3 1110.34 72.1264C1110.41 69.9103 1110.96 67.9089 1112 66.1223C1113.07 64.3222 1114.6 62.9581 1116.6 62.0298C1118.43 61.1823 1120.3 60.901 1122.19 61.1859C1124.09 61.4709 1125.76 62.1069 1127.21 63.094L1120.9 49.5141L1124.73 47.7383L1137.48 75.1594C1137.69 75.6237 1137.94 75.9315 1138.22 76.0829C1138.52 76.1919 1138.9 76.16 1139.34 75.9872L1140.72 78.9469C1140.05 79.3993 1139.51 79.7197 1139.1 79.908C1138.35 80.2578 1137.56 80.306 1136.74 80.0528C1135.94 79.7861 1135.4 79.3335 1135.1 78.6952L1134.21 76.78C1133.98 78.6479 1133.31 80.3524 1132.19 81.8934C1131.07 83.4345 1129.7 84.5816 1128.08 85.335C1126.51 86.0614 1124.91 86.4294 1123.3 86.4389C1121.69 86.4059 1120.14 86.0667 1118.64 85.4215C1117.17 84.7628 1115.83 83.8648 1114.64 82.7276C1113.45 81.5479 1112.5 80.1746 1111.77 78.6077ZM1131.97 73.3225L1128.93 66.7937C1128.12 65.9685 1127.15 65.3459 1126 64.9256C1124.84 64.4764 1123.65 64.2483 1122.45 64.2414C1121.26 64.1921 1120.19 64.3894 1119.23 64.8333C1118.1 65.358 1117.18 66.0822 1116.48 67.0059C1115.8 67.8872 1115.31 68.8888 1115.02 70.0107C1114.75 71.0902 1114.67 72.2184 1114.8 73.3954C1114.92 74.5724 1115.24 75.7123 1115.75 76.8149C1116.28 77.9466 1116.96 78.9328 1117.81 79.7735C1118.69 80.6007 1119.66 81.2447 1120.72 81.7053C1121.81 82.1524 1122.92 82.3784 1124.06 82.3831C1125.22 82.3744 1126.35 82.1145 1127.45 81.6033C1128.15 81.2804 1128.8 80.8203 1129.4 80.2228C1130.04 79.6119 1130.58 78.9196 1131.03 78.1459C1131.48 77.3722 1131.8 76.5731 1131.98 75.7485C1132.15 74.8948 1132.14 74.0862 1131.97 73.3225Z" fill="white"/>
<path d="M1156.57 70.8505C1154.89 71.7203 1153.2 72.2183 1151.5 72.3446C1149.81 72.4279 1148.19 72.2097 1146.62 71.6903C1145.06 71.1278 1143.64 70.2986 1142.34 69.2028C1141.08 68.0922 1140.04 66.7564 1139.23 65.1954C1138.13 63.0952 1137.62 60.9289 1137.68 58.6964C1137.75 56.4639 1138.36 54.3804 1139.51 52.4458C1140.7 50.4965 1142.4 48.9469 1144.62 47.797C1146.86 46.6325 1149.09 46.1619 1151.3 46.3854C1153.52 46.5657 1155.53 47.2857 1157.35 48.5452C1159.17 49.7616 1160.6 51.3632 1161.63 53.3498C1161.78 53.6337 1161.92 53.9248 1162.03 54.2234C1162.17 54.4788 1162.26 54.6849 1162.3 54.8415L1143.86 64.4161C1144.72 65.8046 1145.79 66.8896 1147.07 67.671C1148.35 68.4094 1149.72 68.8174 1151.17 68.8953C1152.6 68.9448 1153.96 68.6378 1155.23 67.9744C1156.6 67.2669 1157.7 66.2629 1158.54 64.9626C1159.4 63.6476 1159.77 62.3187 1159.65 60.976L1163.36 60.1894C1163.43 61.5185 1163.21 62.8594 1162.69 64.212C1162.2 65.55 1161.42 66.7992 1160.37 67.9598C1159.34 69.1056 1158.07 70.0692 1156.57 70.8505ZM1142.37 61.8856L1157.54 54.0136C1156.67 52.6251 1155.6 51.5617 1154.31 50.8234C1153.02 50.0851 1151.66 49.6912 1150.23 49.6417C1148.8 49.5922 1147.41 49.9139 1146.08 50.6068C1144.77 51.2849 1143.73 52.2236 1142.95 53.4229C1142.16 54.6222 1141.71 55.9596 1141.57 57.435C1141.47 58.8956 1141.73 60.3792 1142.37 61.8856Z" fill="white"/>
<path d="M1174.55 37.8545C1172.65 38.7763 1171.19 40.0604 1170.16 41.7067C1169.14 43.3106 1168.72 45.0805 1168.88 47.0166L1175.43 61.0147L1171.6 62.8004L1160.98 40.1078L1164.55 38.4438L1167.01 43.704C1167.06 41.7737 1167.5 40.0328 1168.33 38.4811C1169.17 36.887 1170.28 35.7005 1171.64 34.9217C1171.93 34.7864 1172.18 34.6714 1172.38 34.5767C1172.59 34.482 1172.77 34.4153 1172.93 34.3767L1174.55 37.8545Z" fill="white"/>
<path d="M1199.25 53.8355C1197.07 54.3131 1194.92 54.2912 1192.8 53.7696C1190.71 53.21 1188.79 52.2866 1187.04 50.9995C1185.27 49.681 1183.78 48.1068 1182.56 46.2768C1181.34 44.4156 1180.49 42.4065 1180.01 40.2496C1179.52 37.999 1179.45 35.7881 1179.79 33.6169C1180.13 31.4145 1180.81 29.3817 1181.84 27.5185C1182.91 25.6485 1184.28 24.0711 1185.97 22.7865C1187.68 21.4637 1189.64 20.5601 1191.86 20.0757C1195.08 19.3728 1197.88 19.4649 1200.27 20.3519C1202.66 21.2389 1204.63 22.6448 1206.16 24.5697L1203.42 27.5265C1202.02 25.8 1200.38 24.6521 1198.49 24.0828C1196.59 23.5135 1194.63 23.4506 1192.6 23.8941C1190.91 24.2626 1189.46 24.9564 1188.24 25.9756C1187.02 26.9948 1186.05 28.2387 1185.32 29.7075C1184.62 31.1381 1184.17 32.6929 1183.98 34.3718C1183.83 36.044 1183.93 37.724 1184.3 39.412C1184.69 41.1938 1185.34 42.8204 1186.26 44.2918C1187.19 45.7251 1188.32 46.9353 1189.65 47.9224C1190.98 48.8782 1192.42 49.5465 1193.98 49.9271C1195.53 50.3078 1197.12 50.3207 1198.75 49.9658C1200.66 49.5496 1202.36 48.6693 1203.87 47.325C1205.38 45.9807 1206.68 44.1411 1207.77 41.8061L1208.73 46.1668C1206.51 50.3854 1203.35 52.9416 1199.25 53.8355ZM1206.4 37.9801L1199.22 39.5461L1198.52 36.3576L1209.26 34.0138L1212.9 50.6124L1209.33 51.3902L1206.4 37.9801Z" fill="white"/>
<path d="M1216.29 40.2072L1215.83 25.1904L1220.05 25.0607L1220.49 39.262C1220.57 41.8208 1221.07 43.7261 1222.01 44.978C1222.94 46.2299 1224.29 46.8288 1226.05 46.7748C1227.2 46.7395 1228.3 46.4657 1229.34 45.9535C1230.41 45.4084 1231.36 44.6588 1232.2 43.7047C1233.03 42.7506 1233.67 41.6265 1234.11 40.3324L1233.63 24.6438L1237.85 24.5142L1238.47 44.7606C1238.49 45.2723 1238.6 45.6532 1238.8 45.9032C1239.03 46.1202 1239.38 46.2374 1239.86 46.2546L1239.96 49.5171C1239.49 49.5958 1239.1 49.6395 1238.82 49.6484C1238.56 49.6882 1238.3 49.7121 1238.05 49.7199C1237.25 49.7445 1236.55 49.5257 1235.96 49.0636C1235.37 48.5695 1235.05 47.9552 1234.99 47.2205L1234.81 44.2968C1233.78 46.1853 1232.35 47.6698 1230.53 48.7503C1228.74 49.8298 1226.75 50.4029 1224.58 50.4697C1221.96 50.5502 1219.94 49.7315 1218.55 48.0136C1217.15 46.2637 1216.4 43.6616 1216.29 40.2072Z" fill="white"/>
<path d="M1245.59 49.1643L1247.44 24.1762L1251.65 24.4859L1249.81 49.474L1245.59 49.1643ZM1247.78 19.4849L1248.17 14.2192L1252.38 14.5289L1251.99 19.7946L1247.78 19.4849Z" fill="white"/>
<path d="M1256.95 38.3152C1257.36 35.9827 1258.2 33.9376 1259.48 32.1798C1260.8 30.396 1262.4 29.0668 1264.28 28.192C1266.18 27.3227 1268.22 27.0778 1270.4 27.4573C1272.38 27.8038 1274.07 28.6347 1275.47 29.9498C1276.86 31.265 1277.87 32.7403 1278.49 34.3758L1281.08 19.6242L1285.24 20.3501L1280.02 50.1371C1279.93 50.6414 1279.96 51.0362 1280.11 51.3213C1280.29 51.5805 1280.61 51.767 1281.08 51.8811L1280.52 55.0962C1279.71 55.0847 1279.08 55.0405 1278.64 54.9635C1277.82 54.8205 1277.15 54.4104 1276.62 53.733C1276.12 53.0611 1275.93 52.3785 1276.05 51.685L1276.41 49.6047C1275.16 51.0102 1273.63 52.027 1271.83 52.6551C1270.03 53.2832 1268.25 53.4433 1266.49 53.1353C1264.78 52.8383 1263.27 52.2323 1261.93 51.3174C1260.63 50.3764 1259.56 49.2136 1258.69 47.8288C1257.86 46.4495 1257.28 44.9511 1256.95 43.3337C1256.65 41.6901 1256.65 40.0173 1256.95 38.3152ZM1276.55 45.4868L1277.79 38.3947C1277.6 37.257 1277.15 36.1883 1276.45 35.1888C1275.75 34.1577 1274.91 33.2965 1273.93 32.6052C1272.98 31.8878 1271.99 31.4384 1270.95 31.2569C1269.72 31.0424 1268.56 31.1151 1267.45 31.475C1266.39 31.8088 1265.41 32.3537 1264.53 33.1098C1263.69 33.8399 1262.99 34.7235 1262.41 35.7607C1261.84 36.798 1261.45 37.9155 1261.24 39.1132C1261.03 40.3425 1261.03 41.5446 1261.24 42.7193C1261.49 43.8995 1261.92 44.9811 1262.53 45.9642C1263.17 46.9527 1263.95 47.7714 1264.88 48.4202C1265.83 49.0745 1266.91 49.5062 1268.11 49.7152C1268.87 49.8472 1269.66 49.8401 1270.5 49.6939C1271.37 49.5532 1272.21 49.2939 1273.02 48.9161C1273.84 48.5383 1274.55 48.0624 1275.17 47.4885C1275.8 46.883 1276.26 46.2158 1276.55 45.4868Z" fill="white"/>
<path d="M1294.16 59.6142C1292.39 58.9371 1290.9 58.0039 1289.68 56.8145C1288.5 55.6068 1287.58 54.244 1286.93 52.7261C1286.33 51.1898 1286.01 49.5754 1285.97 47.8828C1285.97 46.2017 1286.28 44.5401 1286.92 42.8979C1287.77 40.6884 1289.05 38.8681 1290.77 37.437C1292.49 36.0059 1294.46 35.0822 1296.67 34.6661C1298.92 34.2614 1301.21 34.5066 1303.54 35.4018C1305.9 36.3084 1307.73 37.6619 1309.02 39.4621C1310.36 41.244 1311.16 43.2292 1311.41 45.4177C1311.7 47.5879 1311.45 49.7181 1310.64 51.8081C1310.53 52.1067 1310.4 52.3995 1310.25 52.6866C1310.15 52.9553 1310.05 53.1586 1309.97 53.2964L1290.57 45.8425C1290.1 47.4111 1289.99 48.9303 1290.25 50.4001C1290.55 51.8515 1291.15 53.1443 1292.05 54.2786C1292.96 55.3831 1294.09 56.1935 1295.43 56.71C1296.86 57.2608 1298.35 57.419 1299.88 57.1844C1301.44 56.9613 1302.68 56.3593 1303.61 55.3785L1306.65 57.6273C1305.71 58.5668 1304.55 59.2893 1303.19 59.7949C1301.86 60.3119 1300.41 60.5602 1298.84 60.5399C1297.3 60.531 1295.74 60.2225 1294.16 59.6142ZM1291.48 43.0589L1307.44 49.1873C1307.9 47.6186 1307.99 46.1086 1307.69 44.6572C1307.39 43.2059 1306.79 41.9279 1305.88 40.8235C1304.96 39.719 1303.81 38.8971 1302.4 38.3577C1301.03 37.8298 1299.63 37.6705 1298.21 37.8798C1296.8 38.0891 1295.49 38.6325 1294.29 39.51C1293.13 40.3991 1292.19 41.582 1291.48 43.0589Z" fill="white"/>
<path d="M1325.61 74.2031L1340.24 43.4765L1344.14 45.3285L1336.05 62.3169L1360.03 52.8163L1364.24 54.8123L1345.42 62.5126L1350.28 85.9115L1345.9 83.8332L1341.84 63.68L1333.99 66.6507L1329.51 76.0551L1325.61 74.2031Z" fill="white"/>
<path d="M1355.72 87.3474L1363.59 63.5574L1367.6 64.879L1359.74 88.6689L1355.72 87.3474ZM1365.06 59.0911L1366.72 54.0779L1370.73 55.3995L1369.08 60.4127L1365.06 59.0911Z" fill="white"/>
<path d="M1388.36 95.0149L1384.21 94.2287L1386.83 80.4593C1387.32 77.85 1387.28 75.8707 1386.69 74.5212C1386.13 73.1462 1385.04 72.3039 1383.4 71.9942C1382.27 71.7797 1381.09 71.8482 1379.85 72.1997C1378.64 72.5571 1377.5 73.1396 1376.44 73.9474C1375.41 74.7297 1374.59 75.7138 1373.97 76.8998L1371.15 91.7538L1367 90.9676L1371.68 66.3524L1375.45 67.0672L1374.44 72.3486C1375.33 71.3105 1376.37 70.4654 1377.56 69.8131C1378.76 69.1609 1380.07 68.7241 1381.48 68.5027C1382.89 68.2813 1384.32 68.3076 1385.76 68.5816C1387.18 68.8496 1388.31 69.3402 1389.15 70.0533C1390.03 70.741 1390.64 71.607 1391 72.6513C1391.39 73.6702 1391.58 74.8293 1391.56 76.1284C1391.57 77.4336 1391.44 78.8249 1391.16 80.3024L1388.36 95.0149Z" fill="white"/>
<path d="M1394.28 84.1144C1394.3 81.7465 1394.8 79.5909 1395.78 77.6474C1396.79 75.6722 1398.15 74.1002 1399.85 72.9312C1401.59 71.7625 1403.56 71.1879 1405.77 71.2074C1407.79 71.2252 1409.59 71.7691 1411.18 72.8392C1412.77 73.9093 1414.01 75.2003 1414.89 76.7121L1415.02 61.7367L1419.25 61.774L1418.98 92.0128C1418.98 92.5248 1419.07 92.9096 1419.26 93.1673C1419.48 93.3933 1419.83 93.5244 1420.31 93.5606L1420.28 96.8245C1419.48 96.9454 1418.86 97.0039 1418.41 97C1417.58 96.9926 1416.84 96.6981 1416.21 96.1165C1415.61 95.5352 1415.31 94.8925 1415.31 94.1885L1415.33 92.0766C1414.33 93.6678 1412.99 94.92 1411.31 95.8333C1409.64 96.7466 1407.91 97.1953 1406.12 97.1795C1404.39 97.1642 1402.79 96.8141 1401.33 96.1291C1399.89 95.4124 1398.64 94.4413 1397.56 93.2158C1396.52 91.9905 1395.7 90.6072 1395.1 89.0659C1394.54 87.4929 1394.27 85.8424 1394.28 84.1144ZM1414.79 87.9917L1414.86 80.792C1414.48 79.7006 1413.87 78.7192 1413.01 77.8476C1412.15 76.944 1411.18 76.2314 1410.1 75.7098C1409.05 75.1565 1408 74.8752 1406.94 74.8658C1405.69 74.8548 1404.55 75.1168 1403.53 75.6517C1402.53 76.1549 1401.66 76.8513 1400.91 77.7408C1400.2 78.5985 1399.65 79.5857 1399.26 80.7022C1398.86 81.8188 1398.66 82.9851 1398.65 84.201C1398.64 85.449 1398.84 86.6347 1399.24 87.7584C1399.68 88.8823 1400.28 89.8796 1401.04 90.7504C1401.83 91.6214 1402.74 92.3014 1403.76 92.7904C1404.81 93.2797 1405.94 93.5298 1407.16 93.5405C1407.93 93.5473 1408.71 93.4102 1409.51 93.1293C1410.35 92.8486 1411.14 92.4556 1411.88 91.9501C1412.62 91.4446 1413.25 90.8582 1413.76 90.1907C1414.28 89.4912 1414.63 88.7582 1414.79 87.9917Z" fill="white"/>
<path d="M1437.69 95.9468C1435.81 96.1258 1434.06 95.9553 1432.44 95.435C1430.84 94.8799 1429.41 94.0677 1428.15 92.9983C1426.92 91.8941 1425.91 90.5919 1425.13 89.0917C1424.37 87.5885 1423.91 85.9609 1423.74 84.2089C1423.52 81.8516 1423.85 79.6498 1424.75 77.6035C1425.65 75.5572 1427 73.8536 1428.8 72.4929C1430.63 71.1291 1432.78 70.3288 1435.27 70.0921C1437.79 69.8523 1440.03 70.2496 1441.99 71.2841C1443.98 72.2836 1445.58 73.7064 1446.78 75.5524C1448.02 77.3635 1448.74 79.384 1448.96 81.6138C1448.99 81.9324 1449 82.2525 1449 82.574C1449.03 82.8607 1449.03 83.0852 1449.02 83.2475L1428.32 85.2189C1428.61 86.8314 1429.19 88.2383 1430.08 89.4396C1430.99 90.6061 1432.11 91.4964 1433.42 92.1107C1434.73 92.6932 1436.1 92.9161 1437.53 92.7795C1439.06 92.6338 1440.46 92.115 1441.73 91.223C1443.02 90.3279 1443.87 89.235 1444.26 87.9441L1447.98 88.6015C1447.56 89.8636 1446.85 91.024 1445.86 92.0829C1444.9 93.1387 1443.71 94.0071 1442.3 94.6883C1440.92 95.3664 1439.38 95.7859 1437.69 95.9468ZM1427.9 82.3179L1444.91 80.6971C1444.63 79.0846 1444.03 77.6952 1443.12 76.5287C1442.2 75.3622 1441.09 74.4878 1439.78 73.9054C1438.47 73.3229 1437.07 73.1031 1435.57 73.2457C1434.1 73.3853 1432.78 73.8647 1431.61 74.6839C1430.43 75.5031 1429.51 76.5718 1428.83 77.89C1428.18 79.2052 1427.87 80.6811 1427.9 82.3179Z" fill="white"/>
</svg>
