<svg width="64" height="64" viewBox="0 0 64 64" fill="none" xmlns="http://www.w3.org/2000/svg">
<g id="Property 1=medium" clip-path="url(#clip0_3948_28616)">
<path id="Vector" d="M56.8067 50.9846C56.8097 50.9732 56.8183 50.9493 56.8392 50.9188L56.8397 50.9182L56.8067 50.9846ZM56.8067 50.9846C56.806 50.9896 56.8053 50.9918 56.8053 50.9918C56.8053 50.9918 56.8054 50.9893 56.8067 50.9846ZM7.11529 50.8713C7.12368 50.8775 7.13967 50.8916 7.15772 50.9173L7.15829 50.9181L7.11529 50.8713ZM7.11529 50.8713C7.11088 50.869 7.10922 50.8675 7.10922 50.8675C7.10922 50.8675 7.11152 50.8686 7.11529 50.8713ZM13.049 25.5544L13.0494 25.5531C13.2742 24.8289 13.1697 24.091 12.9978 23.486C12.8209 22.864 12.5266 22.224 12.1941 21.6065C11.5827 20.4718 10.7332 19.2201 9.93582 18.0452C9.8694 17.9473 9.80337 17.85 9.73785 17.7533C8.85482 16.4504 8.06935 15.2666 7.59408 14.2799C7.35632 13.7863 7.23866 13.426 7.20199 13.185C7.19707 13.1524 7.19393 13.1251 7.19214 13.1024C7.21568 13.0962 7.24512 13.0899 7.28133 13.0837C7.51526 13.0446 7.88156 13.0501 8.40431 13.1339C9.44961 13.3013 10.7691 13.7182 12.2239 14.1964C12.3451 14.2362 12.4671 14.2764 12.5899 14.3169C13.8905 14.7456 15.271 15.2006 16.4727 15.4596C17.1333 15.6019 17.8016 15.6995 18.4165 15.6865C19.013 15.6738 19.7131 15.5548 20.2987 15.1083L20.3002 15.1073C20.8853 14.6598 21.2067 13.9956 21.3996 13.4054C21.5986 12.7965 21.714 12.1001 21.7869 11.3983C21.9182 10.1339 21.9302 8.63379 21.9416 7.21741C21.9428 7.06867 21.9439 6.9208 21.9453 6.77421C21.9596 5.17637 21.9894 3.73259 22.1619 2.63946C22.2482 2.09301 22.3572 1.72684 22.4655 1.50622C22.4827 1.47128 22.498 1.44348 22.5113 1.42156C22.5297 1.43009 22.5513 1.44088 22.5763 1.4545C22.7825 1.56708 23.0713 1.79781 23.4438 2.18948C24.1884 2.97245 25.0164 4.12424 25.9249 5.40967C25.9796 5.48703 26.0346 5.56487 26.0898 5.64306C26.9203 6.81922 27.8091 8.07798 28.6685 9.05506C29.1288 9.57844 29.622 10.0697 30.1359 10.4379C30.6373 10.7972 31.2749 11.1237 31.999 11.1237C32.7231 11.1237 33.3607 10.7972 33.8621 10.4379C34.376 10.0697 34.8691 9.57844 35.3295 9.05506C36.1889 8.07798 37.0777 6.81929 37.9082 5.64308C37.9634 5.56488 38.0184 5.48704 38.073 5.40968C38.9815 4.12425 39.8097 2.97245 40.5543 2.18948C40.9267 1.79782 41.2155 1.56708 41.4218 1.4545C41.4477 1.44035 41.4699 1.42927 41.4889 1.42058C41.5026 1.44293 41.5185 1.47161 41.5365 1.50805C41.6451 1.72825 41.7543 2.09392 41.8408 2.64003C42.0137 3.73255 42.0432 5.17588 42.0568 6.77361C42.0581 6.92289 42.0592 7.07345 42.0604 7.22501C42.0711 8.6387 42.0824 10.1355 42.2126 11.3974C42.285 12.0992 42.3999 12.7957 42.5986 13.4047C42.7912 13.995 43.1125 14.6596 43.6978 15.1073L43.6994 15.1083C44.285 15.5548 44.985 15.6738 45.5816 15.6865C46.1964 15.6995 46.8648 15.6019 47.5253 15.4596C48.7271 15.2006 50.1075 14.7456 51.4081 14.3169C51.5309 14.2764 51.653 14.2362 51.7742 14.1964C53.229 13.7182 54.5484 13.3013 55.5937 13.1339C56.1165 13.0501 56.4828 13.0446 56.7167 13.0837C56.7529 13.0899 56.7824 13.0962 56.8059 13.1024C56.8041 13.1251 56.801 13.1524 56.796 13.185C56.7594 13.426 56.6417 13.7863 56.404 14.2799C55.9287 15.2666 55.1432 16.4504 54.2602 17.7533C54.1947 17.8501 54.1286 17.9473 54.0622 18.0452C53.2648 19.2201 52.4153 20.4718 51.804 21.6065C51.4713 22.224 51.1771 22.864 51.0002 23.486C50.8282 24.091 50.7238 24.8289 50.9486 25.5531C51.1732 26.277 51.6802 26.7993 52.1524 27.1676C52.6414 27.5491 53.2357 27.8752 53.8481 28.1614C54.9346 28.6693 56.2661 29.1353 57.529 29.5772C57.6832 29.6312 57.8363 29.6848 57.9878 29.738C59.4317 30.2456 60.7321 30.7239 61.6695 31.238C62.1381 31.495 62.4367 31.7194 62.6037 31.8985C62.6445 31.9422 62.6715 31.9765 62.6891 32.0017C62.6714 32.0273 62.644 32.0625 62.6022 32.1074C62.4352 32.287 62.1367 32.5121 61.6684 32.7696C60.7315 33.2847 59.4313 33.7636 57.9878 34.271C57.8309 34.3262 57.6723 34.3817 57.5127 34.4376C56.2549 34.8776 54.9305 35.341 53.8493 35.8451C53.2372 36.1304 52.643 36.4554 52.1542 36.8354C51.6824 37.202 51.1742 37.7229 50.949 38.4462L50.9486 38.4475C50.7238 39.1717 50.8282 39.9096 51.0002 40.5146C51.1771 41.1367 51.4713 41.7766 51.804 42.3941C52.4153 43.5288 53.2648 44.7805 54.0622 45.9554C54.1286 46.0533 54.1947 46.1506 54.2602 46.2473C55.1432 47.5502 55.9287 48.734 56.404 49.7208C56.6417 50.2143 56.7594 50.5746 56.796 50.8156C56.801 50.8482 56.8041 50.8755 56.8059 50.8982C56.7824 50.9044 56.7529 50.9107 56.7167 50.9169C56.4828 50.956 56.1165 50.9505 55.5937 50.8668C54.5484 50.6993 53.229 50.2824 51.7742 49.8042C51.653 49.7644 51.531 49.7242 51.4083 49.6837C50.1077 49.255 48.7271 48.8 47.5253 48.541C46.8648 48.3987 46.1964 48.3011 45.5816 48.3141C44.985 48.3268 44.285 48.4458 43.6994 48.8923L43.6978 48.8934C43.1127 49.3408 42.7913 50.005 42.5984 50.5952C42.3994 51.2041 42.2841 51.9005 42.2112 52.6023C42.0799 53.8668 42.0679 55.3668 42.0565 56.7831C42.0553 56.9319 42.0541 57.0798 42.0528 57.2264C42.0384 58.8242 42.0086 60.268 41.8361 61.3612C41.7499 61.9076 41.6408 62.2738 41.5325 62.4944C41.5153 62.5293 41.5 62.5571 41.4868 62.5791C41.4683 62.5705 41.4467 62.5597 41.4218 62.5461C41.2155 62.4335 40.9267 62.2028 40.5543 61.8111C39.8097 61.0281 38.9815 59.8764 38.073 58.5909C38.0184 58.5136 37.9634 58.4358 37.9082 58.3576C37.0777 57.1814 36.1889 55.9226 35.3295 54.9456C34.8691 54.4222 34.376 53.9309 33.8621 53.5627C33.3607 53.2034 32.7231 52.877 31.999 52.877C31.2749 52.877 30.6373 53.2034 30.1359 53.5627C29.622 53.9309 29.1288 54.4222 28.6685 54.9456C27.8091 55.9227 26.9203 57.1814 26.0898 58.3576C26.0345 58.4358 25.9796 58.5136 25.9249 58.5909C25.0164 59.8764 24.1884 61.0281 23.4438 61.8111C23.0713 62.2028 22.7825 62.4335 22.5763 62.5461C22.5504 62.5602 22.5281 62.5713 22.5092 62.58C22.4955 62.5577 22.4795 62.529 22.4616 62.4926C22.353 62.2724 22.2437 61.9067 22.1573 61.3605C21.9844 60.268 21.9549 58.8247 21.9412 57.227C21.94 57.0778 21.9388 56.9272 21.9377 56.7757C21.927 55.3619 21.9157 53.8651 21.7855 52.6032C21.713 51.9014 21.5981 51.2049 21.3994 50.5959C21.2068 50.0056 20.8856 49.341 20.3002 48.8934L20.2987 48.8923C19.7131 48.4458 19.013 48.3268 18.4165 48.3141C17.8016 48.3011 17.1333 48.3987 16.4727 48.541C15.271 48.7999 13.8905 49.2549 12.59 49.6837C12.4671 49.7242 12.3451 49.7644 12.2239 49.8042C10.7691 50.2824 9.44961 50.6993 8.40431 50.8668C7.88156 50.9505 7.51526 50.956 7.28133 50.9169C7.24512 50.9107 7.21568 50.9044 7.19214 50.8982C7.19393 50.8755 7.19707 50.8482 7.20199 50.8156C7.23866 50.5746 7.35632 50.2143 7.59408 49.7208C8.06935 48.734 8.85482 47.5502 9.73785 46.2473C9.80337 46.1506 9.8694 46.0533 9.93582 45.9554C10.7332 44.7805 11.5827 43.5288 12.1941 42.3941C12.5266 41.7766 12.8209 41.1367 12.9978 40.5146C13.1697 39.9096 13.2742 39.1717 13.0494 38.4475L13.049 38.4462C12.8238 37.7229 12.3156 37.202 11.8438 36.8354C11.355 36.4554 10.7608 36.1304 10.1487 35.8451C9.0675 35.341 7.74304 34.8776 6.48538 34.4376C6.3257 34.3817 6.16709 34.3262 6.01018 34.2711C4.56675 33.7636 3.26655 33.2847 2.32962 32.7696C1.86135 32.5121 1.56286 32.287 1.39579 32.1074C1.35321 32.0616 1.32561 32.0261 1.30802 32.0003C1.32561 31.9745 1.35321 31.939 1.39579 31.8932C1.56286 31.7135 1.86134 31.4885 2.32962 31.231C3.26655 30.7158 4.56675 30.2369 6.01018 29.7296C6.16706 29.6744 6.32567 29.619 6.48531 29.5631C7.74304 29.123 9.0675 28.6596 10.1487 28.1556C10.7608 27.8702 11.355 27.5453 11.8438 27.1652C12.3156 26.7986 12.8238 26.2777 13.049 25.5544ZM7.19278 13.0088C7.19278 13.0088 7.19259 13.0115 7.19137 13.0161C7.19201 13.0109 7.19278 13.0088 7.19278 13.0088ZM7.11536 13.1293C7.11158 13.132 7.10922 13.133 7.10922 13.133C7.10922 13.133 7.11088 13.1316 7.11536 13.1293ZM22.5662 1.34768C22.5662 1.34768 22.5644 1.34982 22.5605 1.35277C22.5642 1.34893 22.5662 1.34768 22.5662 1.34768ZM22.4294 1.39126C22.4251 1.39098 22.4227 1.39033 22.4227 1.39033C22.4227 1.39033 22.4248 1.39031 22.4294 1.39126ZM41.441 1.35446C41.437 1.3515 41.4352 1.34931 41.4352 1.34931C41.4352 1.34931 41.4372 1.35056 41.441 1.35446ZM41.5753 1.39033C41.5753 1.39033 41.5729 1.39098 41.5687 1.39126C41.5732 1.3903 41.5753 1.39033 41.5753 1.39033ZM56.8067 13.0161C56.8055 13.0115 56.8053 13.0088 56.8053 13.0088C56.8053 13.0088 56.806 13.0109 56.8067 13.0161ZM41.5753 62.6103C41.5753 62.6103 41.5731 62.6103 41.5687 62.6093C41.573 62.6096 41.5753 62.6103 41.5753 62.6103ZM22.5629 62.6513C22.5629 62.6513 22.5608 62.65 22.557 62.6461C22.5611 62.6491 22.5629 62.6513 22.5629 62.6513ZM62.7193 32.0551C62.7193 32.0551 62.7179 32.0526 62.7164 32.0475C62.7188 32.0525 62.7193 32.0551 62.7193 32.0551ZM62.7159 31.9561C62.7173 31.9511 62.7187 31.9484 62.7187 31.9484C62.7187 31.9484 62.7183 31.9508 62.7159 31.9561ZM56.8827 50.8713C56.8865 50.8686 56.8889 50.8676 56.8889 50.8676C56.8889 50.8676 56.8871 50.869 56.8827 50.8713ZM41.4319 62.6529C41.4319 62.6529 41.4337 62.6507 41.4376 62.6479C41.4338 62.6518 41.4319 62.6529 41.4319 62.6529ZM22.4227 62.6103C22.4227 62.6103 22.4251 62.6096 22.4294 62.6093C22.4248 62.6103 22.4227 62.6103 22.4227 62.6103ZM7.19137 50.9846C7.19259 50.9891 7.19278 50.9918 7.19278 50.9918C7.19278 50.9918 7.19201 50.9897 7.19137 50.9846ZM1.27935 31.9484C1.27935 31.9484 1.28075 31.951 1.2821 31.9562C1.27977 31.9509 1.27935 31.9484 1.27935 31.9484ZM1.2821 32.0444C1.28076 32.0496 1.27935 32.0522 1.27935 32.0522C1.27935 32.0522 1.27977 32.0496 1.2821 32.0444Z" stroke="#FF7A2C" stroke-width="3"/>
<path id="Vector_2" d="M32 38.9999V25.0137" stroke="#FF7A2C" stroke-width="3" stroke-miterlimit="10"/>
<path id="Vector_3" d="M25.3398 31.998H38.6686" stroke="#FF7A2C" stroke-width="3" stroke-miterlimit="10"/>
</g>
<defs>
<clipPath id="clip0_3948_28616">
<rect width="64" height="64" fill="white"/>
</clipPath>
</defs>
</svg>
