<svg width="24" height="24" viewBox="0 0 24 24" fill="none" xmlns="http://www.w3.org/2000/svg">
<path d="M18.247 20.6624C18.1619 20.7682 18.055 20.8533 17.9338 20.9117C17.8126 20.9701 17.6803 21.0002 17.5464 21C17.4299 21.0007 17.3144 20.9774 17.2069 20.9315C17.0994 20.8856 17.002 20.818 16.9206 20.7328L13.3532 17.0803C13.1864 16.9095 13.0928 16.678 13.0928 16.4367C13.0928 16.1954 13.1864 15.9639 13.3532 15.7931C13.4358 15.7084 13.5338 15.6412 13.6419 15.5953C13.7499 15.5494 13.8657 15.5258 13.9826 15.5258C14.0996 15.5258 14.2154 15.5494 14.3234 15.5953C14.4314 15.6412 14.5295 15.7084 14.612 15.7931L16.6557 17.8963V4.91073C16.6557 4.66919 16.7496 4.43755 16.9166 4.26676C17.0836 4.09596 17.3102 4.00002 17.5464 4.00002C17.7826 4.00002 18.0091 4.09596 18.1762 4.26676C18.3432 4.43755 18.437 4.66919 18.437 4.91073V17.8841L20.4819 15.798C20.5645 15.7134 20.6625 15.6464 20.7704 15.6006C20.8783 15.5548 20.9939 15.5313 21.1107 15.5313C21.2275 15.5313 21.3432 15.5548 21.4511 15.6006C21.559 15.6464 21.657 15.7134 21.7395 15.798C21.9063 15.9688 22 16.2002 22 16.4416C22 16.6829 21.9063 16.9144 21.7395 17.0851L18.2458 20.6624H18.247ZM8.15307 4.33759C8.068 4.2318 7.96102 4.14665 7.83986 4.08828C7.71869 4.0299 7.58637 3.99975 7.45243 4.00002C7.33592 3.99932 7.22047 4.02261 7.11295 4.06851C7.00543 4.11441 6.90805 4.18196 6.82661 4.26716L3.26047 7.91972C3.09368 8.09048 3 8.32195 3 8.56329C3 8.80463 3.09368 9.0361 3.26047 9.20686C3.343 9.2916 3.44108 9.35884 3.54909 9.40472C3.6571 9.4506 3.7729 9.47421 3.88986 9.47421C4.00681 9.47421 4.12262 9.4506 4.23063 9.40472C4.33863 9.35884 4.43672 9.2916 4.51925 9.20686L6.56179 7.10494V20.0893C6.56179 20.3308 6.65562 20.5625 6.82265 20.7332C6.98968 20.904 7.21622 21 7.45243 21C7.68864 21 7.91518 20.904 8.08221 20.7332C8.24924 20.5625 8.34307 20.3308 8.34307 20.0893V7.11587L10.388 9.20201C10.4705 9.28656 10.5685 9.35364 10.6764 9.39942C10.7843 9.44519 10.9 9.46875 11.0168 9.46875C11.1336 9.46875 11.2493 9.44519 11.3572 9.39942C11.4651 9.35364 11.5631 9.28656 11.6456 9.20201C11.8124 9.03125 11.906 8.79978 11.906 8.55844C11.906 8.3171 11.8124 8.08562 11.6456 7.91487L8.15188 4.33637L8.15307 4.33759Z" fill="#6E57D5" fill-opacity="0.4"/>
</svg>
