<svg width="20" height="20" viewBox="0 0 20 20" fill="none" xmlns="http://www.w3.org/2000/svg">
<g id="20pt/Outline/Filter">
<path id="&#226;&#134;&#170;&#239;&#184;&#143; Icon Color" fill-rule="evenodd" clip-rule="evenodd" d="M7.46429 7.26087C6.79365 7.26087 6.25 6.71583 6.25 6.04348C6.25 5.37113 6.79365 4.82609 7.46429 4.82609C8.13492 4.82609 8.67857 5.37113 8.67857 6.04348C8.67857 6.71583 8.13492 7.26087 7.46429 7.26087ZM4.56755 5.13043C4.95438 3.89566 6.105 3 7.46429 3C8.82357 3 9.97419 3.89566 10.361 5.13043H18.0893C18.5923 5.13043 19 5.53922 19 6.04348C19 6.54774 18.5923 6.95652 18.0893 6.95652H10.361C9.97419 8.19129 8.82357 9.08696 7.46429 9.08696C6.105 9.08696 4.95438 8.19129 4.56755 6.95652H2.91071C2.40774 6.95652 2 6.54774 2 6.04348C2 5.53922 2.40774 5.13043 2.91071 5.13043H4.56755ZM13.5357 15.1739C14.2063 15.1739 14.75 14.6289 14.75 13.9565C14.75 13.2842 14.2063 12.7391 13.5357 12.7391C12.8651 12.7391 12.3214 13.2842 12.3214 13.9565C12.3214 14.6289 12.8651 15.1739 13.5357 15.1739ZM16.4325 13.0435C16.0456 11.8087 14.895 10.913 13.5357 10.913C12.1764 10.913 11.0258 11.8087 10.639 13.0435H2.91071C2.40774 13.0435 2 13.4523 2 13.9565C2 14.4608 2.40774 14.8696 2.91071 14.8696H10.639C11.0258 16.1043 12.1764 17 13.5357 17C14.895 17 16.0456 16.1043 16.4325 14.8696H18.0893C18.5923 14.8696 19 14.4608 19 13.9565C19 13.4523 18.5923 13.0435 18.0893 13.0435H16.4325Z" fill="#2E2360"/>
</g>
</svg>
