<svg width="24" height="25" viewBox="0 0 24 25" fill="none" xmlns="http://www.w3.org/2000/svg">
<g id="material-symbols-light:lists-rounded">
<path id="Vector" d="M8.885 19.5C8.59167 19.5 8.345 19.4003 8.145 19.201C7.94567 19.001 7.846 18.7543 7.846 18.461C7.846 18.1677 7.946 17.9213 8.146 17.722C8.34467 17.5227 8.591 17.423 8.885 17.423H19.962C20.2553 17.423 20.5017 17.523 20.701 17.723C20.9003 17.9217 21 18.168 21 18.462C21 18.7553 20.9003 19.0017 20.701 19.201C20.501 19.4003 20.2543 19.5 19.961 19.5H8.885ZM8.885 13.538C8.59167 13.538 8.345 13.4383 8.145 13.239C7.94567 13.0397 7.846 12.7933 7.846 12.5C7.846 12.2067 7.946 11.96 8.146 11.76C8.34467 11.5613 8.591 11.462 8.885 11.462H19.962C20.2553 11.462 20.5017 11.5617 20.701 11.761C20.9003 11.9603 21 12.2067 21 12.5C21 12.7933 20.9003 13.04 20.701 13.24C20.501 13.4387 20.2543 13.538 19.961 13.538H8.885ZM8.885 7.577C8.59167 7.577 8.345 7.477 8.145 7.277C7.94567 7.07833 7.846 6.832 7.846 6.538C7.846 6.24467 7.946 5.99833 8.146 5.799C8.344 5.59967 8.59 5.5 8.884 5.5H19.961C20.2543 5.5 20.5007 5.59967 20.7 5.799C20.8993 5.999 20.999 6.24567 20.999 6.539C20.999 6.83233 20.8993 7.07867 20.7 7.278C20.5 7.47733 20.2533 7.577 19.96 7.577H8.885ZM4.038 7.577C3.74467 7.577 3.49833 7.477 3.299 7.277C3.09967 7.079 3 6.833 3 6.539C3 6.24567 3.09967 5.99933 3.299 5.8C3.499 5.60067 3.74567 5.501 4.039 5.501C4.33233 5.501 4.57867 5.60067 4.778 5.8C4.97733 6 5.077 6.24667 5.077 6.54C5.077 6.83333 4.977 7.07967 4.777 7.279C4.57833 7.47833 4.332 7.577 4.038 7.577ZM4.038 13.538C3.74467 13.538 3.49833 13.4383 3.299 13.239C3.09967 13.0397 3 12.7933 3 12.5C3 12.2067 3.09967 11.96 3.299 11.76C3.499 11.5613 3.74567 11.462 4.039 11.462C4.33233 11.462 4.57867 11.5617 4.778 11.761C4.97733 11.9603 5.077 12.2067 5.077 12.5C5.077 12.7933 4.977 13.04 4.777 13.24C4.57833 13.4387 4.332 13.538 4.038 13.538ZM4.038 19.5C3.74467 19.5 3.49833 19.4003 3.299 19.201C3.09967 19.001 3 18.7543 3 18.461C3 18.1677 3.09967 17.9213 3.299 17.722C3.499 17.5227 3.74567 17.423 4.039 17.423C4.33233 17.423 4.57867 17.523 4.778 17.723C4.97733 17.9217 5.077 18.168 5.077 18.462C5.077 18.7553 4.977 19.0017 4.777 19.201C4.579 19.4003 4.332 19.5 4.038 19.5Z" fill="#2E2360"/>
</g>
</svg>
