<svg width="24" height="25" viewBox="0 0 24 25" fill="none" xmlns="http://www.w3.org/2000/svg">
<g id="fi-rr-marker">
<path id="Vector" d="M12 7.5C11.2089 7.5 10.4355 7.7346 9.77772 8.17412C9.11992 8.61365 8.60723 9.23836 8.30448 9.96927C8.00173 10.7002 7.92252 11.5044 8.07686 12.2804C8.2312 13.0563 8.61216 13.769 9.17157 14.3284C9.73098 14.8878 10.4437 15.2688 11.2196 15.4231C11.9956 15.5775 12.7998 15.4983 13.5307 15.1955C14.2616 14.8928 14.8864 14.3801 15.3259 13.7223C15.7654 13.0645 16 12.2911 16 11.5C16 10.4391 15.5786 9.42172 14.8284 8.67157C14.0783 7.92143 13.0609 7.5 12 7.5ZM12 13.5C11.6044 13.5 11.2178 13.3827 10.8889 13.1629C10.56 12.9432 10.3036 12.6308 10.1522 12.2654C10.0009 11.8999 9.96126 11.4978 10.0384 11.1098C10.1156 10.7219 10.3061 10.3655 10.5858 10.0858C10.8655 9.80608 11.2219 9.6156 11.6098 9.53843C11.9978 9.46126 12.3999 9.50086 12.7654 9.65224C13.1308 9.80362 13.4432 10.06 13.6629 10.3889C13.8827 10.7178 14 11.1044 14 11.5C14 12.0304 13.7893 12.5391 13.4142 12.9142C13.0391 13.2893 12.5304 13.5 12 13.5Z" fill="#2E2360"/>
<path id="Vector_2" d="M12 23.4999C11.2463 23.5037 10.5026 23.3309 9.83129 22.996C9.15994 22.6611 8.58044 22.1739 8.14132 21.5751C4.73018 16.9756 3 13.5179 3 11.2974C3 8.96416 3.94821 6.72652 5.63604 5.07669C7.32387 3.42686 9.61305 2.5 12 2.5C14.3869 2.5 16.6761 3.42686 18.364 5.07669C20.0518 6.72652 21 8.96416 21 11.2974C21 13.5179 19.2698 16.9756 15.8587 21.5751C15.4196 22.1739 14.8401 22.6611 14.1687 22.996C13.4974 23.3309 12.7537 23.5037 12 23.4999ZM12 4.40996C10.1315 4.41204 8.34005 5.13853 7.01878 6.43005C5.69752 7.72156 4.95429 9.47264 4.95216 11.2991C4.95216 13.0577 6.64654 16.3098 9.72203 20.4561C9.98312 20.8076 10.3256 21.0937 10.7216 21.291C11.1175 21.4883 11.5556 21.5911 12 21.5911C12.4444 21.5911 12.8825 21.4883 13.2784 21.291C13.6744 21.0937 14.0169 20.8076 14.278 20.4561C17.3535 16.3098 19.0478 13.0577 19.0478 11.2991C19.0457 9.47264 18.3025 7.72156 16.9812 6.43005C15.66 5.13853 13.8685 4.41204 12 4.40996Z" fill="#2E2360"/>
</g>
</svg>
