<svg width="210" height="66" viewBox="0 0 210 66" fill="none" xmlns="http://www.w3.org/2000/svg">
<path d="M89.643 26V2.24H93.0915V13.328L103.041 2.24H107.331L96.8205 13.8395L108.107 26H103.685L93.0915 14.648V26H89.643ZM111.584 26V2.24H115.033V26H111.584ZM120.813 26V2.24H124.311L136.009 19.895V2.24H139.507V26H136.009L124.311 8.3285V26H120.813ZM144.937 26V2.24H152.379C152.599 2.24 153.006 2.2455 153.6 2.2565C154.205 2.2675 154.782 2.3115 155.332 2.3885C157.191 2.6195 158.753 3.285 160.018 4.385C161.294 5.485 162.257 6.882 162.906 8.576C163.555 10.259 163.879 12.107 163.879 14.12C163.879 16.144 163.555 18.003 162.906 19.697C162.257 21.38 161.294 22.7715 160.018 23.8715C158.753 24.9605 157.191 25.6205 155.332 25.8515C154.782 25.9285 154.205 25.9725 153.6 25.9835C153.006 25.9945 152.599 26 152.379 26H144.937ZM148.468 22.7165H152.379C152.753 22.7165 153.198 22.7055 153.715 22.6835C154.232 22.6615 154.689 22.6175 155.085 22.5515C156.295 22.3205 157.274 21.798 158.022 20.984C158.781 20.159 159.336 19.147 159.688 17.948C160.04 16.749 160.216 15.473 160.216 14.12C160.216 12.723 160.035 11.4305 159.672 10.2425C159.309 9.0435 158.748 8.0425 157.989 7.2395C157.241 6.4255 156.273 5.9085 155.085 5.6885C154.689 5.6115 154.227 5.5675 153.699 5.5565C153.182 5.5345 152.742 5.5235 152.379 5.5235H148.468V22.7165ZM168.547 26V2.24H183.727V5.4905H171.995V12.1565H181.747V15.407H171.995V22.7495H183.727V26H168.547ZM188.514 26V2.24H198.117C198.348 2.24 198.634 2.251 198.975 2.273C199.316 2.284 199.641 2.317 199.949 2.372C201.269 2.581 202.369 3.032 203.249 3.725C204.14 4.418 204.805 5.2925 205.245 6.3485C205.685 7.4045 205.905 8.5705 205.905 9.8465C205.905 11.7385 205.421 13.372 204.453 14.747C203.485 16.111 202.033 16.9635 200.097 17.3045L198.695 17.4695H191.963V26H188.514ZM202.407 26L197.721 16.331L201.203 15.44L206.351 26H202.407ZM191.963 14.2025H197.985C198.205 14.2025 198.447 14.1915 198.711 14.1695C198.986 14.1475 199.245 14.109 199.487 14.054C200.191 13.889 200.757 13.5865 201.186 13.1465C201.615 12.6955 201.923 12.1785 202.11 11.5955C202.297 11.0125 202.391 10.4295 202.391 9.8465C202.391 9.2635 202.297 8.686 202.11 8.114C201.923 7.531 201.615 7.0195 201.186 6.5795C200.757 6.1285 200.191 5.8205 199.487 5.6555C199.245 5.5895 198.986 5.5455 198.711 5.5235C198.447 5.5015 198.205 5.4905 197.985 5.4905H191.963V14.2025Z" fill="#FEFEFE"/>
<path d="M100.69 64.675C98.5147 64.675 96.5122 64.3 94.6822 63.55C92.8522 62.785 91.2622 61.675 89.9122 60.22C88.5622 58.765 87.5122 56.995 86.7622 54.91C86.0122 52.825 85.6372 50.455 85.6372 47.8C85.6372 44.305 86.2747 41.305 87.5497 38.8C88.8247 36.28 90.5947 34.345 92.8597 32.995C95.1247 31.63 97.7347 30.9475 100.69 30.9475C104.5 30.9475 107.537 31.8325 109.802 33.6025C112.082 35.3725 113.635 37.8175 114.46 40.9375L109.69 41.7925C109.03 39.8575 107.965 38.3125 106.495 37.1575C105.025 36.0025 103.18 35.4175 100.96 35.4025C98.6647 35.3875 96.7522 35.8975 95.2222 36.9325C93.7072 37.9675 92.5672 39.4225 91.8022 41.2975C91.0372 43.1575 90.6472 45.325 90.6322 47.8C90.6172 50.275 90.9922 52.4425 91.7572 54.3025C92.5222 56.1475 93.6697 57.5875 95.1997 58.6225C96.7447 59.6575 98.6647 60.1825 100.96 60.1975C102.805 60.2275 104.387 59.89 105.707 59.185C107.042 58.465 108.1 57.415 108.88 56.035C109.66 54.655 110.162 52.96 110.387 50.95H104.087V47.17H115.382C115.412 47.44 115.435 47.8 115.45 48.25C115.465 48.685 115.472 48.9625 115.472 49.0825C115.472 52.0825 114.895 54.76 113.74 57.115C112.585 59.47 110.905 61.3225 108.7 62.6725C106.495 64.0075 103.825 64.675 100.69 64.675ZM131.297 64.675C128.762 64.675 126.519 64.1575 124.569 63.1225C122.634 62.0725 121.119 60.61 120.024 58.735C118.929 56.845 118.382 54.625 118.382 52.075V31.6225L123.152 31.6V51.8275C123.152 53.2075 123.384 54.4225 123.849 55.4725C124.314 56.5225 124.937 57.4 125.717 58.105C126.497 58.81 127.367 59.3425 128.327 59.7025C129.302 60.0625 130.292 60.2425 131.297 60.2425C132.317 60.2425 133.307 60.0625 134.267 59.7025C135.242 59.3275 136.119 58.7875 136.899 58.0825C137.679 57.3775 138.294 56.5 138.744 55.45C139.209 54.4 139.442 53.1925 139.442 51.8275V31.6H144.212V52.075C144.212 54.61 143.664 56.8225 142.569 58.7125C141.474 60.6025 139.952 62.0725 138.002 63.1225C136.067 64.1575 133.832 64.675 131.297 64.675ZM149.381 64V31.6H154.083V64H149.381ZM159.265 64V31.6H169.412C169.712 31.6 170.267 31.6075 171.077 31.6225C171.902 31.6375 172.69 31.6975 173.44 31.8025C175.975 32.1175 178.105 33.025 179.83 34.525C181.57 36.025 182.882 37.93 183.767 40.24C184.652 42.535 185.095 45.055 185.095 47.8C185.095 50.56 184.652 53.095 183.767 55.405C182.882 57.7 181.57 59.5975 179.83 61.0975C178.105 62.5825 175.975 63.4825 173.44 63.7975C172.69 63.9025 171.902 63.9625 171.077 63.9775C170.267 63.9925 169.712 64 169.412 64H159.265ZM164.08 59.5225H169.412C169.922 59.5225 170.53 59.5075 171.235 59.4775C171.94 59.4475 172.562 59.3875 173.102 59.2975C174.752 58.9825 176.087 58.27 177.107 57.16C178.142 56.035 178.9 54.655 179.38 53.02C179.86 51.385 180.1 49.645 180.1 47.8C180.1 45.895 179.852 44.1325 179.357 42.5125C178.862 40.8775 178.097 39.5125 177.062 38.4175C176.042 37.3075 174.722 36.6025 173.102 36.3025C172.562 36.1975 171.932 36.1375 171.212 36.1225C170.507 36.0925 169.907 36.0775 169.412 36.0775H164.08V59.5225ZM188.759 64V31.6H209.459V36.0325H193.462V45.1225H206.759V49.555H193.462V59.5675H209.459V64H188.759Z" fill="#FEFEFE"/>
<path d="M32.0982 13.6387C32.2021 13.9089 32.1778 14.2037 32.0304 14.4583C31.883 14.713 31.6248 14.9067 31.3123 14.9969C30.9305 15.1012 30.5763 15.2698 30.2702 15.4929C29.9641 15.7161 29.7122 15.9894 29.529 16.2971C29.0664 17.047 28.753 18.2806 29.044 20.2942C29.0846 20.5772 28.9934 20.8625 28.7905 21.0874C28.5875 21.3123 28.2896 21.4583 27.9621 21.4934C27.6346 21.5284 27.3044 21.4496 27.0441 21.2743C26.7839 21.099 26.6149 20.8415 26.5742 20.5586C26.2459 18.2741 26.5518 16.5528 27.3353 15.287C28.1312 13.9976 29.3424 13.2991 30.5239 12.9596C30.6788 12.9148 30.8425 12.8969 31.0055 12.9067C31.1685 12.9166 31.3277 12.9541 31.4739 13.0172C31.6201 13.0803 31.7505 13.1676 31.8577 13.2743C31.9647 13.381 32.0465 13.5047 32.0982 13.6387ZM44.3698 2.10282C44.5289 2.06115 44.6767 1.99232 44.8045 1.90041C44.9323 1.8085 45.0375 1.69539 45.1139 1.56774C45.1902 1.4401 45.2361 1.30052 45.2489 1.15727C45.2617 1.01403 45.2412 0.87001 45.1884 0.73375C45.1357 0.597489 45.0518 0.471755 44.9419 0.363975C44.8319 0.256195 44.6981 0.168569 44.5482 0.106269C44.3984 0.0439696 44.2356 0.00826948 44.0696 0.00127416C43.9035 -0.00572116 43.7374 0.0161401 43.5813 0.0655559C41.2484 0.73605 39.7958 2.39079 38.9403 4.1637C38.8254 4.40336 38.72 4.64635 38.6244 4.89224C38.1585 4.12963 37.5624 3.43198 36.8561 2.82274C35.9001 1.99496 34.7583 1.34487 33.5008 0.912482C32.2433 0.480081 30.8967 0.274511 29.5439 0.308396C28.1013 0.342779 26.9498 1.33992 26.91 2.5842C26.8704 3.76865 27.1155 4.94736 27.6296 6.04593C28.1437 7.14441 28.9158 8.13895 29.8971 8.96674C27.8079 9.35781 25.9199 10.3196 24.5125 11.7098C23.1051 13.1001 22.2531 14.8448 22.0825 16.686L22.0676 16.8451C21.7393 20.3849 22.6122 23.9306 24.5796 27.0485L25.475 28.4626C25.4998 28.4992 25.5247 28.5357 25.5546 28.5701L28.0417 31.583C28.6054 32.2651 29.3343 32.8329 30.1777 33.2469C31.0211 33.6609 31.9588 33.9112 32.9256 33.9803C33.8923 34.0495 34.8648 33.9358 35.7755 33.6472C36.6863 33.3586 37.5134 32.9021 38.1992 32.3093C38.3045 32.2183 38.4295 32.1461 38.5671 32.0968C38.7048 32.0475 38.8523 32.0222 39.0012 32.0222C39.1502 32.0222 39.2977 32.0475 39.4354 32.0968C39.5729 32.1461 39.698 32.2183 39.8033 32.3093C40.4891 32.9021 41.3161 33.3586 42.2269 33.6472C43.1376 33.9358 44.1102 34.0495 45.0769 33.9803C46.0436 33.9112 46.9813 33.6609 47.8247 33.2469C48.6682 32.8329 49.3971 32.2651 49.9608 31.583L52.4479 28.5722C52.4769 28.5371 52.5036 28.5005 52.5275 28.4626L53.4204 27.0485C55.3878 23.9306 56.2607 20.3849 55.9324 16.8451L55.92 16.686C55.8099 15.4993 55.4158 14.3453 54.7625 13.297C54.1092 12.2489 53.211 11.3293 52.1249 10.5968C51.0388 9.8642 49.7885 9.33452 48.4531 9.0414C47.1176 8.7482 45.7263 8.69793 44.3673 8.89368L40.2461 9.4868C40.2709 8.02335 40.5694 6.37717 41.2384 4.98896C41.9348 3.53839 42.9695 2.50684 44.3673 2.10282H44.3698Z" fill="#FEFEFE"/>
<path d="M6 37C6 35.8954 6.89543 35 8 35H72C73.1046 35 74 35.8954 74 37V46C74 47.1046 73.1046 48 72 48H8C6.89543 48 6 47.1046 6 46V37Z" fill="#FEFEFE"/>
<path fill-rule="evenodd" clip-rule="evenodd" d="M2 50.5C0.895431 50.5 0 51.3954 0 52.5V63C0 64.1046 0.895429 65 2 65H78C79.1046 65 80 64.1046 80 63V52.5C80 51.3954 79.1046 50.5 78 50.5H2Z" fill="#FEFEFE"/>
</svg>
