<svg width="44" height="44" viewBox="0 0 44 44" fill="none" xmlns="http://www.w3.org/2000/svg">
<path fill-rule="evenodd" clip-rule="evenodd" d="M22.5 9C15.044 9 9 14.8201 9 22C9 24.457 9.70875 26.758 10.9413 28.7184L9.7371 32.66C9.66796 32.8863 9.66341 33.1264 9.72393 33.3549C9.78445 33.5835 9.9078 33.7922 10.081 33.959C10.2542 34.1258 10.4709 34.2446 10.7083 34.3029C10.9457 34.3611 11.195 34.3568 11.43 34.2902L15.5232 33.1306C17.6274 34.3566 20.0406 35.0032 22.5 35C29.9561 35 36 29.1799 36 22C36 14.8201 29.9561 9 22.5 9ZM19.4463 24.9419C22.1774 27.5705 24.7842 27.9176 25.7049 27.9501C27.1048 27.9995 28.4683 26.9699 28.9989 25.7752C29.0659 25.6266 29.0902 25.4634 29.0693 25.3026C29.0484 25.1418 28.9831 24.9894 28.8801 24.8613C28.1403 23.9513 27.1399 23.2974 26.1625 22.6474C25.9585 22.5115 25.7077 22.457 25.4628 22.4953C25.2179 22.5336 24.9979 22.6617 24.849 22.8528L24.039 24.0423C23.9964 24.1062 23.9301 24.1521 23.8535 24.1705C23.777 24.1888 23.696 24.1783 23.6273 24.1411C23.0778 23.8382 22.2773 23.3234 21.7022 22.7696C21.1271 22.2158 20.6249 21.48 20.3427 20.9847C20.3077 20.9218 20.2976 20.8488 20.3142 20.7792C20.3309 20.7096 20.3731 20.6483 20.4332 20.6064L21.6805 19.7146C21.8586 19.5655 21.9735 19.3587 22.0033 19.1333C22.0332 18.908 21.976 18.6799 21.8425 18.4926C21.2377 17.6398 20.5331 16.5556 19.5111 15.8367C19.3792 15.7447 19.2247 15.6873 19.0628 15.6702C18.9009 15.6531 18.7372 15.6769 18.5877 15.7392C17.3457 16.2514 16.2711 17.5644 16.3224 18.9151C16.3561 19.8017 16.7166 22.312 19.4463 24.9419Z" fill="#FEFEFE"/>
</svg>
